<?xml version="1.0" encoding="UTF-8"?>
<svg width="1200" height="800" viewBox="0 0 1200 800" xmlns="http://www.w3.org/2000/svg">
  <rect width="100%" height="100%" fill="#0f172a"/>
  <g transform="translate(80,80)"><path d="M205.97,0.00 L207.61,1.18 L209.36,0.21 L209.25,2.36 L210.89,3.53 L212.64,2.56 L212.75,0.41 L214.39,1.59 L216.13,0.62 L216.03,2.77 L217.66,3.94 L215.92,4.92 L215.81,7.07 L217.45,8.24 L219.20,7.27 L219.09,9.42 L220.73,10.60 L222.47,9.63 L222.58,7.48 L224.22,8.65 L225.97,7.68 L226.08,5.53 L224.44,4.36 L226.19,3.38 L226.29,1.23 L227.93,2.41 L229.68,1.44 L229.57,3.59 L231.21,4.77 L232.96,3.79 L233.07,1.64 L234.71,2.82 L236.45,1.85 L236.35,4.00 L237.98,5.18 L236.24,6.15 L236.13,8.30 L237.77,9.48 L239.52,8.51 L239.41,10.65 L241.05,11.83 L239.30,12.80 L239.19,14.95 L237.55,13.78 L235.81,14.75 L235.70,16.90 L237.34,18.08 L235.59,19.05 L235.48,21.20 L237.12,22.38 L238.87,21.40 L238.76,23.55 L240.40,24.73 L242.15,23.76 L242.25,21.61 L243.89,22.79 L245.64,21.81 L245.53,23.96 L247.17,25.14 L245.43,26.11 L245.32,28.26 L246.96,29.44 L248.70,28.47 L248.60,30.62 L250.24,31.80 L251.98,30.82 L252.09,28.67 L253.73,29.85 L255.48,28.88 L255.59,26.73 L253.95,25.55 L255.69,24.58 L255.80,22.43 L257.44,23.61 L259.19,22.64 L259.08,24.79 L260.72,25.96 L262.47,24.99 L262.58,22.84 L264.21,24.02 L265.96,23.05 L266.07,20.90 L264.43,19.72 L266.18,18.75 L266.29,16.60 L264.65,15.42 L262.90,16.39 L263.01,14.24 L261.37,13.07 L263.12,12.09 L263.22,9.94 L264.86,11.12 L266.61,10.15 L266.72,8.00 L265.08,6.82 L266.83,5.85 L266.93,3.70 L268.57,4.88 L270.32,3.91 L270.21,6.06 L271.85,7.23 L273.60,6.26 L273.71,4.11 L275.35,5.29 L277.09,4.32 L276.99,6.47 L278.63,7.65 L276.88,8.62 L276.77,10.77 L278.41,11.94 L280.16,10.97 L280.05,13.12 L281.69,14.30 L283.44,13.33 L283.54,11.18 L285.18,12.36 L286.93,11.38 L287.04,9.23 L285.40,8.06 L287.15,7.08 L287.25,4.93 L288.89,6.11 L290.64,5.14 L290.53,7.29 L292.17,8.47 L293.92,7.50 L294.03,5.35 L295.67,6.52 L297.41,5.55 L297.31,7.70 L298.95,8.88 L297.20,9.85 L297.09,12.00 L298.73,13.18 L300.48,12.21 L300.37,14.36 L302.01,15.53 L300.26,16.51 L300.15,18.66 L298.51,17.48 L296.77,18.45 L296.66,20.60 L298.30,21.78 L296.55,22.75 L296.44,24.90 L298.08,26.08 L299.83,25.10 L299.72,27.25 L301.36,28.43 L303.11,27.46 L303.22,25.31 L304.85,26.49 L306.60,25.52 L306.49,27.67 L308.13,28.84 L306.39,29.81 L306.28,31.96 L307.92,33.14 L309.67,32.17 L309.56,34.32 L311.20,35.50 L309.45,36.47 L309.34,38.62 L307.70,37.44 L305.95,38.41 L305.85,40.56 L307.49,41.74 L305.74,42.71 L305.63,44.86 L303.99,43.68 L302.24,44.66 L302.35,42.51 L300.71,41.33 L298.97,42.30 L298.86,44.45 L297.22,43.27 L295.47,44.25 L295.36,46.40 L297.00,47.57 L295.25,48.54 L295.15,50.69 L296.79,51.87 L298.53,50.90 L298.43,53.05 L300.06,54.23 L298.32,55.20 L298.21,57.35 L296.57,56.17 L294.82,57.14 L294.71,59.29 L296.35,60.47 L294.61,61.44 L294.50,63.59 L296.14,64.77 L297.89,63.80 L297.78,65.95 L299.42,67.13 L301.16,66.15 L301.27,64.00 L302.91,65.18 L304.66,64.21 L304.55,66.36 L306.19,67.54 L304.44,68.51 L304.33,70.66 L305.97,71.84 L307.72,70.86 L307.61,73.01 L309.25,74.19 L311.00,73.22 L311.11,71.07 L312.75,72.25 L314.49,71.28 L314.60,69.13 L312.96,67.95 L314.71,66.98 L314.82,64.83 L316.46,66.00 L318.21,65.03 L318.10,67.18 L319.74,68.36 L321.48,67.39 L321.59,65.24 L323.23,66.42 L324.98,65.44 L324.87,67.59 L326.51,68.77 L324.76,69.74 L324.65,71.89 L326.29,73.07 L328.04,72.10 L327.93,74.25 L329.57,75.42 L327.83,76.40 L327.72,78.55 L326.08,77.37 L324.33,78.34 L324.22,80.49 L325.86,81.67 L324.12,82.64 L324.01,84.79 L325.65,85.97 L327.39,85.00 L327.29,87.15 L328.93,88.32 L330.67,87.35 L330.78,85.20 L332.42,86.38 L334.17,85.41 L334.06,87.56 L335.70,88.73 L333.95,89.71 L333.84,91.86 L335.48,93.03 L337.23,92.06 L337.12,94.21 L338.76,95.39 L340.26,95.79 L341.33,94.56 L341.76,96.19 L343.26,96.59 L344.32,95.36 L343.89,93.73 L345.39,94.13 L346.45,92.90 L346.89,94.53 L348.39,94.93 L347.32,96.16 L347.76,97.78 L349.26,98.18 L350.32,96.96 L350.76,98.58 L352.26,98.98 L353.32,97.75 L352.89,96.13 L354.39,96.53 L355.45,95.30 L355.02,93.67 L353.52,93.27 L354.58,92.04 L354.15,90.42 L355.65,90.82 L356.71,89.59 L357.14,91.21 L358.64,91.61 L359.71,90.39 L359.27,88.76 L360.77,89.16 L361.84,87.93 L362.27,89.56 L363.77,89.96 L362.71,91.18 L363.14,92.81 L364.64,93.21 L365.71,91.98 L366.14,93.61 L367.64,94.01 L366.58,95.24 L367.01,96.87 L365.51,96.47 L364.45,97.69 L364.88,99.32 L366.38,99.72 L365.32,100.95 L365.75,102.58 L367.25,102.98 L368.32,101.75 L368.75,103.38 L370.25,103.78 L371.32,102.55 L370.88,100.92 L372.38,101.32 L373.45,100.09 L373.88,101.72 L375.38,102.12 L374.32,103.35 L374.75,104.97 L376.25,105.37 L377.32,104.14 L377.75,105.77 L379.25,106.17 L380.32,104.94 L379.88,103.32 L381.38,103.72 L382.44,102.49 L382.01,100.86 L380.51,100.46 L381.57,99.23 L381.14,97.60 L382.64,98.00 L383.70,96.78 L384.14,98.40 L385.64,98.80 L386.70,97.57 L386.27,95.95 L387.77,96.35 L388.83,95.12 L388.40,93.49 L386.90,93.09 L387.96,91.86 L387.53,90.24 L386.03,89.84 L384.96,91.06 L384.53,89.44 L383.03,89.04 L384.09,87.81 L383.66,86.18 L385.16,86.58 L386.22,85.35 L385.78,83.73 L384.29,83.33 L385.35,82.10 L384.91,80.47 L386.41,80.87 L387.48,79.64 L387.91,81.27 L389.41,81.67 L390.48,80.44 L390.04,78.81 L391.54,79.21 L392.61,77.98 L393.04,79.61 L394.54,80.01 L393.48,81.24 L393.91,82.87 L395.41,83.27 L396.48,82.04 L396.91,83.67 L398.41,84.07 L399.48,82.84 L399.04,81.21 L400.54,81.61 L401.60,80.38 L401.17,78.75 L399.67,78.35 L400.73,77.13 L400.30,75.50 L401.80,75.90 L402.86,74.67 L403.30,76.30 L404.80,76.70 L405.86,75.47 L405.43,73.84 L406.93,74.24 L407.99,73.01 L408.43,74.64 L409.93,75.04 L408.86,76.27 L409.30,77.89 L410.80,78.29 L411.86,77.07 L412.30,78.69 L413.80,79.09 L412.73,80.32 L413.17,81.95 L411.67,81.55 L410.60,82.78 L411.04,84.40 L412.54,84.80 L411.47,86.03 L411.91,87.66 L413.41,88.06 L414.47,86.83 L414.91,88.46 L416.41,88.86 L417.47,87.63 L417.04,86.00 L418.54,86.40 L419.60,85.17 L420.04,86.80 L421.54,87.20 L420.47,88.43 L420.91,90.06 L422.41,90.46 L423.47,89.23 L423.91,90.85 L425.40,91.25 L424.34,92.48 L424.78,94.11 L423.28,93.71 L422.21,94.94 L422.65,96.57 L424.15,96.97 L423.08,98.19 L423.52,99.82 L422.02,99.42 L420.95,100.65 L420.52,99.02 L419.02,98.62 L417.95,99.85 L418.39,101.48 L416.89,101.08 L415.83,102.31 L416.26,103.93 L417.76,104.33 L416.70,105.56 L417.13,107.19 L418.63,107.59 L419.69,106.36 L420.13,107.99 L421.63,108.39 L420.57,109.62 L421.00,111.24 L419.50,110.84 L418.44,112.07 L418.87,113.70 L420.37,114.10 L419.31,115.33 L419.74,116.95 L421.24,117.35 L422.31,116.13 L422.74,117.75 L424.24,118.15 L425.31,116.92 L424.87,115.30 L426.37,115.70 L427.43,114.47 L427.87,116.10 L429.37,116.50 L428.30,117.72 L428.74,119.35 L430.24,119.75 L431.30,118.52 L431.74,120.15 L433.24,120.55 L434.30,119.32 L433.87,117.69 L435.37,118.09 L436.43,116.86 L436.00,115.24 L434.50,114.84 L435.56,113.61 L435.13,111.98 L436.63,112.38 L437.69,111.15 L438.13,112.78 L439.63,113.18 L440.69,111.95 L440.25,110.32 L441.75,110.72 L442.82,109.50 L443.25,111.12 L444.75,111.52 L443.69,112.75 L444.12,114.38 L445.62,114.78 L446.69,113.55 L447.12,115.18 L448.62,115.58 L447.56,116.80 L447.99,118.43 L446.49,118.03 L445.43,119.26 L445.87,120.89 L447.36,121.29 L446.30,122.52 L446.74,124.14 L448.24,124.54 L449.30,123.31 L449.73,124.94 L451.23,125.34 L452.30,124.11 L451.86,122.49 L453.36,122.89 L454.43,121.66 L454.86,123.28 L456.36,123.68 L455.30,124.91 L455.73,126.54 L457.23,126.94 L458.30,125.71 L458.73,127.34 L460.23,127.74 L459.70,128.07 L459.69,128.73 L459.17,128.39 L458.64,128.72 L458.63,129.39 L459.16,129.73 L458.63,130.06 L458.62,130.73 L458.09,130.39 L457.56,130.72 L457.57,130.05 L457.05,129.70 L456.52,130.03 L456.51,130.70 L455.99,130.36 L455.45,130.69 L455.45,131.36 L455.97,131.70 L455.44,132.03 L455.43,132.70 L455.96,133.04 L456.49,132.71 L456.48,133.38 L457.00,133.72 L456.47,134.05 L456.46,134.72 L455.94,134.38 L455.41,134.70 L455.40,135.37 L455.93,135.71 L455.40,136.04 L455.39,136.71 L454.86,136.37 L454.33,136.70 L454.34,136.03 L453.82,135.69 L453.29,136.01 L453.28,136.68 L452.76,136.34 L452.22,136.67 L452.23,136.00 L451.71,135.66 L452.24,135.33 L452.25,134.66 L451.72,134.32 L451.19,134.65 L451.20,133.98 L450.68,133.64 L450.14,133.96 L450.14,134.63 L449.61,134.29 L449.08,134.62 L449.08,135.29 L449.60,135.63 L449.07,135.96 L449.06,136.63 L448.54,136.29 L448.01,136.61 L448.01,135.94 L447.49,135.60 L446.96,135.93 L446.95,136.60 L446.43,136.26 L445.90,136.59 L445.89,137.25 L446.41,137.60 L445.88,137.92 L445.88,138.59 L446.40,138.94 L446.93,138.61 L446.92,139.28 L447.45,139.62 L446.92,139.95 L446.91,140.62 L446.38,140.27 L445.85,140.60 L445.85,141.27 L446.37,141.61 L445.84,141.94 L445.83,142.61 L446.35,142.95 L446.89,142.62 L446.88,143.29 L447.40,143.63 L447.93,143.31 L447.94,142.64 L448.46,142.98 L448.99,142.65 L448.99,143.32 L449.51,143.66 L448.98,143.99 L448.97,144.66 L449.50,145.00 L450.03,144.67 L450.02,145.34 L450.54,145.68 L450.01,146.01 L450.01,146.68 L449.48,146.34 L448.95,146.67 L448.94,147.34 L449.47,147.68 L448.94,148.01 L448.93,148.68 L448.41,148.33 L447.87,148.66 L447.88,147.99 L447.36,147.65 L446.83,147.98 L446.82,148.65 L446.30,148.31 L445.77,148.63 L445.76,149.30 L446.28,149.64 L445.75,149.97 L445.74,150.64 L446.27,150.98 L446.80,150.66 L446.79,151.33 L447.31,151.67 L446.78,151.99 L446.78,152.66 L446.25,152.32 L445.72,152.65 L445.71,153.32 L446.24,153.66 L445.71,153.99 L445.70,154.66 L445.18,154.32 L444.64,154.64 L444.65,153.97 L444.13,153.63 L443.60,153.96 L443.59,154.63 L443.07,154.29 L442.54,154.62 L442.54,153.95 L442.02,153.60 L442.55,153.28 L442.56,152.61 L442.03,152.27 L441.50,152.59 L441.51,151.92 L440.99,151.58 L440.46,151.91 L440.45,152.58 L439.93,152.24 L439.39,152.57 L439.39,153.24 L439.91,153.58 L439.38,153.90 L439.37,154.57 L438.85,154.23 L438.32,154.56 L438.33,153.89 L437.80,153.55 L437.27,153.88 L437.26,154.55 L436.74,154.20 L436.21,154.53 L436.22,153.86 L435.69,153.52 L436.22,153.19 L436.23,152.52 L435.71,152.18 L435.18,152.51 L435.18,151.84 L434.66,151.50 L435.19,151.17 L435.20,150.50 L435.72,150.84 L436.25,150.52 L436.26,149.85 L435.74,149.51 L436.27,149.18 L436.27,148.51 L435.75,148.17 L435.22,148.49 L435.23,147.82 L434.70,147.48 L434.17,147.81 L434.17,148.48 L433.64,148.14 L433.11,148.47 L433.12,147.80 L432.59,147.46 L433.13,147.13 L433.13,146.46 L432.61,146.12 L432.08,146.44 L432.09,145.77 L431.56,145.43 L431.03,145.76 L431.02,146.43 L430.50,146.09 L429.97,146.42 L429.96,147.09 L430.49,147.43 L429.95,147.76 L429.95,148.42 L429.42,148.08 L428.89,148.41 L428.90,147.74 L428.38,147.40 L427.85,147.73 L427.84,148.40 L427.31,148.05 L426.78,148.38 L426.78,149.05 L427.30,149.39 L426.77,149.72 L426.76,150.39 L427.29,150.73 L427.82,150.40 L427.81,151.07 L428.33,151.42 L427.80,151.74 L427.79,152.41 L427.27,152.07 L426.74,152.40 L426.73,153.07 L427.26,153.41 L426.73,153.74 L426.72,154.41 L426.19,154.06 L425.66,154.39 L425.67,153.72 L425.15,153.38 L424.62,153.71 L424.61,154.38 L424.09,154.04 L423.55,154.36 L423.56,153.70 L423.04,153.35 L423.57,153.03 L423.58,152.36 L423.05,152.01 L422.52,152.34 L422.53,151.67 L422.01,151.33 L421.47,151.66 L421.47,152.33 L420.94,151.99 L420.41,152.31 L420.41,152.98 L420.93,153.33 L420.40,153.65 L420.39,154.32 L419.87,153.98 L419.34,154.31 L419.34,153.64 L418.82,153.30 L418.29,153.63 L418.28,154.29 L417.76,153.95 L417.23,154.28 L421.48,154.35 L423.67,150.34 L425.74,154.42 L430.00,154.50 L432.18,150.48 L430.11,146.39 L434.37,146.46 L436.55,142.44 L438.62,146.53 L442.88,146.61 L440.70,150.62 L442.77,154.71 L447.02,154.78 L449.21,150.77 L451.28,154.85 L455.54,154.93 L457.72,150.91 L455.65,146.82 L459.91,146.89 L462.09,142.87 L460.02,138.79 L455.76,138.71 L457.95,134.70 L455.88,130.61 L460.13,130.68 L462.32,126.66 L464.39,130.75 L468.65,130.82 L470.83,126.81 L468.76,122.72 L473.02,122.79 L475.20,118.77 L477.27,122.86 L481.53,122.93 L479.35,126.95 L481.42,131.04 L485.67,131.11 L487.86,127.09 L489.93,131.18 L494.19,131.25 L492.00,135.27 L494.07,139.36 L489.82,139.29 L487.63,143.31 L489.70,147.39 L493.96,147.47 L491.78,151.48 L493.85,155.57 L498.11,155.64 L500.29,151.63 L502.36,155.71 L506.62,155.79 L508.80,151.77 L506.73,147.68 L510.99,147.75 L513.17,143.74 L515.25,147.82 L519.50,147.90 L517.32,151.91 L519.39,156.00 L523.65,156.07 L525.83,152.06 L527.90,156.14 L532.16,156.22 L534.34,152.20 L532.27,148.11 L536.53,148.18 L538.71,144.17 L536.64,140.08 L532.39,140.00 L534.57,135.99 L532.50,131.90 L536.76,131.97 L538.94,127.95 L541.01,132.04 L545.27,132.11 L547.45,128.10 L545.38,124.01 L549.64,124.08 L551.82,120.06 L549.75,115.97 L545.49,115.90 L547.68,111.89 L545.61,107.80 L541.35,107.73 L539.17,111.74 L537.09,107.65 L532.84,107.58 L535.02,103.57 L532.95,99.48 L537.21,99.55 L539.39,95.53 L537.32,91.44 L533.06,91.37 L535.25,87.35 L533.18,83.26 L537.43,83.34 L539.62,79.32 L541.69,83.41 L545.95,83.48 L548.13,79.46 L546.06,75.37 L550.32,75.45 L552.50,71.43 L554.57,75.52 L558.83,75.59 L556.64,79.61 L558.72,83.70 L562.97,83.77 L565.16,79.75 L567.23,83.84 L571.49,83.91 L573.67,79.89 L571.60,75.80 L575.86,75.88 L578.04,71.86 L575.97,67.77 L571.71,67.70 L573.90,63.68 L571.83,59.59 L576.08,59.66 L578.27,55.65 L580.34,59.74 L584.60,59.81 L586.78,55.79 L584.71,51.70 L588.97,51.77 L591.15,47.76 L593.22,51.85 L597.48,51.92 L595.29,55.93 L597.37,60.02 L601.62,60.09 L603.81,56.08 L605.88,60.17 L610.14,60.24 L607.95,64.26 L610.02,68.34 L605.77,68.27 L603.58,72.29 L605.65,76.38 L609.91,76.45 L607.73,80.47 L609.80,84.56 L614.05,84.63 L616.24,80.61 L618.31,84.70 L622.57,84.77 L624.75,80.75 L622.68,76.66 L626.94,76.74 L629.12,72.72 L631.19,76.81 L635.45,76.88 L633.27,80.90 L635.34,84.99 L639.59,85.06 L641.78,81.04 L643.85,85.13 L648.11,85.20 L645.92,89.22 L648.00,93.31 L643.74,93.23 L641.55,97.25 L643.63,101.34 L647.88,101.41 L645.70,105.43 L647.77,109.52 L643.51,109.45 L641.33,113.46 L639.26,109.37 L635.00,109.30 L632.81,113.32 L634.89,117.41 L630.63,117.34 L628.44,121.35 L630.52,125.44 L634.77,125.51 L632.59,129.53 L634.66,133.62 L638.92,133.69 L641.10,129.67 L643.17,133.76 L647.43,133.83 L645.25,137.85 L647.32,141.94 L643.06,141.87 L640.88,145.89 L642.95,149.97 L647.20,150.05 L645.02,154.06 L647.09,158.15 L651.35,158.22 L653.53,154.21 L655.61,158.30 L659.86,158.37 L662.05,154.35 L659.98,150.26 L664.23,150.33 L666.42,146.32 L668.49,150.40 L672.75,150.48 L670.56,154.49 L672.63,158.58 L676.89,158.65 L679.07,154.64 L681.15,158.73 L685.40,158.80 L687.59,154.78 L685.52,150.69 L689.77,150.76 L691.96,146.75 L689.89,142.66 L685.63,142.59 L687.81,138.57 L685.74,134.48 L690.00,134.55 L692.18,130.53 L694.26,134.62 L698.51,134.69 L700.70,130.68 L698.62,126.59 L702.88,126.66 L705.07,122.64 L707.14,126.73 L711.39,126.80 L709.21,130.82 L711.28,134.91 L715.54,134.98 L717.72,130.96 L719.80,135.05 L724.05,135.12 L721.87,139.14 L723.94,143.23 L719.68,143.16 L717.50,147.18 L719.57,151.26 L723.83,151.34 L721.64,155.35 L723.71,159.44 L727.97,159.51 L730.16,155.50 L732.23,159.59 L736.48,159.66 L738.67,155.64 L736.60,151.55 L740.85,151.62 L743.04,147.61 L745.11,151.69 L749.37,151.77 L747.18,155.78 L749.25,159.87 L753.51,159.94 L755.70,155.93 L757.77,160.02 L762.02,160.09 L763.56,160.96 L765.02,159.93 L765.10,161.83 L766.63,162.70 L768.09,161.67 L768.01,159.77 L769.54,160.64 L771.00,159.61 L771.08,161.51 L772.62,162.38 L771.16,163.41 L771.25,165.31 L772.78,166.18 L774.24,165.15 L774.32,167.05 L775.86,167.92 L777.31,166.89 L777.23,164.99 L778.76,165.86 L780.22,164.84 L780.14,162.94 L778.60,162.07 L780.05,161.04 L779.97,159.14 L781.51,160.01 L782.96,158.98 L783.04,160.88 L784.58,161.75 L786.04,160.72 L785.95,158.83 L787.49,159.70 L788.94,158.67 L789.03,160.57 L790.56,161.44 L789.11,162.47 L789.19,164.36 L790.73,165.23 L792.18,164.21 L792.27,166.10 L793.80,166.98 L792.35,168.00 L792.43,169.90 L790.89,169.03 L789.44,170.06 L789.52,171.96 L791.06,172.83 L789.61,173.86 L789.69,175.75 L791.23,176.63 L792.68,175.60 L792.76,177.50 L794.30,178.37 L795.75,177.34 L795.67,175.44 L797.21,176.31 L798.66,175.28 L798.74,177.18 L800.28,178.05 L798.83,179.08 L798.91,180.98 L800.45,181.85 L801.90,180.82 L801.98,182.72 L803.52,183.59 L804.97,182.56 L804.89,180.66 L806.43,181.53 L807.88,180.50 L807.80,178.61 L806.26,177.74 L807.72,176.71 L807.63,174.81 L809.17,175.68 L810.63,174.65 L810.71,176.55 L812.25,177.42 L813.70,176.39 L813.62,174.49 L815.15,175.36 L816.61,174.34 L816.52,172.44 L814.99,171.57 L816.44,170.54 L816.36,168.64 L814.82,167.77 L813.37,168.80 L813.29,166.90 L811.75,166.03 L813.20,165.00 L813.12,163.10 L814.66,163.97 L816.11,162.95 L816.03,161.05 L814.49,160.18 L815.95,159.15 L815.86,157.25 L817.40,158.12 L818.85,157.09 L818.94,158.99 L820.47,159.86 L821.93,158.83 L821.84,156.93 L823.38,157.80 L824.84,156.78 L824.92,158.68 L826.46,159.55 L825.00,160.57 L825.08,162.47 L826.62,163.34 L828.08,162.31 L828.16,164.21 L829.69,165.08 L831.15,164.06 L831.07,162.16 L832.60,163.03 L834.06,162.00 L833.97,160.10 L832.44,159.23 L833.89,158.20 L833.81,156.30 L835.35,157.17 L836.80,156.15 L836.88,158.04 L838.42,158.92 L839.87,157.89 L839.79,155.99 L841.33,156.86 L842.78,155.83 L842.86,157.73 L844.40,158.60 L842.95,159.63 L843.03,161.53 L844.57,162.40 L846.02,161.37 L846.10,163.27 L847.64,164.14 L846.19,165.17 L846.27,167.06 L844.73,166.19 L843.28,167.22 L843.36,169.12 L844.90,169.99 L843.44,171.02 L843.53,172.92 L845.06,173.79 L846.52,172.76 L846.60,174.66 L848.14,175.53 L849.59,174.50 L849.51,172.60 L851.05,173.47 L852.50,172.44 L852.58,174.34 L854.12,175.21 L852.67,176.24 L852.75,178.14 L854.29,179.01 L855.74,177.98 L855.82,179.88 L857.36,180.75 L855.90,181.78 L855.99,183.68 L854.45,182.81 L853.00,183.84 L853.08,185.73 L854.62,186.60 L853.16,187.63 L853.25,189.53 L851.71,188.66 L850.25,189.69 L850.17,187.79 L848.63,186.92 L847.18,187.95 L847.26,189.85 L845.73,188.98 L844.27,190.00 L844.35,191.90 L845.89,192.77 L844.44,193.80 L844.52,195.70 L846.06,196.57 L847.51,195.54 L847.59,197.44 L849.13,198.31 L847.68,199.34 L847.76,201.24 L846.22,200.37 L844.77,201.39 L844.85,203.29 L846.39,204.16 L844.93,205.19 L845.02,207.09 L846.55,207.96 L848.01,206.93 L848.09,208.83 L849.63,209.70 L851.08,208.67 L851.00,206.78 L852.54,207.65 L853.99,206.62 L854.07,208.52 L855.61,209.39 L854.16,210.41 L854.24,212.31 L855.78,213.18 L857.23,212.16 L857.31,214.05 L858.85,214.92 L860.30,213.90 L860.22,212.00 L861.76,212.87 L863.21,211.84 L863.13,209.94 L861.59,209.07 L863.05,208.04 L862.96,206.14 L864.50,207.01 L865.95,205.99 L866.04,207.89 L867.57,208.76 L869.03,207.73 L868.95,205.83 L870.48,206.70 L871.94,205.67 L872.02,207.57 L873.56,208.44 L872.10,209.47 L872.18,211.37 L873.72,212.24 L875.18,211.21 L875.26,213.11 L876.80,213.98 L875.34,215.01 L875.42,216.90 L873.89,216.03 L872.43,217.06 L872.52,218.96 L874.05,219.83 L872.60,220.86 L872.68,222.76 L874.22,223.63 L875.67,222.60 L875.76,224.50 L877.29,225.37 L878.75,224.34 L878.66,222.44 L880.20,223.31 L881.65,222.29 L881.74,224.18 L883.27,225.05 L881.82,226.08 L881.90,227.98 L883.44,228.85 L884.89,227.82 L884.98,229.72 L886.51,230.59 L886.49,230.71 L886.57,230.80 L886.46,230.84 L886.43,230.96 L886.51,231.05 L886.62,231.01 L886.60,231.14 L886.68,231.22 L886.57,231.26 L886.54,231.38 L886.46,231.29 L886.35,231.33 L886.32,231.45 L886.40,231.54 L886.29,231.57 L886.26,231.70 L886.34,231.79 L886.46,231.75 L886.43,231.87 L886.51,231.96 L886.62,231.93 L886.65,231.80 L886.73,231.89 L886.84,231.86 L886.81,231.98 L886.90,232.07 L886.79,232.10 L886.76,232.23 L886.84,232.31 L886.95,232.28 L886.92,232.40 L887.01,232.49 L886.90,232.53 L886.87,232.65 L886.79,232.56 L886.68,232.59 L886.65,232.72 L886.73,232.81 L886.62,232.84 L886.59,232.96 L886.51,232.88 L886.40,232.91 L886.43,232.79 L886.34,232.70 L886.23,232.73 L886.20,232.86 L886.12,232.77 L886.01,232.80 L885.98,232.93 L886.07,233.01 L885.95,233.05 L885.93,233.17 L886.01,233.26 L886.12,233.23 L886.09,233.35 L886.18,233.44 L886.06,233.47 L886.04,233.59 L885.95,233.51 L885.84,233.54 L885.81,233.66 L885.90,233.75 L885.79,233.79 L885.76,233.91 L885.84,234.00 L885.95,233.96 L885.92,234.09 L886.01,234.17 L886.12,234.14 L886.15,234.02 L886.23,234.10 L886.34,234.07 L886.31,234.19 L886.39,234.28 L886.28,234.32 L886.26,234.44 L886.34,234.53 L886.45,234.49 L886.42,234.61 L886.50,234.70 L886.62,234.67 L886.64,234.54 L886.73,234.63 L886.84,234.60 L886.86,234.47 L886.78,234.39 L886.89,234.35 L886.92,234.23 L887.00,234.32 L887.11,234.28 L887.09,234.41 L887.17,234.49 L887.28,234.46 L887.31,234.34 L887.39,234.42 L887.50,234.39 L887.47,234.51 L887.56,234.60 L887.45,234.63 L887.42,234.76 L887.50,234.85 L887.61,234.81 L887.58,234.93 L887.67,235.02 L887.56,235.06 L887.53,235.18 L887.44,235.09 L887.33,235.13 L887.31,235.25 L887.39,235.34 L887.28,235.37 L887.25,235.49 L887.33,235.58 L887.44,235.55 L887.42,235.67 L887.50,235.76 L887.61,235.72 L887.64,235.60 L887.72,235.69 L887.83,235.65 L887.80,235.78 L887.89,235.87 L887.77,235.90 L887.75,236.02 L887.83,236.11 L887.94,236.08 L887.91,236.20 L888.00,236.29 L887.88,236.32 L887.86,236.44 L887.77,236.36 L887.66,236.39 L887.64,236.51 L887.72,236.60 L887.61,236.64 L887.58,236.76 L887.50,236.67 L887.39,236.71 L887.41,236.58 L887.33,236.50 L887.22,236.53 L887.19,236.65 L887.11,236.57 L887.00,236.60 L886.97,236.72 L887.05,236.81 L886.94,236.85 L886.91,236.97 L887.00,237.06 L887.11,237.02 L887.08,237.15 L887.16,237.23 L887.05,237.27 L887.02,237.39 L886.94,237.30 L886.83,237.34 L886.80,237.46 L886.89,237.55 L886.77,237.58 L886.75,237.71 L886.66,237.62 L886.55,237.65 L886.58,237.53 L886.50,237.44 L886.39,237.48 L886.36,237.60 L886.28,237.51 L886.17,237.55 L886.19,237.42 L886.11,237.34 L886.22,237.30 L886.25,237.18 L886.17,237.09 L886.06,237.13 L886.08,237.00 L886.00,236.91 L885.89,236.95 L885.86,237.07 L885.78,236.98 L885.67,237.02 L885.64,237.14 L885.72,237.23 L885.61,237.26 L885.59,237.39 L885.50,237.30 L885.39,237.33 L885.42,237.21 L885.34,237.12 L885.23,237.16 L885.20,237.28 L885.12,237.19 L885.00,237.23 L884.98,237.35 L885.06,237.44 L884.95,237.47 L884.92,237.60 L885.00,237.68 L885.11,237.65 L885.09,237.77 L885.17,237.86 L885.06,237.90 L885.03,238.02 L884.95,237.93 L884.84,237.96 L884.81,238.09 L884.89,238.18 L884.78,238.21 L884.75,238.33 L884.84,238.42 L884.95,238.39 L884.92,238.51 L885.00,238.60 L885.11,238.56 L885.14,238.44 L885.22,238.53 L885.33,238.49 L885.31,238.62 L885.39,238.70 L885.28,238.74 L885.25,238.86 L885.33,238.95 L885.44,238.92 L885.42,239.04 L885.50,239.13 L885.39,239.16 L885.36,239.28 L885.28,239.20 L885.17,239.23 L885.14,239.35 L885.22,239.44 L885.11,239.48 L885.08,239.60 L885.00,239.51 L884.89,239.55 L884.92,239.42 L884.83,239.34 L884.72,239.37 L884.70,239.49 L884.61,239.40 L884.50,239.44 L884.47,239.56 L884.56,239.65 L884.45,239.69 L884.42,239.81 L884.50,239.90 L884.61,239.86 L884.58,239.98 L884.67,240.07 L884.56,240.11 L884.53,240.23 L884.44,240.14 L884.33,240.18 L884.31,240.30 L884.39,240.39 L884.28,240.42 L884.25,240.55 L885.98,242.16 L888.12,241.32 L887.71,243.78 L889.45,245.40 L891.59,244.56 L892.00,242.10 L893.73,243.72 L895.87,242.88 L895.46,245.34 L897.19,246.95 L895.05,247.79 L894.65,250.25 L896.38,251.87 L898.52,251.03 L898.11,253.49 L899.84,255.11 L901.98,254.27 L902.39,251.81 L904.12,253.43 L906.26,252.59 L906.67,250.13 L904.94,248.51 L907.08,247.67 L907.49,245.21 L909.22,246.83 L911.36,245.99 L910.95,248.45 L912.69,250.06 L914.83,249.22 L915.24,246.76 L916.97,248.38 L919.11,247.54 L918.70,250.00 L920.43,251.62 L918.29,252.46 L917.88,254.92 L919.62,256.54 L921.76,255.70 L921.35,258.15 L923.08,259.77 L920.94,260.61 L920.53,263.07 L918.80,261.45 L916.66,262.29 L916.25,264.75 L917.98,266.37 L915.84,267.21 L915.44,269.67 L917.17,271.29 L919.31,270.45 L918.90,272.90 L920.63,274.52 L922.77,273.68 L923.18,271.22 L924.91,272.84 L927.05,272.00 L926.65,274.46 L928.38,276.08 L926.24,276.92 L925.83,279.38 L927.56,280.99 L929.70,280.15 L929.30,282.61 L931.03,284.23 L933.17,283.39 L933.58,280.93 L935.31,282.55 L937.45,281.71 L937.86,279.25 L936.13,277.63 L938.27,276.79 L938.67,274.33 L940.41,275.95 L942.55,275.11 L942.14,277.57 L943.87,279.19 L946.01,278.35 L946.42,275.89 L948.15,277.51 L950.29,276.67 L950.70,274.21 L948.97,272.59 L951.11,271.75 L951.52,269.29 L949.79,267.67 L947.65,268.51 L948.05,266.05 L946.32,264.44 L948.46,263.60 L948.87,261.14 L950.60,262.76 L952.74,261.91 L953.15,259.46 L951.42,257.84 L953.56,257.00 L953.97,254.54 L955.70,256.16 L957.84,255.32 L957.43,257.78 L959.17,259.39 L961.31,258.55 L961.72,256.09 L963.45,257.71 L965.59,256.87 L965.18,259.33 L966.91,260.95 L964.77,261.79 L964.36,264.25 L966.10,265.87 L968.24,265.02 L967.83,267.48 L969.56,269.10 L971.70,268.26 L972.11,265.80 L973.84,267.42 L975.98,266.58 L976.39,264.12 L974.66,262.50 L976.80,261.66 L977.21,259.20 L978.94,260.82 L981.08,259.98 L980.67,262.44 L982.41,264.06 L984.55,263.22 L984.96,260.76 L986.69,262.38 L988.83,261.54 L988.42,263.99 L990.15,265.61 L988.01,266.45 L987.60,268.91 L989.34,270.53 L991.48,269.69 L991.07,272.15 L992.80,273.77 L990.66,274.61 L990.25,277.06 L988.52,275.45 L986.38,276.29 L985.97,278.75 L987.70,280.36 L985.56,281.20 L985.15,283.66 L986.89,285.28 L989.03,284.44 L988.62,286.90 L990.35,288.52 L992.49,287.68 L992.90,285.22 L994.63,286.84 L996.77,286.00 L996.37,288.45 L998.10,290.07 L995.96,290.91 L995.55,293.37 L997.28,294.99 L999.42,294.15 L999.01,296.61 L1000.75,298.22 L998.61,299.07 L998.20,301.52 L996.47,299.91 L994.32,300.75 L993.92,303.20 L995.65,304.82 L993.51,305.66 L993.10,308.12 L991.37,306.50 L989.23,307.34 L989.63,304.89 L987.90,303.27 L985.76,304.11 L985.35,306.57 L983.62,304.95 L981.48,305.79 L981.07,308.25 L982.80,309.87 L980.66,310.71 L980.26,313.16 L981.99,314.78 L984.13,313.94 L983.72,316.40 L985.45,318.02 L983.31,318.86 L982.90,321.32 L981.17,319.70 L979.03,320.54 L978.62,323.00 L980.35,324.62 L978.21,325.46 L977.81,327.92 L979.54,329.53 L981.68,328.69 L981.27,331.15 L983.00,332.77 L985.14,331.93 L985.55,329.47 L987.28,331.09 L989.43,330.25 L989.02,332.71 L990.75,334.32 L988.61,335.17 L988.20,337.62 L989.93,339.24 L992.07,338.40 L991.67,340.86 L993.40,342.48 L995.54,341.64 L995.95,339.18 L997.68,340.80 L999.82,339.96 L1000.23,337.50 L998.50,335.88 L1000.64,335.04 L1001.05,332.58 L1002.78,334.20 L1004.92,333.36 L1004.51,335.82 L1006.24,337.43 L1008.38,336.59 L1008.79,334.14 L1010.52,335.75 L1012.67,334.91 L1012.26,337.37 L1013.99,338.99 L1011.85,339.83 L1011.44,342.29 L1013.17,343.91 L1015.31,343.07 L1014.91,345.52 L1016.64,347.14 L1014.50,347.98 L1014.09,350.44 L1012.36,348.82 L1010.22,349.66 L1009.81,352.12 L1011.54,353.74 L1009.40,354.58 L1008.99,357.04 L1010.72,358.66 L1012.86,357.82 L1012.46,360.28 L1014.19,361.89 L1016.33,361.05 L1016.74,358.59 L1018.47,360.21 L1020.61,359.37 L1020.20,361.83 L1021.93,363.45 L1019.79,364.29 L1019.39,366.75 L1021.12,368.37 L1023.26,367.52 L1022.85,369.98 L1024.58,371.60 L1024.65,371.45 L1024.56,371.31 L1024.71,371.29 L1024.78,371.14 L1024.69,371.00 L1024.54,371.02 L1024.60,370.86 L1024.51,370.72 L1024.67,370.71 L1024.73,370.56 L1024.82,370.69 L1024.97,370.68 L1025.04,370.53 L1024.95,370.39 L1025.10,370.37 L1025.17,370.22 L1025.08,370.08 L1024.93,370.09 L1024.99,369.94 L1024.90,369.80 L1024.75,369.82 L1024.69,369.97 L1024.60,369.83 L1024.44,369.85 L1024.51,369.69 L1024.42,369.55 L1024.57,369.54 L1024.64,369.39 L1024.55,369.25 L1024.40,369.26 L1024.46,369.11 L1024.37,368.97 L1024.53,368.95 L1024.59,368.80 L1024.68,368.94 L1024.84,368.92 L1024.90,368.77 L1024.81,368.63 L1024.97,368.62 L1025.03,368.46 L1025.12,368.60 L1025.27,368.59 L1025.21,368.74 L1025.30,368.88 L1025.45,368.87 L1025.51,368.71 L1025.60,368.85 L1025.76,368.84 L1025.82,368.68 L1025.73,368.54 L1025.89,368.53 L1025.95,368.38 L1025.86,368.24 L1025.71,368.25 L1025.78,368.10 L1025.69,367.96 L1025.84,367.94 L1025.91,367.79 L1025.99,367.93 L1026.15,367.91 L1026.21,367.76 L1026.12,367.62 L1026.28,367.61 L1026.34,367.45 L1026.26,367.32 L1026.10,367.33 L1026.17,367.18 L1026.08,367.04 L1025.92,367.05 L1025.86,367.21 L1025.77,367.07 L1025.62,367.08 L1025.68,366.93 L1025.59,366.79 L1025.75,366.77 L1025.81,366.62 L1025.72,366.48 L1025.57,366.50 L1025.64,366.34 L1025.55,366.20 L1025.39,366.22 L1025.33,366.37 L1025.24,366.23 L1025.09,366.25 L1025.02,366.40 L1025.11,366.54 L1024.96,366.56 L1024.89,366.71 L1024.80,366.57 L1024.65,366.58 L1024.71,366.43 L1024.63,366.29 L1024.47,366.31 L1024.41,366.46 L1024.32,366.32 L1024.17,366.34 L1024.23,366.18 L1024.14,366.04 L1024.30,366.03 L1024.36,365.88 L1024.27,365.74 L1024.12,365.75 L1024.18,365.60 L1024.10,365.46 L1024.25,365.44 L1024.31,365.29 L1024.40,365.43 L1024.56,365.41 L1024.62,365.26 L1024.53,365.12 L1024.69,365.11 L1024.75,364.95 L1024.66,364.82 L1024.51,364.83 L1024.58,364.68 L1024.49,364.54 L1024.33,364.55 L1024.27,364.71 L1024.18,364.57 L1024.03,364.58 L1024.09,364.43 L1024.00,364.29 L1024.16,364.27 L1024.22,364.12 L1024.13,363.98 L1023.98,364.00 L1024.05,363.84 L1023.96,363.70 L1024.11,363.69 L1024.18,363.54 L1024.26,363.67 L1024.42,363.66 L1024.48,363.51 L1024.39,363.37 L1024.55,363.35 L1024.61,363.20 L1024.70,363.34 L1024.86,363.32 L1024.79,363.48 L1024.88,363.62 L1025.03,363.60 L1025.10,363.45 L1025.19,363.59 L1025.34,363.57 L1025.40,363.42 L1025.32,363.28 L1025.47,363.26 L1025.53,363.11 L1025.45,362.97 L1025.29,362.99 L1025.36,362.83 L1025.27,362.69 L1025.42,362.68 L1025.49,362.53 L1025.58,362.66 L1025.73,362.65 L1025.80,362.50 L1025.71,362.36 L1025.86,362.34 L1025.93,362.19 L1026.01,362.33 L1026.17,362.31 L1026.10,362.47 L1026.19,362.61 L1026.34,362.59 L1026.41,362.44 L1026.50,362.58 L1026.65,362.56 L1026.59,362.72 L1026.68,362.85 L1026.52,362.87 L1026.46,363.02 L1026.54,363.16 L1026.70,363.15 L1026.63,363.30 L1026.72,363.44 L1026.88,363.42 L1026.94,363.27 L1027.03,363.41 L1027.18,363.39 L1027.25,363.24 L1027.16,363.10 L1027.31,363.09 L1027.38,362.93 L1027.47,363.07 L1027.62,363.06 L1027.55,363.21 L1027.64,363.35 L1027.80,363.34 L1027.86,363.18 L1027.95,363.32 L1028.10,363.31 L1028.17,363.15 L1028.08,363.01 L1028.23,363.00 L1028.30,362.85 L1028.21,362.71 L1028.06,362.72 L1028.12,362.57 L1028.03,362.43 L1028.19,362.41 L1028.25,362.26 L1028.34,362.40 L1028.50,362.39 L1028.56,362.23 L1028.47,362.09 L1028.63,362.08 L1028.69,361.92 L1028.60,361.79 L1028.45,361.80 L1028.51,361.65 L1028.43,361.51 L1028.27,361.52 L1028.21,361.68 L1028.12,361.54 L1027.96,361.55 L1028.03,361.40 L1027.94,361.26 L1028.10,361.24 L1028.16,361.09 L1028.07,360.95 L1027.92,360.97 L1027.98,360.81 L1027.90,360.67 L1028.05,360.66 L1028.11,360.51 L1028.20,360.64 L1028.36,360.63 L1028.42,360.48 L1028.33,360.34 L1028.49,360.32 L1028.55,360.17 L1028.64,360.31 L1028.79,360.29 L1028.73,360.45 L1028.82,360.59 L1028.97,360.57 L1029.04,360.42 L1029.12,360.56 L1029.28,360.54 L1029.34,360.39 L1029.25,360.25 L1029.41,360.23 L1029.47,360.08 L1029.38,359.94 L1029.23,359.96 L1029.30,359.80 L1029.21,359.66 L1029.36,359.65 L1029.43,359.50 L1029.52,359.63 L1029.67,359.62 L1029.73,359.47 L1029.65,359.33 L1029.80,359.31 L1029.86,359.16 L1029.85,359.67 L1030.24,359.95 L1029.83,360.18 L1029.81,360.70 L1030.20,360.97 L1030.62,360.73 L1030.60,361.24 L1030.99,361.52 L1030.58,361.75 L1030.56,362.27 L1030.17,361.99 L1029.75,362.23 L1029.73,362.74 L1030.13,363.02 L1029.72,363.26 L1029.70,363.77 L1030.09,364.04 L1030.50,363.80 L1030.48,364.31 L1030.88,364.59 L1031.29,364.35 L1031.31,363.84 L1031.70,364.11 L1032.12,363.87 L1032.10,364.39 L1032.49,364.66 L1032.08,364.90 L1032.06,365.41 L1032.45,365.68 L1032.87,365.45 L1032.85,365.96 L1033.24,366.23 L1032.83,366.47 L1032.81,366.98 L1032.42,366.71 L1032.01,366.95 L1031.99,367.46 L1032.38,367.73 L1031.97,367.97 L1031.95,368.48 L1031.56,368.21 L1031.14,368.45 L1031.16,367.93 L1030.77,367.66 L1030.35,367.90 L1030.34,368.41 L1029.94,368.14 L1029.53,368.38 L1029.51,368.89 L1029.90,369.16 L1029.49,369.40 L1029.47,369.91 L1029.87,370.19 L1030.28,369.95 L1030.26,370.46 L1030.66,370.73 L1030.24,370.97 L1030.22,371.48 L1029.83,371.21 L1029.42,371.45 L1029.40,371.96 L1029.79,372.23 L1029.38,372.47 L1029.36,372.98 L1029.76,373.26 L1030.17,373.02 L1030.15,373.53 L1030.54,373.80 L1030.96,373.57 L1030.97,373.05 L1031.37,373.33 L1031.78,373.09 L1031.76,373.60 L1032.16,373.88 L1031.74,374.11 L1031.73,374.63 L1032.12,374.90 L1032.53,374.66 L1032.51,375.17 L1032.91,375.45 L1033.32,375.21 L1033.34,374.70 L1033.73,374.97 L1034.15,374.73 L1034.16,374.22 L1033.77,373.95 L1034.18,373.71 L1034.20,373.20 L1034.60,373.47 L1035.01,373.23 L1034.99,373.74 L1035.38,374.02 L1035.80,373.78 L1035.81,373.27 L1036.21,373.54 L1036.62,373.30 L1036.60,373.82 L1037.00,374.09 L1036.58,374.33 L1036.57,374.84 L1036.96,375.11 L1037.37,374.87 L1037.35,375.39 L1037.75,375.66 L1037.34,375.90 L1037.32,376.41 L1036.92,376.14 L1036.51,376.38 L1036.49,376.89 L1036.89,377.16 L1036.47,377.40 L1036.45,377.91 L1036.85,378.18 L1037.26,377.95 L1037.24,378.46 L1037.64,378.73 L1038.05,378.49 L1038.07,377.98 L1038.46,378.26 L1038.87,378.02 L1038.86,378.53 L1039.25,378.80 L1038.84,379.04 L1038.82,379.55 L1039.21,379.83 L1039.62,379.59 L1039.61,380.10 L1040.00,380.37 L1039.59,380.61 L1039.57,381.13 L1039.17,380.85 L1038.76,381.09 L1038.74,381.60 L1039.14,381.88 L1038.72,382.11 L1038.71,382.63 L1038.31,382.35 L1037.90,382.59 L1037.92,382.08 L1037.52,381.80 L1037.11,382.04 L1037.09,382.55 L1036.70,382.28 L1036.29,382.52 L1036.27,383.03 L1036.66,383.31 L1036.25,383.54 L1036.23,384.06 L1036.62,384.33 L1037.04,384.09 L1037.02,384.60 L1037.41,384.88 L1037.00,385.11 L1036.98,385.63 L1036.59,385.35 L1036.17,385.59 L1036.16,386.10 L1036.55,386.38 L1036.14,386.62 L1036.12,387.13 L1035.72,386.85 L1035.31,387.09 L1035.33,386.58 L1034.94,386.31 L1034.52,386.54 L1034.51,387.06 L1034.11,386.78 L1033.70,387.02 L1033.72,386.51 L1033.32,386.24 L1033.74,386.00 L1033.75,385.48 L1033.36,385.21 L1032.95,385.45 L1032.97,384.94 L1032.57,384.66 L1032.16,384.90 L1032.14,385.41 L1031.75,385.14 L1031.33,385.38 L1031.32,385.89 L1031.71,386.16 L1031.30,386.40 L1031.28,386.91 L1030.88,386.64 L1030.47,386.88 L1030.49,386.37 L1030.10,386.09 L1029.68,386.33 L1029.67,386.84 L1029.27,386.57 L1028.86,386.81 L1028.84,387.32 L1029.23,387.59 L1028.82,387.83 L1028.80,388.34 L1029.20,388.62 L1029.61,388.38 L1029.59,388.89 L1029.98,389.17 L1029.57,389.40 L1029.55,389.92 L1029.16,389.64 L1028.75,389.88 L1028.73,390.39 L1029.12,390.67 L1028.71,390.90 L1028.69,391.42 L1029.08,391.69 L1029.50,391.45 L1029.48,391.96 L1029.87,392.24 L1030.29,392.00 L1030.30,391.49 L1030.70,391.76 L1031.11,391.52 L1031.09,392.03 L1031.49,392.31 L1031.07,392.55 L1031.05,393.06 L1031.45,393.33 L1031.86,393.09 L1031.84,393.61 L1032.24,393.88 L1031.82,394.12 L1031.81,394.63 L1031.41,394.36 L1031.00,394.59 L1030.98,395.11 L1031.37,395.38 L1030.96,395.62 L1030.94,396.13 L1030.55,395.86 L1030.14,396.10 L1030.16,395.58 L1029.76,395.31 L1029.35,395.55 L1029.33,396.06 L1028.94,395.79 L1028.52,396.02 L1028.50,396.54 L1028.90,396.81 L1028.49,397.05 L1028.47,397.56 L1028.86,397.83 L1029.27,397.60 L1029.26,398.11 L1029.65,398.38 L1029.24,398.62 L1029.22,399.13 L1028.82,398.86 L1028.41,399.10 L1028.39,399.61 L1028.79,399.88 L1028.37,400.12 L1028.36,400.63 L1028.30,400.74 L1028.35,400.84 L1028.24,400.84 L1028.19,400.94 L1028.24,401.04 L1028.35,401.05 L1028.29,401.15 L1028.35,401.25 L1028.24,401.25 L1028.18,401.35 L1028.13,401.25 L1028.02,401.25 L1027.96,401.35 L1028.02,401.45 L1027.91,401.45 L1027.85,401.55 L1027.91,401.66 L1028.01,401.66 L1027.96,401.76 L1028.01,401.87 L1028.12,401.87 L1028.18,401.77 L1028.23,401.87 L1028.34,401.87 L1028.28,401.98 L1028.33,402.08 L1028.22,402.08 L1028.17,402.18 L1028.22,402.29 L1028.33,402.29 L1028.27,402.39 L1028.33,402.49 L1028.22,402.49 L1028.16,402.59 L1028.11,402.49 L1028.00,402.49 L1027.95,402.59 L1028.00,402.69 L1027.89,402.69 L1027.83,402.80 L1027.78,402.69 L1027.67,402.69 L1027.73,402.59 L1027.68,402.48 L1027.57,402.48 L1027.51,402.58 L1027.46,402.48 L1027.35,402.48 L1027.29,402.58 L1027.35,402.68 L1027.24,402.68 L1027.18,402.78 L1027.23,402.89 L1027.34,402.89 L1027.29,402.99 L1027.34,403.10 L1027.23,403.09 L1027.18,403.20 L1027.12,403.09 L1027.01,403.09 L1026.96,403.19 L1027.01,403.30 L1026.90,403.30 L1026.85,403.40 L1026.90,403.50 L1027.01,403.50 L1026.95,403.61 L1027.00,403.71 L1027.11,403.71 L1027.17,403.61 L1027.22,403.71 L1027.33,403.72 L1027.27,403.82 L1027.33,403.92 L1027.22,403.92 L1027.16,404.02 L1027.22,404.13 L1027.32,404.13 L1027.27,404.23 L1027.32,404.34 L1027.43,404.34 L1027.49,404.24 L1027.54,404.34 L1027.65,404.34 L1027.70,404.24 L1027.65,404.14 L1027.76,404.14 L1027.81,404.04 L1027.87,404.14 L1027.98,404.14 L1027.92,404.24 L1027.97,404.35 L1028.08,404.35 L1028.14,404.25 L1028.19,404.35 L1028.30,404.36 L1028.24,404.46 L1028.30,404.56 L1028.19,404.56 L1028.13,404.66 L1028.18,404.77 L1028.29,404.77 L1028.24,404.87 L1028.29,404.98 L1028.18,404.97 L1028.12,405.08 L1028.07,404.97 L1027.96,404.97 L1027.91,405.07 L1027.96,405.18 L1027.85,405.17 L1027.80,405.28 L1027.85,405.38 L1027.96,405.38 L1027.90,405.49 L1027.95,405.59 L1028.06,405.59 L1028.12,405.49 L1028.17,405.59 L1028.28,405.60 L1028.22,405.70 L1028.28,405.80 L1028.17,405.80 L1028.11,405.90 L1028.16,406.01 L1028.27,406.01 L1028.22,406.11 L1028.27,406.22 L1028.16,406.21 L1028.11,406.32 L1028.05,406.21 L1027.94,406.21 L1027.89,406.31 L1027.94,406.42 L1027.83,406.42 L1027.78,406.52 L1027.72,406.41 L1027.62,406.41 L1027.67,406.31 L1027.62,406.20 L1027.51,406.20 L1027.45,406.31 L1027.40,406.20 L1027.29,406.20 L1027.24,406.30 L1027.29,406.41 L1027.18,406.40 L1027.12,406.51 L1027.18,406.61 L1027.29,406.61 L1027.23,406.71 L1027.28,406.82 L1027.17,406.82 L1027.12,406.92 L1027.07,406.82 L1026.96,406.81 L1026.90,406.92 L1026.95,407.02 L1026.85,407.02 L1026.79,407.12 L1026.74,407.02 L1026.63,407.01 L1026.68,406.91 L1026.63,406.81 L1026.52,406.80 L1026.47,406.91 L1026.41,406.80 L1026.31,406.80 L1026.36,406.70 L1026.31,406.59 L1026.42,406.60 L1026.47,406.49 L1026.42,406.39 L1026.31,406.39 L1026.37,406.28 L1026.32,406.18 L1026.21,406.18 L1026.15,406.28 L1026.10,406.18 L1025.99,406.17 L1025.93,406.28 L1025.99,406.38 L1025.88,406.38 L1025.82,406.48 L1025.77,406.38 L1025.66,406.38 L1025.72,406.27 L1025.66,406.17 L1025.55,406.17 L1025.50,406.27 L1025.45,406.16 L1025.34,406.16 L1025.28,406.26 L1025.33,406.37 L1025.23,406.37 L1025.17,406.47 L1025.22,406.57 L1025.33,406.58 L1025.28,406.68 L1025.33,406.78 L1025.22,406.78 L1025.16,406.88 L1025.11,406.78 L1025.00,406.78 L1024.95,406.88 L1025.00,406.98 L1024.89,406.98 L1024.83,407.08 L1024.89,407.19 L1025.00,407.19 L1024.94,407.29 L1024.99,407.40 L1025.10,407.40 L1025.16,407.30 L1025.21,407.40 L1025.32,407.40 L1025.26,407.51 L1025.32,407.61 L1025.21,407.61 L1025.15,407.71 L1025.20,407.81 L1025.31,407.82 L1025.26,407.92 L1025.31,408.02 L1025.20,408.02 L1025.14,408.12 L1025.09,408.02 L1024.98,408.02 L1024.93,408.12 L1024.98,408.22 L1024.87,408.22 L1024.82,408.32 L1024.76,408.22 L1024.65,408.22 L1024.71,408.12 L1024.66,408.01 L1024.55,408.01 L1024.49,408.11 L1024.44,408.01 L1024.33,408.01 L1024.28,408.11 L1024.33,408.21 L1024.22,408.21 L1024.16,408.31 L1024.22,408.42 L1024.33,408.42 L1024.27,408.52 L1024.32,408.63 L1024.21,408.62 L1024.16,408.73 L1024.10,408.62 L1024.00,408.62 L1023.94,408.72 L1023.99,408.83 L1023.88,408.82 L1023.83,408.93 L1022.62,409.47 L1022.44,410.89 L1021.41,410.01 L1020.20,410.56 L1020.02,411.98 L1021.05,412.86 L1019.84,413.40 L1019.66,414.83 L1018.63,413.95 L1017.42,414.49 L1017.60,413.07 L1016.56,412.18 L1015.35,412.73 L1015.17,414.15 L1014.14,413.27 L1012.93,413.81 L1012.75,415.24 L1013.79,416.12 L1012.57,416.66 L1012.40,418.08 L1013.43,418.97 L1014.64,418.42 L1014.46,419.85 L1015.50,420.73 L1014.28,421.27 L1014.11,422.70 L1013.07,421.81 L1011.86,422.36 L1011.69,423.78 L1012.72,424.66 L1011.51,425.21 L1011.33,426.63 L1010.30,425.75 L1009.09,426.29 L1009.26,424.87 L1008.23,423.99 L1007.02,424.53 L1006.84,425.95 L1005.81,425.07 L1004.60,425.61 L1004.78,424.19 L1003.74,423.31 L1004.95,422.77 L1005.13,421.34 L1004.10,420.46 L1002.89,421.00 L1003.07,419.58 L1002.03,418.70 L1000.82,419.24 L1000.64,420.66 L999.61,419.78 L998.40,420.32 L998.22,421.75 L999.25,422.63 L998.04,423.17 L997.87,424.60 L996.83,423.72 L995.62,424.26 L995.80,422.83 L994.77,421.95 L993.56,422.50 L993.38,423.92 L992.35,423.04 L991.13,423.58 L990.96,425.01 L991.99,425.89 L990.78,426.43 L990.60,427.85 L991.63,428.74 L992.84,428.19 L992.67,429.62 L993.70,430.50 L992.49,431.04 L992.31,432.47 L991.28,431.58 L990.07,432.13 L989.89,433.55 L990.92,434.43 L989.71,434.98 L989.53,436.40 L990.57,437.28 L991.78,436.74 L991.60,438.16 L992.63,439.04 L993.84,438.50 L994.02,437.08 L995.05,437.96 L996.26,437.42 L996.09,438.84 L997.12,439.72 L995.91,440.26 L995.73,441.69 L996.76,442.57 L997.98,442.03 L997.80,443.45 L998.83,444.33 L997.62,444.88 L997.44,446.30 L996.41,445.42 L995.20,445.96 L995.02,447.39 L996.05,448.27 L994.84,448.81 L994.66,450.23 L993.63,449.35 L992.42,449.90 L992.60,448.47 L991.56,447.59 L990.35,448.13 L990.18,449.56 L989.14,448.68 L987.93,449.22 L987.75,450.64 L988.79,451.52 L987.58,452.07 L987.40,453.49 L988.43,454.37 L989.64,453.83 L989.46,455.25 L990.50,456.14 L989.29,456.68 L989.11,458.10 L988.08,457.22 L986.86,457.76 L986.69,459.19 L987.72,460.07 L986.51,460.61 L986.33,462.04 L985.30,461.15 L984.09,461.70 L984.26,460.27 L983.23,459.39 L982.02,459.93 L981.84,461.36 L980.81,460.48 L979.60,461.02 L979.78,459.60 L978.74,458.71 L979.96,458.17 L980.13,456.75 L979.10,455.87 L977.89,456.41 L978.07,454.98 L977.03,454.10 L975.82,454.65 L975.65,456.07 L974.61,455.19 L973.40,455.73 L973.22,457.16 L974.26,458.04 L973.05,458.58 L972.87,460.00 L971.83,459.12 L970.62,459.66 L970.80,458.24 L969.77,457.36 L968.56,457.90 L968.38,459.33 L967.35,458.44 L966.14,458.99 L966.31,457.56 L965.28,456.68 L966.49,456.14 L966.67,454.71 L965.64,453.83 L964.43,454.38 L964.60,452.95 L963.57,452.07 L964.78,451.53 L964.96,450.10 L965.99,450.98 L967.20,450.44 L967.38,449.02 L966.35,448.14 L967.56,447.59 L967.74,446.17 L966.70,445.29 L965.49,445.83 L965.67,444.41 L964.64,443.52 L963.43,444.07 L963.25,445.49 L962.22,444.61 L961.01,445.15 L961.18,443.73 L960.15,442.85 L961.36,442.30 L961.54,440.88 L960.51,440.00 L959.30,440.54 L959.47,439.12 L958.44,438.24 L957.23,438.78 L957.05,440.20 L956.02,439.32 L954.81,439.86 L954.63,441.29 L955.66,442.17 L954.45,442.71 L954.27,444.14 L953.24,443.25 L952.03,443.80 L952.21,442.37 L951.18,441.49 L949.96,442.03 L949.79,443.46 L948.75,442.58 L947.54,443.12 L947.36,444.54 L948.40,445.43 L947.19,445.97 L947.01,447.39 L948.04,448.27 L949.25,447.73 L949.07,449.16 L950.11,450.04 L948.90,450.58 L948.72,452.00 L947.69,451.12 L946.47,451.67 L946.30,453.09 L947.33,453.97 L946.12,454.51 L945.94,455.94 L944.91,455.06 L943.70,455.60 L943.88,454.18 L942.84,453.29 L941.63,453.84 L941.45,455.26 L940.42,454.38 L939.21,454.92 L939.39,453.50 L938.35,452.62 L939.57,452.07 L939.74,450.65 L938.71,449.77 L937.50,450.31 L937.68,448.89 L936.64,448.00 L935.43,448.55 L935.26,449.97 L934.22,449.09 L933.01,449.63 L932.83,451.06 L933.87,451.94 L932.66,452.48 L932.48,453.91 L931.44,453.02 L930.23,453.57 L930.41,452.14 L929.38,451.26 L928.17,451.80 L927.99,453.23 L926.96,452.35 L925.75,452.89 L925.17,452.91 L924.90,453.47 L924.59,452.93 L924.01,452.95 L923.74,453.51 L924.05,454.05 L923.47,454.07 L923.20,454.63 L922.89,454.09 L922.31,454.11 L922.59,453.55 L922.28,453.01 L921.70,453.03 L921.43,453.59 L921.13,453.05 L920.55,453.07 L920.28,453.63 L920.58,454.17 L920.00,454.19 L919.73,454.75 L920.04,455.29 L920.61,455.27 L920.34,455.83 L920.65,456.37 L920.07,456.39 L919.80,456.95 L919.49,456.41 L918.91,456.43 L918.64,456.99 L918.95,457.53 L918.37,457.55 L918.10,458.11 L917.79,457.57 L917.21,457.60 L917.49,457.03 L917.18,456.50 L916.60,456.52 L916.33,457.08 L916.03,456.54 L915.45,456.56 L915.72,456.00 L915.42,455.46 L915.99,455.44 L916.27,454.88 L915.96,454.34 L915.38,454.36 L915.66,453.80 L915.35,453.26 L914.77,453.28 L914.50,453.84 L914.20,453.30 L913.62,453.32 L913.35,453.88 L913.65,454.42 L913.07,454.44 L912.80,455.00 L912.50,454.46 L911.92,454.48 L912.19,453.92 L911.89,453.38 L911.31,453.40 L911.04,453.96 L910.73,453.42 L910.15,453.44 L909.88,454.00 L910.19,454.54 L909.61,454.56 L909.34,455.12 L909.64,455.66 L910.22,455.64 L909.95,456.20 L910.25,456.74 L909.67,456.76 L909.40,457.32 L909.10,456.78 L908.52,456.80 L908.25,457.36 L908.55,457.90 L907.97,457.92 L907.70,458.48 L908.01,459.02 L908.58,459.00 L908.31,459.56 L908.61,460.10 L909.19,460.08 L909.46,459.52 L909.77,460.06 L910.35,460.04 L910.07,460.60 L910.38,461.14 L909.80,461.16 L909.53,461.72 L909.83,462.26 L910.41,462.24 L910.14,462.80 L910.44,463.34 L909.87,463.36 L909.59,463.92 L909.29,463.38 L908.71,463.40 L908.44,463.96 L908.74,464.50 L908.17,464.52 L907.89,465.08 L907.59,464.54 L907.01,464.56 L907.28,464.00 L906.98,463.46 L906.40,463.48 L906.13,464.04 L905.82,463.50 L905.25,463.52 L904.97,464.08 L905.28,464.62 L904.70,464.64 L904.43,465.20 L904.73,465.74 L905.31,465.72 L905.04,466.28 L905.34,466.82 L904.77,466.84 L904.49,467.40 L904.19,466.86 L903.61,466.88 L903.34,467.44 L903.64,467.98 L903.07,468.00 L902.79,468.56 L902.49,468.02 L901.91,468.05 L902.18,467.49 L901.88,466.95 L901.30,466.97 L901.03,467.53 L900.72,466.99 L900.15,467.01 L900.42,466.45 L900.11,465.91 L900.69,465.89 L900.96,465.33 L900.66,464.79 L900.08,464.81 L900.35,464.25 L900.05,463.71 L899.47,463.73 L899.20,464.29 L898.89,463.75 L898.32,463.77 L898.04,464.33 L898.35,464.87 L897.77,464.89 L897.50,465.45 L897.19,464.91 L896.62,464.93 L896.89,464.37 L896.58,463.83 L896.01,463.85 L895.73,464.41 L895.43,463.87 L894.85,463.89 L895.12,463.33 L894.82,462.79 L895.40,462.77 L895.67,462.21 L895.36,461.67 L894.79,461.69 L895.06,461.13 L894.75,460.59 L895.33,460.57 L895.60,460.01 L895.91,460.55 L896.49,460.53 L896.76,459.97 L896.46,459.43 L897.03,459.41 L897.31,458.85 L897.00,458.31 L896.42,458.33 L896.70,457.77 L896.39,457.23 L895.81,457.25 L895.54,457.81 L895.24,457.27 L894.66,457.29 L894.93,456.73 L894.63,456.19 L895.20,456.17 L895.48,455.61 L895.17,455.07 L894.59,455.09 L894.87,454.53 L894.56,454.00 L893.98,454.02 L893.71,454.58 L893.41,454.04 L892.83,454.06 L892.56,454.62 L892.86,455.16 L892.28,455.18 L892.01,455.74 L891.71,455.20 L891.13,455.22 L891.40,454.66 L891.10,454.12 L890.52,454.14 L890.25,454.70 L889.94,454.16 L889.36,454.18 L889.09,454.74 L889.40,455.28 L888.82,455.30 L888.55,455.86 L888.85,456.40 L889.43,456.38 L889.16,456.94 L889.46,457.48 L888.88,457.50 L888.61,458.06 L888.31,457.52 L887.73,457.54 L887.46,458.10 L887.76,458.64 L887.18,458.66 L886.91,459.22 L886.61,458.68 L886.03,458.70 L886.30,458.14 L886.00,457.60 L885.42,457.62 L885.15,458.18 L884.84,457.64 L884.26,457.66 L884.54,457.10 L884.23,456.56 L884.81,456.54 L885.08,455.98 L884.78,455.44 L884.20,455.46 L884.47,454.90 L884.17,454.36 L883.59,454.38 L883.32,454.94 L883.01,454.40 L882.43,454.43 L882.16,454.99 L882.47,455.52 L881.89,455.55 L881.62,456.11 L881.31,455.57 L880.73,455.59 L881.01,455.03 L880.70,454.49 L880.12,454.51 L879.85,455.07 L879.55,454.53 L878.97,454.55 L871.30,454.26 L867.24,461.42 L863.64,453.97 L855.97,453.69 L851.91,460.84 L855.52,468.29 L847.85,468.00 L843.79,475.15 L840.19,467.71 L832.52,467.43 L836.58,460.27 L832.97,452.83 L825.31,452.54 L821.25,459.70 L817.64,452.25 L809.98,451.97 L805.92,459.12 L809.52,466.56 L801.86,466.28 L797.80,473.43 L801.41,480.88 L809.07,481.16 L805.01,488.32 L808.62,495.76 L800.95,495.47 L796.90,502.63 L793.29,495.19 L785.62,494.90 L781.56,502.05 L785.17,509.50 L777.51,509.21 L773.45,516.37 L769.84,508.92 L762.17,508.64 L766.23,501.48 L762.63,494.04 L754.96,493.75 L750.90,500.91 L747.29,493.47 L739.63,493.18 L743.69,486.02 L740.08,478.58 L747.75,478.87 L751.80,471.71 L748.20,464.27 L740.53,463.98 L744.59,456.83 L740.98,449.39 L733.32,449.10 L729.26,456.26 L725.65,448.81 L717.99,448.53 L713.93,455.68 L717.53,463.12 L709.87,462.84 L705.81,469.99 L702.20,462.55 L694.54,462.26 L698.59,455.11 L694.99,447.67 L687.32,447.38 L683.26,454.54 L679.66,447.09 L671.99,446.81 L667.93,453.96 L671.54,461.40 L663.87,461.12 L659.81,468.27 L663.42,475.71 L671.09,476.00 L667.03,483.16 L670.63,490.60 L662.97,490.31 L658.91,497.47 L655.30,490.02 L647.64,489.74 L643.58,496.89 L647.19,504.34 L639.52,504.05 L635.46,511.20 L639.07,518.65 L646.73,518.93 L642.67,526.09 L646.28,533.53 L653.95,533.82 L658.01,526.66 L661.61,534.10 L669.28,534.39 L665.22,541.55 L668.83,548.99 L661.16,548.70 L657.10,555.86 L660.71,563.30 L668.38,563.59 L664.32,570.74 L667.92,578.18 L660.26,577.90 L656.20,585.05 L652.59,577.61 L644.93,577.32 L640.87,584.48 L644.47,591.92 L636.81,591.63 L632.75,598.79 L629.14,591.35 L621.48,591.06 L625.54,583.90 L621.93,576.46 L614.26,576.18 L610.20,583.33 L606.60,575.89 L598.93,575.60 L594.87,582.76 L598.48,590.20 L590.81,589.91 L586.75,597.07 L590.36,604.51 L598.03,604.80 L593.97,611.95 L597.58,619.39 L589.91,619.11 L585.85,626.26 L582.24,618.82 L574.58,618.53 L570.52,625.69 L574.13,633.13 L566.46,632.84 L562.40,640.00 L558.79,632.56 L551.13,632.27 L555.19,625.12 L551.58,617.67 L543.91,617.39 L539.86,624.54 L536.25,617.10 L528.58,616.81 L532.64,609.66 L529.03,602.22 L536.70,602.50 L540.76,595.35 L537.15,587.91 L529.49,587.62 L533.55,580.46 L529.94,573.02 L522.27,572.73 L518.21,579.89 L514.61,572.45 L506.94,572.16 L502.88,579.32 L506.49,586.76 L498.82,586.47 L494.76,593.63 L491.16,586.19 L483.49,585.90 L487.55,578.74 L483.94,571.30 L476.28,571.01 L472.22,578.17 L468.61,570.73 L460.95,570.44 L465.00,563.29 L461.40,555.84 L469.06,556.13 L473.12,548.98 L469.51,541.53 L461.85,541.25 L465.91,534.09 L462.30,526.65 L469.97,526.94 L474.03,519.78 L477.63,527.22 L485.30,527.51 L489.36,520.35 L485.75,512.91 L493.42,513.20 L497.47,506.04 L493.87,498.60 L486.20,498.31 L490.26,491.16 L486.65,483.72 L478.99,483.43 L474.93,490.59 L471.32,483.14 L463.66,482.86 L467.71,475.70 L464.11,468.26 L471.77,468.55 L475.83,461.39 L472.23,453.95 L464.56,453.66 L468.62,446.51 L465.01,439.06 L457.34,438.78 L453.29,445.93 L449.68,438.49 L442.01,438.20 L437.95,445.36 L441.56,452.80 L433.90,452.52 L429.84,459.67 L426.23,452.23 L418.56,451.94 L422.62,444.79 L419.02,437.34 L411.35,437.06 L407.29,444.21 L403.68,436.77 L396.02,436.48 L391.96,443.64 L395.57,451.08 L387.90,450.79 L383.84,457.95 L387.45,465.39 L395.11,465.68 L391.06,472.83 L394.66,480.28 L387.00,479.99 L382.94,487.14 L379.33,479.70 L371.67,479.42 L367.61,486.57 L371.21,494.01 L363.55,493.73 L359.49,500.88 L355.88,493.44 L348.22,493.15 L352.27,486.00 L348.67,478.56 L341.00,478.27 L336.94,485.42 L333.34,477.98 L325.67,477.70 L329.73,470.54 L326.12,463.10 L333.79,463.38 L337.85,456.23 L334.24,448.79 L326.57,448.50 L330.63,441.35 L327.02,433.90 L319.36,433.62 L315.30,440.77 L311.69,433.33 L304.03,433.04 L299.97,440.20 L303.58,447.64 L295.91,447.35 L291.85,454.51 L288.24,447.07 L280.58,446.78 L284.64,439.63 L281.03,432.18 L273.36,431.90 L269.30,439.05 L265.70,431.61 L258.03,431.32 L254.85,429.56 L251.87,431.71 L251.66,427.80 L248.48,426.04 L245.49,428.19 L245.70,432.10 L242.51,430.34 L239.53,432.50 L239.33,428.58 L236.14,426.82 L239.12,424.67 L238.92,420.75 L235.73,418.99 L232.75,421.15 L232.55,417.23 L229.36,415.47 L226.38,417.62 L226.59,421.54 L223.40,419.78 L220.42,421.93 L220.63,425.84 L223.81,427.60 L220.83,429.76 L221.04,433.67 L217.85,431.91 L214.87,434.06 L214.67,430.15 L211.48,428.38 L208.50,430.54 L208.71,434.45 L205.52,432.69 L202.54,434.84 L202.33,430.93 L199.15,429.17 L202.13,427.01 L201.92,423.10 L198.74,421.34 L195.76,423.49 L195.55,419.58 L192.37,417.82 L195.35,415.66 L195.14,411.75 L198.33,413.51 L201.31,411.36 L201.10,407.45 L197.92,405.68 L200.90,403.53 L200.69,399.62 L197.51,397.86 L194.53,400.01 L194.32,396.10 L191.13,394.33 L188.15,396.49 L188.36,400.40 L185.17,398.64 L182.19,400.79 L181.99,396.88 L178.80,395.12 L181.78,392.96 L181.58,389.05 L178.39,387.29 L175.41,389.44 L175.21,385.53 L172.02,383.77 L169.04,385.92 L169.25,389.83 L166.06,388.07 L163.08,390.22 L163.29,394.14 L166.47,395.90 L163.49,398.05 L163.70,401.96 L160.51,400.20 L157.53,402.36 L157.33,398.44 L154.14,396.68 L151.16,398.83 L151.36,402.75 L148.18,400.99 L145.20,403.14 L145.40,407.05 L148.59,408.81 L145.61,410.97 L145.82,414.88 L149.00,416.64 L151.98,414.49 L152.19,418.40 L155.37,420.16 L152.39,422.32 L152.60,426.23 L149.41,424.47 L146.43,426.62 L146.64,430.53 L149.82,432.29 L146.84,434.45 L147.05,438.36 L143.86,436.60 L140.88,438.75 L140.68,434.84 L137.49,433.08 L134.51,435.23 L134.72,439.14 L131.53,437.38 L128.55,439.53 L128.34,435.62 L125.16,433.86 L128.14,431.71 L127.93,427.79 L124.75,426.03 L121.77,428.18 L121.56,424.27 L118.38,422.51 L115.40,424.66 L115.60,428.57 L112.42,426.81 L109.44,428.97 L109.64,432.88 L112.83,434.64 L109.85,436.79 L110.05,440.71 L106.87,438.95 L103.89,441.10 L103.68,437.18 L100.50,435.42 L97.51,437.57 L97.72,441.49 L94.53,439.73 L91.55,441.88 L91.35,437.97 L88.16,436.20 L91.14,434.05 L90.94,430.14 L87.75,428.38 L84.77,430.53 L84.57,426.62 L81.38,424.85 L84.36,422.70 L84.16,418.79 L87.34,420.55 L90.32,418.40 L90.12,414.48 L86.93,412.72 L89.91,410.57 L89.71,406.66 L86.52,404.90 L83.54,407.05 L83.34,403.13 L80.15,401.37 L77.17,403.52 L77.37,407.44 L74.19,405.68 L71.21,407.83 L71.00,403.92 L67.82,402.15 L70.80,400.00 L70.59,396.09 L67.41,394.33 L64.43,396.48 L64.22,392.57 L61.04,390.80 L64.02,388.65 L63.81,384.74 L67.00,386.50 L69.98,384.35 L69.77,380.43 L66.59,378.67 L69.57,376.52 L69.36,372.61 L72.55,374.37 L75.53,372.22 L75.73,376.13 L78.92,377.89 L81.90,375.74 L81.69,371.82 L84.88,373.59 L87.86,371.43 L87.65,367.52 L84.47,365.76 L87.45,363.61 L87.24,359.69 L84.06,357.93 L81.08,360.08 L80.87,356.17 L77.69,354.41 L80.67,352.26 L80.46,348.34 L83.65,350.10 L86.63,347.95 L86.42,344.04 L83.24,342.28 L86.22,340.12 L86.01,336.21 L82.83,334.45 L79.84,336.60 L79.64,332.69 L76.45,330.93 L73.47,333.08 L73.68,336.99 L70.49,335.23 L67.51,337.38 L67.31,333.47 L64.12,331.71 L67.10,329.56 L66.90,325.64 L63.71,323.88 L60.73,326.03 L60.53,322.12 L57.34,320.36 L54.36,322.51 L54.57,326.42 L51.38,324.66 L48.40,326.82 L48.61,330.73 L51.79,332.49 L48.81,334.64 L49.02,338.56 L45.83,336.80 L42.85,338.95 L42.64,335.03 L39.46,333.27 L36.48,335.42 L36.68,339.34 L33.50,337.58 L30.52,339.73 L30.31,335.82 L27.13,334.05 L30.11,331.90 L29.90,327.99 L26.72,326.23 L23.74,328.38 L23.53,324.47 L20.35,322.70 L23.33,320.55 L23.12,316.64 L26.31,318.40 L29.29,316.25 L29.08,312.33 L25.90,310.57 L28.88,308.42 L28.67,304.51 L25.48,302.75 L22.50,304.90 L22.30,300.98 L19.11,299.22 L16.13,301.37 L16.34,305.29 L13.15,303.53 L10.17,305.68 L9.97,301.77 L6.78,300.00 L9.76,297.85 L9.56,293.94 L6.37,292.18 L3.39,294.33 L3.19,290.42 L0.00,288.65" stroke="#fbbf24" stroke-width="1.0" fill="none"/><text x="200" y="40" fill="white" font-size="32" font-weight="bold">    4</text><text x="200" y="80" fill="#94a3b8" font-size="20">: 3585 | : 8663  | D  1.16162</text></g></svg>
