<?xml version="1.0" encoding="UTF-8"?>
<svg width="1200" height="800" viewBox="0 0 1200 800" xmlns="http://www.w3.org/2000/svg">
  <rect width="100%" height="100%" fill="#0f172a"/>
  <g transform="translate(80,80)"><path d="M205.97,0.00 L250.24,31.80 L297.41,5.55 L294.50,63.59 L338.76,95.39 L379.25,106.17 L407.99,73.01 L419.74,116.95 L460.23,127.74 L445.90,136.59 L445.70,154.66 L431.56,145.43 L417.23,154.28 L532.16,156.22 L591.15,47.76 L647.09,158.15 L762.02,160.09 L803.52,183.59 L842.78,155.83 L845.02,207.09 L886.51,230.59 L885.76,233.91 L888.00,236.29 L885.00,237.23 L884.25,240.55 L931.03,284.23 L988.83,261.54 L977.81,327.92 L1024.58,371.60 L1026.34,367.45 L1023.96,363.70 L1028.10,363.31 L1029.86,359.16 L1029.36,372.98 L1040.00,380.37 L1028.86,386.81 L1028.36,400.63 L1026.85,403.40 L1028.27,406.22 L1025.34,406.16 L1023.83,408.93 L991.13,423.58 L986.33,462.04 L958.44,438.24 L925.75,452.89 L910.15,453.44 L902.79,468.56 L894.56,454.00 L878.97,454.55 L671.99,446.81 L562.40,640.00 L465.01,439.06 L258.03,431.32 L172.02,383.77 L91.55,441.88 L86.01,336.21 L0.00,288.65" stroke="#93c5fd" stroke-width="2.0" fill="none"/><text x="200" y="40" fill="white" font-size="32" font-weight="bold">Кривая Коха — итерация 1</text><text x="200" y="80" fill="#94a3b8" font-size="20">Точек: 57 | Длина: 3554 км | D ≈ —</text></g></svg>
