<?xml version="1.0" encoding="UTF-8"?>
<svg width="1200" height="800" viewBox="0 0 1200 800" xmlns="http://www.w3.org/2000/svg">
  <rect width="100%" height="100%" fill="#0f172a"/>
  <g transform="translate(80,80)"><path d="M205.97,0.00 L210.89,3.53 L216.13,0.62 L215.81,7.07 L220.73,10.60 L225.97,7.68 L226.29,1.23 L231.21,4.77 L236.45,1.85 L236.13,8.30 L241.05,11.83 L235.81,14.75 L235.48,21.20 L240.40,24.73 L245.64,21.81 L245.32,28.26 L250.24,31.80 L255.48,28.88 L255.80,22.43 L260.72,25.96 L265.96,23.05 L266.29,16.60 L261.37,13.07 L266.61,10.15 L266.93,3.70 L271.85,7.23 L277.09,4.32 L276.77,10.77 L281.69,14.30 L286.93,11.38 L287.25,4.93 L292.17,8.47 L297.41,5.55 L297.09,12.00 L302.01,15.53 L296.77,18.45 L296.44,24.90 L301.36,28.43 L306.60,25.52 L306.28,31.96 L311.20,35.50 L305.95,38.41 L305.63,44.86 L300.71,41.33 L295.47,44.25 L295.15,50.69 L300.06,54.23 L294.82,57.14 L294.50,63.59 L299.42,67.13 L304.66,64.21 L304.33,70.66 L309.25,74.19 L314.49,71.28 L314.82,64.83 L319.74,68.36 L324.98,65.44 L324.65,71.89 L329.57,75.42 L324.33,78.34 L324.01,84.79 L328.93,88.32 L334.17,85.41 L333.84,91.86 L338.76,95.39 L343.26,96.59 L346.45,92.90 L347.76,97.78 L352.26,98.98 L355.45,95.30 L354.15,90.42 L358.64,91.61 L361.84,87.93 L363.14,92.81 L367.64,94.01 L364.45,97.69 L365.75,102.58 L370.25,103.78 L373.45,100.09 L374.75,104.97 L379.25,106.17 L382.44,102.49 L381.14,97.60 L385.64,98.80 L388.83,95.12 L387.53,90.24 L383.03,89.04 L386.22,85.35 L384.91,80.47 L389.41,81.67 L392.61,77.98 L393.91,82.87 L398.41,84.07 L401.60,80.38 L400.30,75.50 L404.80,76.70 L407.99,73.01 L409.30,77.89 L413.80,79.09 L410.60,82.78 L411.91,87.66 L416.41,88.86 L419.60,85.17 L420.91,90.06 L425.40,91.25 L422.21,94.94 L423.52,99.82 L419.02,98.62 L415.83,102.31 L417.13,107.19 L421.63,108.39 L418.44,112.07 L419.74,116.95 L424.24,118.15 L427.43,114.47 L428.74,119.35 L433.24,120.55 L436.43,116.86 L435.13,111.98 L439.63,113.18 L442.82,109.50 L444.12,114.38 L448.62,115.58 L445.43,119.26 L446.74,124.14 L451.23,125.34 L454.43,121.66 L455.73,126.54 L460.23,127.74 L458.64,128.72 L458.62,130.73 L457.05,129.70 L455.45,130.69 L455.43,132.70 L457.00,133.72 L455.41,134.70 L455.39,136.71 L453.82,135.69 L452.22,136.67 L452.25,134.66 L450.68,133.64 L449.08,134.62 L449.06,136.63 L447.49,135.60 L445.90,136.59 L445.88,138.59 L447.45,139.62 L445.85,140.60 L445.83,142.61 L447.40,143.63 L448.99,142.65 L448.97,144.66 L450.54,145.68 L448.95,146.67 L448.93,148.68 L447.36,147.65 L445.77,148.63 L445.74,150.64 L447.31,151.67 L445.72,152.65 L445.70,154.66 L444.13,153.63 L442.54,154.62 L442.56,152.61 L440.99,151.58 L439.39,152.57 L439.37,154.57 L437.80,153.55 L436.21,154.53 L436.23,152.52 L434.66,151.50 L436.25,150.52 L436.27,148.51 L434.70,147.48 L433.11,148.47 L433.13,146.46 L431.56,145.43 L429.97,146.42 L429.95,148.42 L428.38,147.40 L426.78,148.38 L426.76,150.39 L428.33,151.42 L426.74,152.40 L426.72,154.41 L425.15,153.38 L423.55,154.36 L423.58,152.36 L422.01,151.33 L420.41,152.31 L420.39,154.32 L418.82,153.30 L417.23,154.28 L430.00,154.50 L436.55,142.44 L442.77,154.71 L455.54,154.93 L462.09,142.87 L455.88,130.61 L468.65,130.82 L475.20,118.77 L481.42,131.04 L494.19,131.25 L487.63,143.31 L493.85,155.57 L506.62,155.79 L513.17,143.74 L519.39,156.00 L532.16,156.22 L538.71,144.17 L532.50,131.90 L545.27,132.11 L551.82,120.06 L545.61,107.80 L532.84,107.58 L539.39,95.53 L533.18,83.26 L545.95,83.48 L552.50,71.43 L558.72,83.70 L571.49,83.91 L578.04,71.86 L571.83,59.59 L584.60,59.81 L591.15,47.76 L597.37,60.02 L610.14,60.24 L603.58,72.29 L609.80,84.56 L622.57,84.77 L629.12,72.72 L635.34,84.99 L648.11,85.20 L641.55,97.25 L647.77,109.52 L635.00,109.30 L628.44,121.35 L634.66,133.62 L647.43,133.83 L640.88,145.89 L647.09,158.15 L659.86,158.37 L666.42,146.32 L672.63,158.58 L685.40,158.80 L691.96,146.75 L685.74,134.48 L698.51,134.69 L705.07,122.64 L711.28,134.91 L724.05,135.12 L717.50,147.18 L723.71,159.44 L736.48,159.66 L743.04,147.61 L749.25,159.87 L762.02,160.09 L766.63,162.70 L771.00,159.61 L771.25,165.31 L775.86,167.92 L780.22,164.84 L779.97,159.14 L784.58,161.75 L788.94,158.67 L789.19,164.36 L793.80,166.98 L789.44,170.06 L789.69,175.75 L794.30,178.37 L798.66,175.28 L798.91,180.98 L803.52,183.59 L807.88,180.50 L807.63,174.81 L812.25,177.42 L816.61,174.34 L816.36,168.64 L811.75,166.03 L816.11,162.95 L815.86,157.25 L820.47,159.86 L824.84,156.78 L825.08,162.47 L829.69,165.08 L834.06,162.00 L833.81,156.30 L838.42,158.92 L842.78,155.83 L843.03,161.53 L847.64,164.14 L843.28,167.22 L843.53,172.92 L848.14,175.53 L852.50,172.44 L852.75,178.14 L857.36,180.75 L853.00,183.84 L853.25,189.53 L848.63,186.92 L844.27,190.00 L844.52,195.70 L849.13,198.31 L844.77,201.39 L845.02,207.09 L849.63,209.70 L853.99,206.62 L854.24,212.31 L858.85,214.92 L863.21,211.84 L862.96,206.14 L867.57,208.76 L871.94,205.67 L872.18,211.37 L876.80,213.98 L872.43,217.06 L872.68,222.76 L877.29,225.37 L881.65,222.29 L881.90,227.98 L886.51,230.59 L886.43,230.96 L886.68,231.22 L886.35,231.33 L886.26,231.70 L886.51,231.96 L886.84,231.86 L886.76,232.23 L887.01,232.49 L886.68,232.59 L886.59,232.96 L886.34,232.70 L886.01,232.80 L885.93,233.17 L886.18,233.44 L885.84,233.54 L885.76,233.91 L886.01,234.17 L886.34,234.07 L886.26,234.44 L886.50,234.70 L886.84,234.60 L886.92,234.23 L887.17,234.49 L887.50,234.39 L887.42,234.76 L887.67,235.02 L887.33,235.13 L887.25,235.49 L887.50,235.76 L887.83,235.65 L887.75,236.02 L888.00,236.29 L887.66,236.39 L887.58,236.76 L887.33,236.50 L887.00,236.60 L886.91,236.97 L887.16,237.23 L886.83,237.34 L886.75,237.71 L886.50,237.44 L886.17,237.55 L886.25,237.18 L886.00,236.91 L885.67,237.02 L885.59,237.39 L885.34,237.12 L885.00,237.23 L884.92,237.60 L885.17,237.86 L884.84,237.96 L884.75,238.33 L885.00,238.60 L885.33,238.49 L885.25,238.86 L885.50,239.13 L885.17,239.23 L885.08,239.60 L884.83,239.34 L884.50,239.44 L884.42,239.81 L884.67,240.07 L884.33,240.18 L884.25,240.55 L889.45,245.40 L895.87,242.88 L894.65,250.25 L899.84,255.11 L906.26,252.59 L907.49,245.21 L912.69,250.06 L919.11,247.54 L917.88,254.92 L923.08,259.77 L916.66,262.29 L915.44,269.67 L920.63,274.52 L927.05,272.00 L925.83,279.38 L931.03,284.23 L937.45,281.71 L938.67,274.33 L943.87,279.19 L950.29,276.67 L951.52,269.29 L946.32,264.44 L952.74,261.91 L953.97,254.54 L959.17,259.39 L965.59,256.87 L964.36,264.25 L969.56,269.10 L975.98,266.58 L977.21,259.20 L982.41,264.06 L988.83,261.54 L987.60,268.91 L992.80,273.77 L986.38,276.29 L985.15,283.66 L990.35,288.52 L996.77,286.00 L995.55,293.37 L1000.75,298.22 L994.32,300.75 L993.10,308.12 L987.90,303.27 L981.48,305.79 L980.26,313.16 L985.45,318.02 L979.03,320.54 L977.81,327.92 L983.00,332.77 L989.43,330.25 L988.20,337.62 L993.40,342.48 L999.82,339.96 L1001.05,332.58 L1006.24,337.43 L1012.67,334.91 L1011.44,342.29 L1016.64,347.14 L1010.22,349.66 L1008.99,357.04 L1014.19,361.89 L1020.61,359.37 L1019.39,366.75 L1024.58,371.60 L1024.78,371.14 L1024.51,370.72 L1024.97,370.68 L1025.17,370.22 L1024.90,369.80 L1024.44,369.85 L1024.64,369.39 L1024.37,368.97 L1024.84,368.92 L1025.03,368.46 L1025.30,368.88 L1025.76,368.84 L1025.95,368.38 L1025.69,367.96 L1026.15,367.91 L1026.34,367.45 L1026.08,367.04 L1025.62,367.08 L1025.81,366.62 L1025.55,366.20 L1025.09,366.25 L1024.89,366.71 L1024.63,366.29 L1024.17,366.34 L1024.36,365.88 L1024.10,365.46 L1024.56,365.41 L1024.75,364.95 L1024.49,364.54 L1024.03,364.58 L1024.22,364.12 L1023.96,363.70 L1024.42,363.66 L1024.61,363.20 L1024.88,363.62 L1025.34,363.57 L1025.53,363.11 L1025.27,362.69 L1025.73,362.65 L1025.93,362.19 L1026.19,362.61 L1026.65,362.56 L1026.46,363.02 L1026.72,363.44 L1027.18,363.39 L1027.38,362.93 L1027.64,363.35 L1028.10,363.31 L1028.30,362.85 L1028.03,362.43 L1028.50,362.39 L1028.69,361.92 L1028.43,361.51 L1027.96,361.55 L1028.16,361.09 L1027.90,360.67 L1028.36,360.63 L1028.55,360.17 L1028.82,360.59 L1029.28,360.54 L1029.47,360.08 L1029.21,359.66 L1029.67,359.62 L1029.86,359.16 L1029.81,360.70 L1030.99,361.52 L1029.75,362.23 L1029.70,363.77 L1030.88,364.59 L1032.12,363.87 L1032.06,365.41 L1033.24,366.23 L1032.01,366.95 L1031.95,368.48 L1030.77,367.66 L1029.53,368.38 L1029.47,369.91 L1030.66,370.73 L1029.42,371.45 L1029.36,372.98 L1030.54,373.80 L1031.78,373.09 L1031.73,374.63 L1032.91,375.45 L1034.15,374.73 L1034.20,373.20 L1035.38,374.02 L1036.62,373.30 L1036.57,374.84 L1037.75,375.66 L1036.51,376.38 L1036.45,377.91 L1037.64,378.73 L1038.87,378.02 L1038.82,379.55 L1040.00,380.37 L1038.76,381.09 L1038.71,382.63 L1037.52,381.80 L1036.29,382.52 L1036.23,384.06 L1037.41,384.88 L1036.17,385.59 L1036.12,387.13 L1034.94,386.31 L1033.70,387.02 L1033.75,385.48 L1032.57,384.66 L1031.33,385.38 L1031.28,386.91 L1030.10,386.09 L1028.86,386.81 L1028.80,388.34 L1029.98,389.17 L1028.75,389.88 L1028.69,391.42 L1029.87,392.24 L1031.11,391.52 L1031.05,393.06 L1032.24,393.88 L1031.00,394.59 L1030.94,396.13 L1029.76,395.31 L1028.52,396.02 L1028.47,397.56 L1029.65,398.38 L1028.41,399.10 L1028.36,400.63 L1028.19,400.94 L1028.35,401.25 L1028.02,401.25 L1027.85,401.55 L1028.01,401.87 L1028.34,401.87 L1028.17,402.18 L1028.33,402.49 L1028.00,402.49 L1027.83,402.80 L1027.68,402.48 L1027.35,402.48 L1027.18,402.78 L1027.34,403.10 L1027.01,403.09 L1026.85,403.40 L1027.00,403.71 L1027.33,403.72 L1027.16,404.02 L1027.32,404.34 L1027.65,404.34 L1027.81,404.04 L1027.97,404.35 L1028.30,404.36 L1028.13,404.66 L1028.29,404.98 L1027.96,404.97 L1027.80,405.28 L1027.95,405.59 L1028.28,405.60 L1028.11,405.90 L1028.27,406.22 L1027.94,406.21 L1027.78,406.52 L1027.62,406.20 L1027.29,406.20 L1027.12,406.51 L1027.28,406.82 L1026.96,406.81 L1026.79,407.12 L1026.63,406.81 L1026.31,406.80 L1026.47,406.49 L1026.32,406.18 L1025.99,406.17 L1025.82,406.48 L1025.66,406.17 L1025.34,406.16 L1025.17,406.47 L1025.33,406.78 L1025.00,406.78 L1024.83,407.08 L1024.99,407.40 L1025.32,407.40 L1025.15,407.71 L1025.31,408.02 L1024.98,408.02 L1024.82,408.32 L1024.66,408.01 L1024.33,408.01 L1024.16,408.31 L1024.32,408.63 L1024.00,408.62 L1023.83,408.93 L1020.20,410.56 L1019.66,414.83 L1016.56,412.18 L1012.93,413.81 L1012.40,418.08 L1015.50,420.73 L1011.86,422.36 L1011.33,426.63 L1008.23,423.99 L1004.60,425.61 L1005.13,421.34 L1002.03,418.70 L998.40,420.32 L997.87,424.60 L994.77,421.95 L991.13,423.58 L990.60,427.85 L993.70,430.50 L990.07,432.13 L989.53,436.40 L992.63,439.04 L996.26,437.42 L995.73,441.69 L998.83,444.33 L995.20,445.96 L994.66,450.23 L991.56,447.59 L987.93,449.22 L987.40,453.49 L990.50,456.14 L986.86,457.76 L986.33,462.04 L983.23,459.39 L979.60,461.02 L980.13,456.75 L977.03,454.10 L973.40,455.73 L972.87,460.00 L969.77,457.36 L966.14,458.99 L966.67,454.71 L963.57,452.07 L967.20,450.44 L967.74,446.17 L964.64,443.52 L961.01,445.15 L961.54,440.88 L958.44,438.24 L954.81,439.86 L954.27,444.14 L951.18,441.49 L947.54,443.12 L947.01,447.39 L950.11,450.04 L946.47,451.67 L945.94,455.94 L942.84,453.29 L939.21,454.92 L939.74,450.65 L936.64,448.00 L933.01,449.63 L932.48,453.91 L929.38,451.26 L925.75,452.89 L924.01,452.95 L923.20,454.63 L922.28,453.01 L920.55,453.07 L919.73,454.75 L920.65,456.37 L918.91,456.43 L918.10,458.11 L917.18,456.50 L915.45,456.56 L916.27,454.88 L915.35,453.26 L913.62,453.32 L912.80,455.00 L911.89,453.38 L910.15,453.44 L909.34,455.12 L910.25,456.74 L908.52,456.80 L907.70,458.48 L908.61,460.10 L910.35,460.04 L909.53,461.72 L910.44,463.34 L908.71,463.40 L907.89,465.08 L906.98,463.46 L905.25,463.52 L904.43,465.20 L905.34,466.82 L903.61,466.88 L902.79,468.56 L901.88,466.95 L900.15,467.01 L900.96,465.33 L900.05,463.71 L898.32,463.77 L897.50,465.45 L896.58,463.83 L894.85,463.89 L895.67,462.21 L894.75,460.59 L896.49,460.53 L897.31,458.85 L896.39,457.23 L894.66,457.29 L895.48,455.61 L894.56,454.00 L892.83,454.06 L892.01,455.74 L891.10,454.12 L889.36,454.18 L888.55,455.86 L889.46,457.48 L887.73,457.54 L886.91,459.22 L886.00,457.60 L884.26,457.66 L885.08,455.98 L884.17,454.36 L882.43,454.43 L881.62,456.11 L880.70,454.49 L878.97,454.55 L855.97,453.69 L843.79,475.15 L832.97,452.83 L809.98,451.97 L797.80,473.43 L808.62,495.76 L785.62,494.90 L773.45,516.37 L762.63,494.04 L739.63,493.18 L751.80,471.71 L740.98,449.39 L717.99,448.53 L705.81,469.99 L694.99,447.67 L671.99,446.81 L659.81,468.27 L670.63,490.60 L647.64,489.74 L635.46,511.20 L646.28,533.53 L669.28,534.39 L657.10,555.86 L667.92,578.18 L644.93,577.32 L632.75,598.79 L621.93,576.46 L598.93,575.60 L586.75,597.07 L597.58,619.39 L574.58,618.53 L562.40,640.00 L551.58,617.67 L528.58,616.81 L540.76,595.35 L529.94,573.02 L506.94,572.16 L494.76,593.63 L483.94,571.30 L460.95,570.44 L473.12,548.98 L462.30,526.65 L485.30,527.51 L497.47,506.04 L486.65,483.72 L463.66,482.86 L475.83,461.39 L465.01,439.06 L442.01,438.20 L429.84,459.67 L419.02,437.34 L396.02,436.48 L383.84,457.95 L394.66,480.28 L371.67,479.42 L359.49,500.88 L348.67,478.56 L325.67,477.70 L337.85,456.23 L327.02,433.90 L304.03,433.04 L291.85,454.51 L281.03,432.18 L258.03,431.32 L248.48,426.04 L239.53,432.50 L238.92,420.75 L229.36,415.47 L220.42,421.93 L221.04,433.67 L211.48,428.38 L202.54,434.84 L201.92,423.10 L192.37,417.82 L201.31,411.36 L200.69,399.62 L191.13,394.33 L182.19,400.79 L181.58,389.05 L172.02,383.77 L163.08,390.22 L163.70,401.96 L154.14,396.68 L145.20,403.14 L145.82,414.88 L155.37,420.16 L146.43,426.62 L147.05,438.36 L137.49,433.08 L128.55,439.53 L127.93,427.79 L118.38,422.51 L109.44,428.97 L110.05,440.71 L100.50,435.42 L91.55,441.88 L90.94,430.14 L81.38,424.85 L90.32,418.40 L89.71,406.66 L80.15,401.37 L71.21,407.83 L70.59,396.09 L61.04,390.80 L69.98,384.35 L69.36,372.61 L78.92,377.89 L87.86,371.43 L87.24,359.69 L77.69,354.41 L86.63,347.95 L86.01,336.21 L76.45,330.93 L67.51,337.38 L66.90,325.64 L57.34,320.36 L48.40,326.82 L49.02,338.56 L39.46,333.27 L30.52,339.73 L29.90,327.99 L20.35,322.70 L29.29,316.25 L28.67,304.51 L19.11,299.22 L10.17,305.68 L9.56,293.94 L0.00,288.65" stroke="#fde047" stroke-width="2.0" fill="none"/><text x="200" y="40" fill="white" font-size="32" font-weight="bold">Кривая Коха — итерация 3</text><text x="200" y="80" fill="#94a3b8" font-size="20">Точек: 897 | Длина: 6489 км | D ≈ 0.91181</text></g></svg>
