<?xml version="1.0" encoding="UTF-8"?>
<svg width="1200" height="800" viewBox="0 0 1200 800" xmlns="http://www.w3.org/2000/svg">
  <rect width="100%" height="100%" fill="#0f172a"/>
  <g transform="translate(80,80)"><path d="M205.97,0.00 L220.73,10.60 L236.45,1.85 L235.48,21.20 L250.24,31.80 L265.96,23.05 L266.93,3.70 L281.69,14.30 L297.41,5.55 L296.44,24.90 L311.20,35.50 L295.47,44.25 L294.50,63.59 L309.25,74.19 L324.98,65.44 L324.01,84.79 L338.76,95.39 L352.26,98.98 L361.84,87.93 L365.75,102.58 L379.25,106.17 L388.83,95.12 L384.91,80.47 L398.41,84.07 L407.99,73.01 L411.91,87.66 L425.40,91.25 L415.83,102.31 L419.74,116.95 L433.24,120.55 L442.82,109.50 L446.74,124.14 L460.23,127.74 L455.45,130.69 L455.39,136.71 L450.68,133.64 L445.90,136.59 L445.83,142.61 L450.54,145.68 L445.77,148.63 L445.70,154.66 L440.99,151.58 L436.21,154.53 L436.27,148.51 L431.56,145.43 L426.78,148.38 L426.72,154.41 L422.01,151.33 L417.23,154.28 L455.54,154.93 L475.20,118.77 L493.85,155.57 L532.16,156.22 L551.82,120.06 L533.18,83.26 L571.49,83.91 L591.15,47.76 L609.80,84.56 L648.11,85.20 L628.44,121.35 L647.09,158.15 L685.40,158.80 L705.07,122.64 L723.71,159.44 L762.02,160.09 L775.86,167.92 L788.94,158.67 L789.69,175.75 L803.52,183.59 L816.61,174.34 L815.86,157.25 L829.69,165.08 L842.78,155.83 L843.53,172.92 L857.36,180.75 L844.27,190.00 L845.02,207.09 L858.85,214.92 L871.94,205.67 L872.68,222.76 L886.51,230.59 L886.26,231.70 L887.01,232.49 L886.01,232.80 L885.76,233.91 L886.50,234.70 L887.50,234.39 L887.25,235.49 L888.00,236.29 L887.00,236.60 L886.75,237.71 L886.00,236.91 L885.00,237.23 L884.75,238.33 L885.50,239.13 L884.50,239.44 L884.25,240.55 L899.84,255.11 L919.11,247.54 L915.44,269.67 L931.03,284.23 L950.29,276.67 L953.97,254.54 L969.56,269.10 L988.83,261.54 L985.15,283.66 L1000.75,298.22 L981.48,305.79 L977.81,327.92 L993.40,342.48 L1012.67,334.91 L1008.99,357.04 L1024.58,371.60 L1025.17,370.22 L1024.37,368.97 L1025.76,368.84 L1026.34,367.45 L1025.55,366.20 L1024.17,366.34 L1024.75,364.95 L1023.96,363.70 L1025.34,363.57 L1025.93,362.19 L1026.72,363.44 L1028.10,363.31 L1028.69,361.92 L1027.90,360.67 L1029.28,360.54 L1029.86,359.16 L1029.70,363.77 L1033.24,366.23 L1029.53,368.38 L1029.36,372.98 L1032.91,375.45 L1036.62,373.30 L1036.45,377.91 L1040.00,380.37 L1036.29,382.52 L1036.12,387.13 L1032.57,384.66 L1028.86,386.81 L1028.69,391.42 L1032.24,393.88 L1028.52,396.02 L1028.36,400.63 L1027.85,401.55 L1028.33,402.49 L1027.35,402.48 L1026.85,403.40 L1027.32,404.34 L1028.30,404.36 L1027.80,405.28 L1028.27,406.22 L1027.29,406.20 L1026.79,407.12 L1026.32,406.18 L1025.34,406.16 L1024.83,407.08 L1025.31,408.02 L1024.33,408.01 L1023.83,408.93 L1012.93,413.81 L1011.33,426.63 L1002.03,418.70 L991.13,423.58 L989.53,436.40 L998.83,444.33 L987.93,449.22 L986.33,462.04 L977.03,454.10 L966.14,458.99 L967.74,446.17 L958.44,438.24 L947.54,443.12 L945.94,455.94 L936.64,448.00 L925.75,452.89 L920.55,453.07 L918.10,458.11 L915.35,453.26 L910.15,453.44 L907.70,458.48 L910.44,463.34 L905.25,463.52 L902.79,468.56 L900.05,463.71 L894.85,463.89 L897.31,458.85 L894.56,454.00 L889.36,454.18 L886.91,459.22 L884.17,454.36 L878.97,454.55 L809.98,451.97 L773.45,516.37 L740.98,449.39 L671.99,446.81 L635.46,511.20 L667.92,578.18 L598.93,575.60 L562.40,640.00 L529.94,573.02 L460.95,570.44 L497.47,506.04 L465.01,439.06 L396.02,436.48 L359.49,500.88 L327.02,433.90 L258.03,431.32 L229.36,415.47 L202.54,434.84 L200.69,399.62 L172.02,383.77 L145.20,403.14 L147.05,438.36 L118.38,422.51 L91.55,441.88 L89.71,406.66 L61.04,390.80 L87.86,371.43 L86.01,336.21 L57.34,320.36 L30.52,339.73 L28.67,304.51 L0.00,288.65" stroke="#dbeefe" stroke-width="2.0" fill="none"/><text x="200" y="40" fill="white" font-size="32" font-weight="bold">Кривая Коха — итерация 2</text><text x="200" y="80" fill="#94a3b8" font-size="20">Точек: 225 | Длина: 4841 км | D ≈ 0.55358</text></g></svg>
