<?xml version="1.0" encoding="UTF-8"?>
<svg xmlns="http://www.w3.org/2000/svg" width="1440" height="900" viewBox="0 0 1440 900">
  <rect width="100%" height="100%" fill="#f7f4ea"/>
  <rect x="20" y="20" width="1400" height="860" rx="28" fill="#fcfbf7" stroke="#d6d0c4"/>
  <rect x="1072" y="20" width="304" height="860" rx="24" fill="#f0ece2" stroke="#d6d0c4"/>
  <g>
  <text x="56" y="58" font-family="Helvetica, Arial, sans-serif" font-size="30" font-weight="700" fill="#16324f">Эрозия — шаг 1</text>
  <text x="56" y="108" font-family="Helvetica, Arial, sans-serif" font-size="14" fill="#4f6d7a">Серая пунктирная линия показывает реальную загруженную береговую линию; цветные слои — результаты пошаговой эрозии</text>
  <text x="56" y="134" font-family="Helvetica, Arial, sans-serif" font-size="13" fill="#6b7a87">SVG содержит исходную полилинию, фрактальные итерации, масштаб и длину по слоям.</text>
  </g>
  <g>
    <polyline fill="none" stroke="#7a8b99" stroke-width="1.80" stroke-opacity="0.85" stroke-linejoin="round" stroke-linecap="round" stroke-dasharray="8 6" points="359.90,309.80 361.36,310.21 361.93,309.69 363.55,309.45 363.26,309.26 364.61,309.27 365.76,311.12 364.77,312.81 364.88,314.15 362.92,315.15 362.55,315.56 363.06,315.74 362.24,316.38 360.71,316.53 360.70,318.79 358.78,319.98 359.74,320.66 358.97,321.32 360.22,320.90 359.57,322.74 360.71,323.10 362.45,325.28 361.96,327.27 362.64,328.64 365.81,331.02 367.55,331.70 370.03,331.57 371.32,332.08 373.52,335.61 380.91,333.23 383.82,334.37 384.94,335.88 390.13,336.25 395.62,334.70 396.19,333.14 395.89,334.62 398.30,333.07 400.78,332.97 399.40,332.37 399.66,331.83 400.60,331.70 400.88,332.08 401.59,331.42 402.53,331.40 402.18,331.75 402.67,331.73 402.84,332.31 402.15,332.07 401.43,332.47 401.00,332.10 401.05,332.95 403.83,332.44 403.79,331.91 404.26,332.22 409.20,328.69 413.00,327.61 417.67,327.53 426.10,323.65 429.95,323.03 434.04,322.98 441.16,320.11 450.65,320.22 452.36,320.91 455.34,320.26 456.81,320.83 455.39,321.85 451.07,322.64 440.94,320.46 434.61,323.28 426.29,324.01 419.45,327.50 415.33,328.34 411.06,328.58 408.98,329.27 406.28,331.09 405.06,332.14 405.54,332.42 404.70,332.44 400.39,336.90 398.38,336.82 395.12,339.16 391.19,339.24 386.63,340.46 383.38,340.22 385.81,340.99 385.18,341.54 385.82,341.67 388.71,340.37 391.48,339.78 392.87,340.01 391.45,341.34 388.76,341.96 384.73,341.75 380.15,340.76 377.36,340.80 375.09,340.19 377.05,340.33 374.17,338.82 373.72,338.93 374.51,339.31 374.49,339.96 371.32,339.40 365.52,340.43 365.36,339.73 365.15,340.28 363.36,340.12 357.70,338.72 357.51,338.03 358.03,337.86 356.31,337.37 357.13,338.27 355.50,338.53 350.65,337.62 347.44,336.31 341.37,336.96 335.63,336.98 332.71,335.89 331.00,334.24 333.19,336.57 339.54,340.29 344.11,343.98 343.48,343.43 344.41,343.68 343.34,343.18 343.72,341.63 344.66,340.83 346.93,340.25 356.32,342.04 360.88,343.59 359.17,342.81 361.51,343.18 360.02,342.68 360.87,342.76 362.14,343.34 360.81,343.28 361.93,343.54 364.13,342.59 365.83,343.28 366.59,345.14 368.04,346.40 367.62,347.39 366.37,347.73 365.65,347.35 364.48,348.97 361.29,350.05 357.14,350.73 356.57,350.70 358.85,350.48 353.07,350.62 349.42,351.44 349.71,351.64 347.95,352.44 347.58,353.28 348.15,353.02 348.83,353.44 349.41,354.63 349.11,355.36 350.07,354.67 349.90,354.28 350.36,354.79 351.25,354.52 351.52,355.32 352.54,354.29 352.96,354.53 352.46,354.81 353.38,354.67 353.69,355.12 355.03,354.65 355.46,355.38 356.97,353.58 356.50,353.04 356.26,353.59 355.83,353.47 355.72,352.15 356.96,351.92 356.93,352.95 359.98,353.31 359.30,353.28 360.35,353.63 360.60,354.61 361.25,354.80 360.63,354.65 360.83,355.00 361.16,355.30 361.72,355.02 361.26,355.29 362.04,355.87 363.60,356.01 364.13,355.38 363.90,356.13 364.76,356.36 365.55,356.48 365.11,356.07 365.63,355.87 366.00,356.56 367.15,355.87 368.71,356.89 368.53,356.45 369.18,356.44 370.12,358.23 370.87,358.21 370.69,358.53 371.82,359.20 372.80,359.31 372.69,358.98 373.16,359.61 375.13,359.62 377.50,361.52 377.06,360.95 377.81,361.02 377.83,360.57 378.75,360.41 380.22,360.92 380.78,361.89 380.20,362.03 380.03,361.49 379.61,361.87 380.15,363.12 379.33,364.28 367.47,361.77 391.66,367.15 400.76,368.84 400.97,367.76 404.80,366.60 407.67,366.09 409.64,366.54 413.62,365.97 416.04,365.00 420.02,365.80 423.15,365.32 425.54,366.20 433.47,365.75 433.91,365.60 432.79,365.50 432.62,365.03 433.61,363.93 433.11,362.97 434.35,362.68 436.21,362.87 437.27,364.13 440.79,364.83 444.10,362.71 444.89,361.50 444.30,360.10 445.13,360.56 446.80,358.68 445.51,361.51 447.02,362.84 445.76,363.55 445.02,365.44 445.35,366.01 445.93,366.09 445.72,364.72 446.54,364.28 448.50,363.87 450.82,364.25 452.28,364.98 452.77,365.87 452.07,367.02 450.60,366.72 450.85,368.05 452.96,368.11 452.44,367.93 452.78,366.23 454.00,365.51 454.93,366.73 456.76,367.23 456.42,368.21 460.08,371.17 460.80,371.19 460.18,370.91 460.41,370.49 461.84,370.45 462.93,369.86 465.54,371.35 466.60,371.15 464.87,369.68 465.24,368.17 466.49,367.72 469.96,368.17 466.55,366.60 466.12,365.07 466.89,365.44 468.13,365.18 468.53,364.03 469.93,363.92 470.74,362.60 471.76,362.63 472.86,363.55 475.05,367.97 473.85,368.55 473.19,369.64 474.38,375.62 473.41,376.90 474.73,377.15 474.83,376.69 476.14,376.30 481.63,376.49 482.50,376.78 482.95,377.70 482.26,378.17 480.66,378.24 478.73,379.53 478.25,379.20 477.69,379.44 477.82,383.82 476.12,381.95 474.90,381.78 473.11,380.69 470.86,382.22 470.00,382.11 468.36,384.38 467.69,383.66 465.64,384.07 465.06,383.09 464.21,383.19 460.05,384.70 460.03,385.30 459.73,384.93 459.47,385.30 459.70,386.00 459.31,385.32 455.94,387.63 449.52,389.80 446.25,389.89 444.13,388.88 442.93,387.65 442.20,390.80 441.09,392.17 436.26,393.22 428.66,396.10 424.51,398.23 419.75,400.96 419.51,401.40 420.82,401.44 421.21,402.03 419.99,403.34 420.21,403.76 419.43,403.07 418.48,403.42 418.43,403.79 419.15,403.69 419.29,404.42 415.80,405.11 418.30,403.50 417.33,402.87 412.17,405.10 412.05,406.03 410.78,406.39 411.28,405.98 410.78,405.51 403.58,408.36 400.45,410.14 396.42,414.07 397.12,414.83 398.33,414.98 398.93,415.88 397.46,417.49 408.17,419.56 413.35,416.80 416.78,416.02 425.18,416.42 428.45,417.53 430.46,418.78 430.60,418.44 426.58,416.61 429.54,417.08 430.61,416.49 430.90,417.38 432.15,416.70 432.40,416.01 434.72,415.80 434.82,415.07 436.04,414.61 438.20,414.80 438.08,414.42 440.45,413.38 440.90,412.64 441.68,412.73 442.29,411.47 443.74,411.22 444.36,410.53 445.50,410.93 443.82,412.00 443.02,411.57 441.73,413.34 439.50,414.32 440.55,414.63 439.25,414.61 438.39,415.86 437.18,415.86 437.00,415.40 435.91,415.74 434.76,417.18 436.28,417.21 436.38,417.56 435.69,418.00 435.49,417.57 434.96,417.94 433.54,417.81 434.22,418.71 433.46,418.73 433.13,420.05 430.82,418.90 436.28,422.35 439.23,425.19 441.03,426.05 441.82,427.19 444.15,428.38 446.90,428.98 449.02,430.82 450.67,430.82 452.29,429.10 455.43,429.04 457.58,427.55 459.58,427.81 461.61,428.73 465.40,431.11 469.59,435.12 472.24,440.34 472.53,442.13 472.04,442.61 473.06,446.32 472.69,449.54 471.71,451.32 470.32,451.85 469.07,451.65 468.80,452.06 468.85,453.64 467.68,454.99 468.66,459.22 468.52,463.12 467.84,464.91 466.55,465.41 466.06,466.22 469.66,466.24 471.64,467.03 467.67,466.78 467.36,467.87 467.23,466.68 466.77,466.97 465.94,466.49 465.33,467.24 463.69,467.09 463.53,467.81 463.26,467.14 462.16,467.30 461.93,468.20 461.32,467.55 460.14,468.33 461.13,469.79 459.73,468.74 459.45,470.34 459.25,469.46 458.78,469.96 458.85,468.51 457.21,469.05 459.72,471.36 463.19,473.16 464.54,474.85 465.38,474.44 469.20,475.52 471.89,474.95 473.27,475.50 474.61,476.56 475.55,479.69 477.15,480.24 479.49,480.02 481.51,482.32 484.21,482.36 489.82,480.97 497.24,482.03 500.35,480.93 501.52,481.06 503.69,479.92 507.81,479.50 510.65,475.01 516.22,474.22 518.08,471.90 519.91,471.11 522.70,471.43 522.85,469.09 524.29,468.46 524.63,467.10 527.41,462.92 530.38,460.29 535.32,458.51 536.63,457.59 538.87,457.12 540.10,456.23 550.69,453.26 556.33,453.36 558.14,452.90 560.74,453.34 561.32,452.38 564.70,451.64 566.10,452.38 566.89,451.99 568.94,452.37 570.29,453.45 569.97,454.33 572.39,454.94 575.67,452.85 576.05,450.38 577.69,447.88 583.17,446.30 583.93,445.02 583.55,443.96 584.15,443.39 585.48,442.97 586.69,443.50 588.66,442.95 590.58,443.31 590.69,443.82 592.88,444.46 593.22,443.93 591.86,443.86 590.76,442.55 590.93,441.86 591.50,441.27 595.61,440.00 592.87,438.78 593.58,436.71 597.15,434.16 603.09,432.32 608.41,432.30 616.03,434.58 621.56,437.92 621.71,439.40 623.10,439.98 622.89,440.60 623.58,440.95 628.50,439.51 631.36,440.01 633.41,439.14 634.62,437.99 636.46,437.48 649.68,438.97 651.49,437.46 655.23,436.89 659.68,436.89 664.48,434.96 665.11,434.04 677.23,431.34 682.81,432.73 684.15,433.48 689.68,432.87 695.39,433.77 711.78,438.60 719.72,442.50 723.50,446.19 723.52,447.43 722.06,448.25 724.99,451.07 725.12,452.63 727.82,455.46 728.14,456.96 727.51,457.19 729.15,457.61 729.63,458.47 734.65,461.53 739.04,462.76 739.98,462.62 743.75,463.47 746.11,463.25 749.23,464.37 751.83,464.54 755.65,463.63 756.81,462.56 755.40,461.39 755.15,459.62 754.60,459.64 755.47,458.87 755.82,459.23 756.19,458.88 756.20,459.66 757.25,459.58 756.58,459.97 757.48,459.50 758.22,459.79 758.19,460.13 758.96,460.19 758.72,460.77 759.52,460.83 761.52,462.52 763.79,463.42 764.99,464.84 763.19,465.84 765.07,467.75 768.54,469.65 768.54,470.06 771.55,470.62 771.91,470.16 771.36,469.10 772.83,468.92 773.99,469.47 774.69,470.77 772.90,471.28 778.12,474.55 779.86,477.52 781.34,478.18 783.27,480.27 784.60,480.69 789.37,480.91 792.30,482.19 792.74,482.84 794.98,483.53 797.75,483.11 808.01,484.84 810.45,485.97 811.42,485.96 812.35,486.71 816.93,487.55 817.96,488.16 820.10,488.13 823.12,489.46 828.22,495.17 829.52,495.86 831.15,495.84 834.55,497.19 837.13,497.54 838.85,499.23 839.60,501.88 842.31,502.20 842.22,502.64 843.29,502.94 847.36,507.00 857.17,512.34 859.48,515.07 860.90,515.62 864.32,518.26 868.68,522.95 876.52,528.49 878.32,530.94 883.95,533.37 885.54,536.64 886.65,537.60 893.00,540.19 896.73,542.35 899.64,547.91 901.41,549.05 904.43,550.03 910.25,550.59 915.78,553.05 921.40,554.73 922.91,558.20 923.59,563.19 927.84,566.13 929.61,564.73 931.61,564.33 936.63,566.63 940.12,566.55 944.11,569.91 948.38,569.23 951.65,570.22 955.81,570.13 962.98,570.90 964.37,571.67 970.26,577.29 970.91,577.31 972.04,576.34 975.30,576.37 977.76,579.38 979.64,586.68 982.56,589.84 984.54,590.19 986.53,589.44 988.22,589.62 992.12,590.52 993.75,591.38 999.09,592.24 1000.97,593.70 1001.13,593.21 1001.16,593.64 1001.97,593.59 1002.63,594.18 1004.47,597.09 1007.17,603.70 1010.08,617.16 1010.41,616.52 1010.26,617.32 1012.45,618.39 1014.83,623.40 1015.89,627.21 1015.15,629.17 1015.69,629.62 1019.22,630.41 1022.30,632.00 1024.46,631.41 1024.66,631.09 1023.70,630.92 1023.55,630.45 1025.83,629.20 1028.17,630.11 1030.71,629.32 1031.98,630.94 1033.07,630.07 1034.87,630.63 1037.21,629.64 1037.51,630.41 1038.79,630.07 1040.98,631.04 1041.47,631.78 1042.24,631.09 1044.26,631.16 1045.64,631.92 1047.24,631.75 1048.20,632.83 1051.07,632.52 1052.38,633.17 1053.46,634.67 1057.97,636.32 1059.40,636.43 1060.53,635.05 1063.39,635.57 1063.06,634.27 1063.87,633.92 1063.18,634.33 1063.61,635.57 1062.21,635.72 1060.57,635.19 1060.01,636.42 1058.60,636.67 1053.52,635.00 1052.40,633.34 1051.38,632.92 1047.75,633.03 1047.12,631.94 1045.67,632.12 1044.35,631.34 1042.59,631.33 1041.44,631.96 1038.83,630.32 1037.43,630.59 1037.02,629.76 1034.87,630.99 1033.06,630.27 1031.95,631.21 1030.32,629.50 1028.72,630.44 1025.33,629.60 1023.91,630.74 1025.15,630.80 1025.04,631.62 1022.26,632.38 1019.00,630.43 1016.64,630.34 1015.85,631.47 1016.83,632.95 1016.20,633.55 1019.79,637.40 1020.54,637.00 1019.37,634.13 1023.49,634.36 1024.35,635.20 1023.63,635.37 1023.25,636.52 1020.59,637.11 1022.26,637.86 1021.80,639.13 1021.25,638.83 1021.72,639.59 1020.56,637.18 1020.56,637.78 1020.02,637.66 1023.28,642.29 1023.65,641.71 1025.05,653.01 1024.61,656.41 1020.50,664.20 1017.50,667.26 1016.14,667.50 1015.46,666.81 1012.11,669.46 1010.88,671.18 1010.41,674.42 1007.72,678.63 1004.48,680.08 1000.29,685.06 999.57,685.53 995.69,686.05 993.35,687.35 990.45,688.14 988.19,690.12 984.65,691.82 982.66,692.24 981.01,693.86 975.44,697.01 967.73,699.33 963.96,698.92 959.02,700.35 956.61,702.09 953.55,705.34 951.54,706.06 950.97,705.81 945.60,708.04 943.65,708.19 941.70,709.40 940.16,709.39 939.21,708.71 939.96,708.63 938.52,708.50 933.59,709.53 930.73,709.56 921.95,715.42 917.37,717.05 915.29,717.17 911.23,716.87 907.24,714.01 905.35,714.17 904.31,713.65 900.23,714.34 895.20,714.13 893.34,712.27 889.95,711.10 887.63,711.25 887.16,710.69 885.92,710.46 882.19,711.61 880.95,711.49 879.95,710.76 875.53,709.53 870.14,705.07 865.58,704.02 862.24,705.88 856.46,707.91 854.28,708.08 852.47,707.51 851.11,706.24 848.23,705.92 845.11,707.81 841.08,708.73 837.80,709.08 837.01,708.69 833.41,708.74 832.77,708.33 828.56,710.50 825.50,710.97 824.83,710.51 817.96,714.60 815.24,714.71 813.13,713.01 811.84,713.07 809.65,714.83 805.45,716.90 802.13,717.13 801.36,716.78 798.70,717.26 796.76,716.99 795.99,716.40 793.74,717.42 791.46,716.69 788.66,714.98 782.40,715.41 781.91,715.16 782.29,715.04 779.77,714.40 778.39,714.45 769.66,712.59 765.22,712.30 765.24,712.76 764.86,712.21 761.76,712.26 760.58,710.26 756.73,709.56 755.01,707.71 754.23,706.50 755.23,703.40 754.23,703.60 752.84,703.18 749.68,703.57 748.19,702.03 746.24,703.40 743.73,706.53 743.23,707.96 742.15,708.74 738.37,709.86 736.35,709.36 735.14,708.59 734.47,707.07 730.55,705.89 728.86,704.29 721.92,702.91 721.43,702.39 721.83,701.43 711.17,701.17 705.45,699.42 704.19,698.61 703.73,697.85 704.27,697.84 703.21,696.82 703.70,696.86 703.77,694.36 702.55,692.52 693.61,688.50 688.99,687.41 681.70,686.67 679.16,685.50 678.92,686.61 678.48,685.35 676.37,686.47 675.99,687.01 676.40,687.34 672.77,691.83 670.42,693.16 666.10,694.65 661.45,694.35 660.48,693.94 659.88,693.03 660.25,692.84 658.09,692.20 657.96,691.27 657.85,691.90 657.26,691.43 657.54,690.17 658.46,690.30 650.86,687.44 650.05,686.07 643.28,679.99 642.44,677.24 643.31,673.59 642.23,669.05 638.21,664.81 631.30,661.59 618.82,666.04 609.69,668.22 605.13,668.62 598.60,667.51 594.85,665.07 585.60,662.91 584.61,662.14 584.75,661.40 580.93,659.42 579.92,657.69 580.84,657.02 578.63,655.90 577.48,654.44 575.90,653.57 575.33,651.85 574.10,651.01 572.93,648.99 573.30,645.98 575.05,642.77 576.75,642.06 580.64,642.83 581.08,642.34 579.63,640.84 578.36,640.89 575.47,642.06 571.61,641.72 569.83,640.86 569.59,640.10 570.31,639.63 569.68,639.62 569.87,639.11 567.97,637.41 563.10,637.05 563.37,638.66 560.62,641.99 558.30,643.80 553.44,646.66 548.14,647.45 537.01,647.28 533.58,646.48 532.35,645.25 531.40,645.96 528.58,645.94 525.81,646.92 523.16,647.34 522.15,646.95 521.61,647.44 519.41,647.66 511.10,646.42 510.73,645.95 505.67,645.09 500.74,644.86 492.63,645.57 484.46,645.49 483.61,644.90 481.79,645.21 473.61,644.68 462.39,642.86 459.91,643.12 458.04,642.54 454.52,642.30 449.46,644.37 446.03,645.04 443.76,645.92 443.06,646.67 433.49,648.59 432.77,649.40 430.41,649.96 430.09,650.41 430.65,650.41 429.74,651.04 423.04,652.63 422.26,653.20 416.50,653.20 415.83,653.90 412.47,653.93 411.86,654.62 410.30,654.70 409.80,655.14 403.27,655.35 402.76,656.44 397.75,657.11 396.82,658.47 395.38,659.00 394.67,658.83 393.11,659.73 392.10,661.28 390.47,661.09 390.53,660.59 389.88,660.33 390.00,660.71 388.70,660.95 388.59,661.64 387.09,661.74 387.01,662.41 384.58,662.23 383.18,662.62 379.71,664.74 380.07,665.08 379.22,664.93 379.55,665.82 379.12,666.31 375.76,667.96 376.17,668.55 373.64,670.47 367.56,671.96 368.22,672.72 367.40,672.11 366.01,672.44 363.59,674.34 359.27,675.30 357.67,676.08 356.90,675.86 357.24,676.07 353.47,677.47 352.35,678.62 349.59,679.82 349.09,680.27 349.51,680.55 347.42,680.52 346.85,681.60 342.51,683.64 339.72,684.35 338.34,685.40 332.41,686.62 329.41,687.65 327.91,689.11 325.87,689.11 324.78,689.99 323.46,689.92 322.88,691.40 324.84,692.61 324.62,693.47 323.62,692.93 324.06,696.88 318.40,702.54 313.24,704.29 304.49,705.01 301.17,705.97 297.25,706.35 290.55,706.38 279.92,705.44 272.91,702.56 259.68,700.81 252.73,698.80 251.17,697.70 250.34,697.96 247.64,697.37 247.24,696.88 245.74,698.68 243.97,698.67 244.55,699.23 243.73,699.34 244.10,700.34 241.77,700.36 241.69,701.41 240.93,700.89 240.90,701.30 239.17,701.96 236.75,701.58 235.65,702.17 235.51,701.78 231.96,702.24 230.70,701.80 230.16,702.27 229.92,701.89 227.54,702.17 226.49,701.75 222.76,701.56 220.42,701.85 219.44,701.56 218.65,701.97 213.18,700.43 210.69,700.80 208.47,700.18 206.78,700.33 202.41,698.95 201.78,699.19 202.32,699.15 201.88,699.66 201.00,699.79 195.41,698.82 187.56,696.73 185.26,697.01 181.03,696.29 178.65,695.73 178.55,695.37 177.56,695.88 175.72,695.67 175.53,696.38 172.56,696.11 172.14,696.56 166.97,694.68 166.45,694.08 166.10,694.52 163.75,693.86 163.45,694.63 161.37,694.71 156.04,692.90 154.16,692.96 152.68,692.48 152.64,692.06 150.33,691.90 148.47,690.65 146.64,690.85 146.53,690.12 143.38,689.08 142.77,689.37 140.29,688.35 139.86,687.74 139.13,688.08 136.26,687.60 131.66,685.35 112.04,677.75 109.25,675.86 108.44,675.86 108.58,675.47 106.14,673.72 105.96,672.63 103.80,672.14 103.32,670.89 100.15,668.61 99.52,666.94 100.75,666.08 100.32,665.31 97.97,663.73 96.41,661.86 96.43,660.37 93.36,657.43 92.18,654.88 92.16,652.76 91.66,652.78 94.56,650.80 96.42,651.75 97.51,651.53 96.60,649.50 96.99,647.35 96.54,646.21 95.42,645.38 96.06,644.81 95.89,644.04 94.24,642.14 94.68,641.82 93.92,640.83 92.62,640.04 93.07,639.39 91.63,639.24 90.00,636.62 88.54,636.77 87.76,636.19 87.81,635.21 86.61,634.01 85.22,633.58 85.11,632.77 84.67,633.10 84.33,632.46 83.65,632.44 84.13,631.92 82.55,630.93 82.90,630.50 81.42,630.22 81.42,629.66 80.42,629.03 79.57,629.14 78.50,628.21 79.04,627.58 76.69,626.65 76.98,625.79 77.79,625.72 77.00,625.20 76.87,624.34 78.29,623.73 78.02,623.37 79.75,622.91 78.29,622.03 78.91,621.76 79.03,620.93 77.25,621.11 76.86,621.70 76.01,621.51 74.12,619.11 74.02,618.57 74.95,618.04 73.92,617.75 73.74,616.99 74.01,616.60 74.97,616.64 75.32,615.95 73.70,616.02 73.22,614.81 72.55,614.87 72.73,615.28 71.60,616.01 70.60,615.88 69.54,614.98 69.58,614.61 70.37,614.55 69.74,614.00 70.06,613.19 68.91,613.30 68.57,612.60 68.24,613.53 67.56,613.65 65.63,612.34 64.85,613.04 65.26,613.54 64.09,613.54 62.47,612.76 61.72,614.16 60.55,614.71 58.42,612.44 57.60,613.51 56.00,612.49 56.87,610.62 57.15,611.17 57.38,610.68 57.93,611.01 58.41,610.69 58.68,611.08 59.10,608.05 61.26,606.00 62.42,605.89 63.76,606.46 65.52,605.50 66.57,605.98 67.61,605.49 68.91,605.83 69.29,606.44 70.03,606.16 68.77,604.19 69.11,601.10 69.84,600.46 71.78,600.72 72.77,599.61 74.02,600.00 74.52,599.28 76.11,599.09 74.98,599.01 74.12,598.27 74.30,596.78 75.13,595.80 86.89,596.31 86.07,592.82 86.92,591.49 85.64,586.92 86.26,585.95 87.07,585.91 86.59,581.71 87.30,580.83 85.87,575.62 86.04,573.64 87.75,571.86 90.01,564.52 87.93,564.33 85.01,562.79 81.04,563.82 73.66,562.85 71.80,563.48 71.37,563.19 71.03,563.63 71.22,563.22 70.44,563.65 69.81,563.21 72.63,562.67 76.35,562.78 77.71,563.21 78.79,562.57 79.19,562.85 79.66,562.27 79.95,562.64 82.25,562.93 84.01,561.89 85.32,561.90 86.64,562.91 87.59,563.21 88.12,562.87 88.33,563.25 88.44,562.45 89.71,561.84 91.87,561.28 93.43,561.52 94.67,560.76 94.88,559.69 95.53,559.41 99.57,550.91 103.88,548.73 107.03,549.20 114.50,547.82 117.70,548.14 121.72,549.90 124.22,550.41 125.12,551.76 125.45,550.30 127.31,548.28 128.58,547.99 130.75,546.31 133.23,542.93 134.76,539.58 132.24,536.16 132.77,532.99 131.73,530.29 131.82,529.05 132.69,528.45 132.82,522.75 133.77,522.07 132.84,522.51 132.10,521.90 130.92,522.07 130.54,521.50 130.08,521.89 129.29,521.54 130.20,521.76 130.49,521.27 130.99,521.87 131.22,521.58 132.81,521.96 133.36,521.41 133.58,519.40 134.83,518.52 135.10,515.39 136.66,513.65 136.49,512.11 138.78,509.37 136.80,503.30 137.16,502.80 140.20,502.58 140.66,501.51 140.14,502.46 138.87,502.37 139.38,501.62 139.15,502.00 138.78,501.52 138.73,502.01 138.51,501.13 137.89,501.71 137.73,501.11 137.51,502.14 135.75,501.67 137.21,501.49 137.39,500.92 136.82,500.56 137.74,499.82 137.65,500.95 138.00,499.71 138.47,500.82 137.94,500.98 139.42,501.26 138.20,499.67 138.58,498.91 137.48,499.16 138.74,498.32 137.12,498.44 137.87,498.12 137.11,497.97 137.86,497.89 137.67,497.04 141.46,501.18 138.17,497.51 138.60,496.94 137.98,496.15 138.13,494.94 137.23,493.88 137.61,493.60 136.90,493.75 136.36,493.27 135.60,490.96 135.61,489.36 136.76,486.61 140.27,486.59 136.09,486.49 137.06,486.42 137.30,485.99 137.71,486.33 139.06,486.03 138.36,485.89 138.68,485.09 139.34,485.23 139.31,485.85 139.91,485.38 140.58,486.77 140.31,484.98 140.66,485.18 141.56,483.16 150.88,474.72 158.60,464.63 162.72,460.78 167.62,457.50 171.78,455.98 178.14,454.58 198.74,452.74 199.90,452.02 200.89,452.21 201.96,451.69 202.94,449.20 200.05,447.83 197.16,445.21 193.91,443.60 191.86,443.87 192.60,443.15 192.09,442.87 190.17,442.82 187.50,444.64 185.96,444.14 187.00,443.06 187.00,441.90 185.06,443.79 184.75,441.99 183.55,442.81 182.34,442.92 182.50,441.90 180.48,440.52 181.68,439.57 180.04,439.61 179.45,439.21 180.04,438.32 177.60,438.41 173.65,437.63 176.08,436.08 175.72,435.22 173.79,433.83 170.29,433.72 169.99,434.59 171.92,434.50 172.17,434.89 171.88,435.46 169.88,436.10 164.76,433.01 160.77,432.30 158.31,431.16 155.16,430.55 153.95,428.52 151.93,427.42 149.68,427.34 147.43,428.65 146.79,427.91 147.00,426.77 144.39,426.28 143.56,425.54 141.39,425.94 136.57,424.64 131.42,424.20 127.11,422.51 124.10,421.59 123.53,421.80 118.69,420.12 116.21,418.90 113.89,415.27 112.55,414.19 112.82,412.08 112.25,410.93 108.00,409.17 112.63,410.58 113.45,414.22 117.51,419.13 126.46,421.76 132.19,423.99 137.26,424.24 142.13,425.62 147.18,424.41 146.69,423.40 144.92,423.00 144.27,421.59 144.97,421.11 147.39,420.80 147.98,419.80 146.25,418.89 147.62,417.99 149.16,418.11 150.93,419.34 153.02,419.51 155.15,421.12 157.42,421.78 158.07,420.97 157.64,419.61 160.16,416.77 163.94,416.31 166.55,414.71 168.26,414.57 169.55,414.97 172.75,414.03 176.83,410.69 180.75,411.94 183.25,410.46 186.20,411.20 193.56,410.06 195.59,410.21 197.73,411.36 198.93,413.39 202.21,414.37 205.57,411.68 209.80,410.61 210.05,409.02 209.10,409.27 209.14,409.91 207.71,409.30 207.28,410.19 206.69,409.56 206.97,409.08 205.81,408.66 205.19,409.15 205.84,409.63 205.15,410.36 204.00,409.63 203.83,408.78 202.85,409.08 202.04,408.32 202.39,407.96 202.91,408.75 202.72,408.10 203.53,408.03 203.40,406.76 204.99,405.12 207.97,402.64 212.56,399.87 211.57,400.32 211.32,399.54 211.91,399.48 211.11,399.34 210.99,398.82 213.26,399.33 213.84,398.08 214.46,398.08 214.85,397.46 214.27,396.96 217.60,397.28 213.29,399.58 219.01,396.68 237.83,385.57 221.67,394.87 220.25,395.23 217.58,394.40 216.93,394.78 214.56,391.23 215.26,391.53 217.27,390.24 217.25,389.68 217.63,390.19 220.77,389.99 220.89,387.63 221.59,387.87 222.56,390.15 224.48,390.99 223.08,388.39 223.82,384.20 224.08,383.97 224.36,387.63 225.93,388.78 227.07,385.68 227.02,382.98 226.16,381.72 227.56,379.73 228.82,380.63 229.07,383.41 231.06,384.39 233.05,386.91 233.85,385.35 234.14,385.93 235.01,385.58 235.52,384.15 235.04,383.02 236.69,381.47 236.26,380.41 236.61,379.08 237.14,379.09 238.22,382.01 238.39,385.32 243.62,382.51 249.09,377.85 250.67,376.16 249.38,377.27 248.43,375.21 249.00,375.23 251.40,373.13 253.61,372.56 254.79,371.57 253.79,369.70 255.19,370.80 256.72,369.67 256.35,371.28 250.68,376.13 260.80,368.23 258.92,368.81 258.04,368.15 256.33,365.08 254.40,363.68 254.10,361.03 254.57,360.89 252.81,359.58 251.42,359.84 249.73,359.52 249.54,358.87 248.34,358.32 244.27,357.55 238.73,354.22 235.67,350.89 235.96,349.78 238.36,347.45 241.93,346.36 244.62,346.83 245.25,347.56 244.04,349.26 245.68,349.78 246.99,352.73 247.83,353.13 249.54,351.17 249.89,349.63 249.23,348.07 249.96,347.57 250.68,348.14 251.19,350.35 250.74,352.60 251.20,353.27 253.15,354.64 256.63,355.19 258.38,357.02 256.96,359.31 257.30,360.01 258.87,361.52 263.29,363.74 262.80,365.74 260.95,367.16 260.83,368.05 263.48,364.83 266.65,362.50 274.77,352.05 273.33,351.62 272.77,350.35 271.75,350.66 271.23,350.26 271.79,350.48 272.19,350.07 272.05,347.31 272.38,349.64 274.62,351.59 277.04,349.10 279.69,347.94 281.06,343.18 280.21,340.07 279.93,340.49 279.31,340.26 279.53,339.89 278.96,340.05 278.20,339.16 278.99,337.03 281.62,335.69 283.51,335.57 284.99,336.14 289.52,334.59 297.17,332.94 297.32,330.84 296.38,328.79 297.56,329.05 298.25,331.88 297.69,332.76 308.15,330.82 312.67,332.05 315.69,331.88 319.96,332.72 320.41,331.65 321.35,331.18 324.15,331.43 324.90,330.58 324.44,330.45 324.69,329.41 327.59,328.37 328.42,326.74 329.25,326.57 329.43,323.98 328.38,323.63 328.01,322.84 325.67,322.10 325.26,319.09 325.80,319.46 326.29,322.27 327.78,322.09 329.50,322.61 330.57,324.11 331.82,322.77 331.05,320.99 331.94,321.58 332.41,320.54 336.57,318.95 336.18,316.71 337.05,318.04 336.88,319.15 334.41,320.93 332.99,321.36 333.59,322.83 332.11,324.53 332.39,325.78 330.24,326.55 330.85,327.22 330.41,328.43 326.72,330.80 325.16,330.97 329.93,331.04 333.61,332.70 336.42,329.97 339.55,329.33 343.43,329.95 345.82,330.85 348.66,331.08 350.25,332.04 356.47,330.12 357.54,328.90 357.26,327.51 357.92,325.02 358.90,323.94 357.62,323.86 356.36,322.79 355.43,321.43 355.50,319.78 358.13,316.43 360.14,315.77 361.93,314.49 363.77,311.94 363.59,311.08 363.03,310.28 361.50,310.87 358.98,310.66 357.46,309.53 358.35,308.15 360.90,306.46 361.07,305.43 356.72,306.46 355.53,306.25 354.31,305.29 353.54,303.63 354.19,301.25 355.88,301.46 356.87,300.30 356.62,299.25 357.12,299.23 355.53,298.33 352.69,297.70 352.16,296.35 353.51,294.78 352.18,293.18 346.91,291.16 346.53,289.09 347.43,287.63 348.97,286.68 348.03,285.80 346.79,285.95 345.57,284.68 346.84,285.87 348.03,285.72 349.05,286.52 347.32,287.94 346.70,289.16 347.13,291.16 352.17,292.87 353.81,294.45 353.07,292.91 354.43,294.83 353.35,296.78 353.69,297.63 354.92,298.14 356.94,298.18 358.08,299.33 357.82,300.79 355.78,302.03 354.35,303.77 354.68,303.61 355.64,305.14 356.09,304.92 356.60,305.61 360.63,304.03 362.23,304.22 363.11,304.87 363.52,307.10 362.62,306.56 361.39,307.12 359.64,308.72 359.87,309.66 359.90,309.80"/>
    <polyline fill="none" stroke="#1f6f8b" stroke-width="2.20" stroke-opacity="0.35" stroke-linejoin="round" stroke-linecap="round" points="359.90,309.80 361.36,310.21 361.93,309.69 363.55,309.45 363.26,309.26 364.61,309.27 365.76,311.12 364.77,312.81 364.88,314.15 362.92,315.15 362.55,315.56 363.06,315.74 362.24,316.38 360.71,316.53 360.70,318.79 358.78,319.98 359.74,320.66 358.97,321.32 360.22,320.90 359.57,322.74 360.71,323.10 362.45,325.28 361.96,327.27 362.64,328.64 365.81,331.02 367.55,331.70 370.03,331.57 371.32,332.08 373.52,335.61 380.91,333.23 383.82,334.37 384.94,335.88 390.13,336.25 395.62,334.70 396.19,333.14 395.89,334.62 398.30,333.07 400.78,332.97 399.40,332.37 399.66,331.83 400.60,331.70 400.88,332.08 401.59,331.42 402.53,331.40 402.18,331.75 402.67,331.73 402.84,332.31 402.15,332.07 401.43,332.47 401.00,332.10 401.05,332.95 403.83,332.44 403.79,331.91 404.26,332.22 409.20,328.69 413.00,327.61 417.67,327.53 426.10,323.65 429.95,323.03 434.04,322.98 441.16,320.11 450.65,320.22 452.36,320.91 455.34,320.26 456.81,320.83 455.39,321.85 451.07,322.64 440.94,320.46 434.61,323.28 426.29,324.01 419.45,327.50 415.33,328.34 411.06,328.58 408.98,329.27 406.28,331.09 405.06,332.14 405.54,332.42 404.70,332.44 400.39,336.90 398.38,336.82 395.12,339.16 391.19,339.24 386.63,340.46 383.38,340.22 385.81,340.99 385.18,341.54 385.82,341.67 388.71,340.37 391.48,339.78 392.87,340.01 391.45,341.34 388.76,341.96 384.73,341.75 380.15,340.76 377.36,340.80 375.09,340.19 377.05,340.33 374.17,338.82 373.72,338.93 374.51,339.31 374.49,339.96 371.32,339.40 365.52,340.43 365.36,339.73 365.15,340.28 363.36,340.12 357.70,338.72 357.51,338.03 358.03,337.86 356.31,337.37 357.13,338.27 355.50,338.53 350.65,337.62 347.44,336.31 341.37,336.96 335.63,336.98 332.71,335.89 331.00,334.24 333.19,336.57 339.54,340.29 344.11,343.98 343.48,343.43 344.41,343.68 343.34,343.18 343.72,341.63 344.66,340.83 346.93,340.25 356.32,342.04 360.88,343.59 359.17,342.81 361.51,343.18 360.02,342.68 360.87,342.76 362.14,343.34 360.81,343.28 361.93,343.54 364.13,342.59 365.83,343.28 366.59,345.14 368.04,346.40 367.62,347.39 366.37,347.73 365.65,347.35 364.48,348.97 361.29,350.05 357.14,350.73 356.57,350.70 358.85,350.48 353.07,350.62 349.42,351.44 349.71,351.64 347.95,352.44 347.58,353.28 348.15,353.02 348.83,353.44 349.41,354.63 349.11,355.36 350.07,354.67 349.90,354.28 350.36,354.79 351.25,354.52 351.52,355.32 352.54,354.29 352.96,354.53 352.46,354.81 353.38,354.67 353.69,355.12 355.03,354.65 355.46,355.38 356.97,353.58 356.50,353.04 356.26,353.59 355.83,353.47 355.72,352.15 356.96,351.92 356.93,352.95 359.98,353.31 359.30,353.28 360.35,353.63 360.60,354.61 361.25,354.80 360.63,354.65 360.83,355.00 361.16,355.30 361.72,355.02 361.26,355.29 362.04,355.87 363.60,356.01 364.13,355.38 363.90,356.13 364.76,356.36 365.55,356.48 365.11,356.07 365.63,355.87 366.00,356.56 367.15,355.87 368.71,356.89 368.53,356.45 369.18,356.44 370.12,358.23 370.87,358.21 370.69,358.53 371.82,359.20 372.80,359.31 372.69,358.98 373.16,359.61 375.13,359.62 377.50,361.52 377.06,360.95 377.81,361.02 377.83,360.57 378.75,360.41 380.22,360.92 380.78,361.89 380.20,362.03 380.03,361.49 379.61,361.87 380.15,363.12 379.33,364.28 367.47,361.77 391.66,367.15 400.76,368.84 400.97,367.76 404.80,366.60 407.67,366.09 409.64,366.54 413.62,365.97 416.04,365.00 420.02,365.80 423.15,365.32 425.54,366.20 433.47,365.75 433.91,365.60 432.79,365.50 432.62,365.03 433.61,363.93 433.11,362.97 434.35,362.68 436.21,362.87 437.27,364.13 440.79,364.83 444.10,362.71 444.89,361.50 444.30,360.10 445.13,360.56 446.80,358.68 445.51,361.51 447.02,362.84 445.76,363.55 445.02,365.44 445.35,366.01 445.93,366.09 445.72,364.72 446.54,364.28 448.50,363.87 450.82,364.25 452.28,364.98 452.77,365.87 452.07,367.02 450.60,366.72 450.85,368.05 452.96,368.11 452.44,367.93 452.78,366.23 454.00,365.51 454.93,366.73 456.76,367.23 456.42,368.21 460.08,371.17 460.80,371.19 460.18,370.91 460.41,370.49 461.84,370.45 462.93,369.86 465.54,371.35 466.60,371.15 464.87,369.68 465.24,368.17 466.49,367.72 469.96,368.17 466.55,366.60 466.12,365.07 466.89,365.44 468.13,365.18 468.53,364.03 469.93,363.92 470.74,362.60 471.76,362.63 472.86,363.55 475.05,367.97 473.85,368.55 473.19,369.64 474.38,375.62 473.41,376.90 474.73,377.15 474.83,376.69 476.14,376.30 481.63,376.49 482.50,376.78 482.95,377.70 482.26,378.17 480.66,378.24 478.73,379.53 478.25,379.20 477.69,379.44 477.82,383.82 476.12,381.95 474.90,381.78 473.11,380.69 470.86,382.22 470.00,382.11 468.36,384.38 467.69,383.66 465.64,384.07 465.06,383.09 464.21,383.19 460.05,384.70 460.03,385.30 459.73,384.93 459.47,385.30 459.70,386.00 459.31,385.32 455.94,387.63 449.52,389.80 446.25,389.89 444.13,388.88 442.93,387.65 442.20,390.80 441.09,392.17 436.26,393.22 428.66,396.10 424.51,398.23 419.75,400.96 419.51,401.40 420.82,401.44 421.21,402.03 419.99,403.34 420.21,403.76 419.43,403.07 418.48,403.42 418.43,403.79 419.15,403.69 419.29,404.42 415.80,405.11 418.30,403.50 417.33,402.87 412.17,405.10 412.05,406.03 410.78,406.39 411.28,405.98 410.78,405.51 403.58,408.36 400.45,410.14 396.42,414.07 397.12,414.83 398.33,414.98 398.93,415.88 397.46,417.49 408.17,419.56 413.35,416.80 416.78,416.02 425.18,416.42 428.45,417.53 430.46,418.78 430.60,418.44 426.58,416.61 429.54,417.08 430.61,416.49 430.90,417.38 432.15,416.70 432.40,416.01 434.72,415.80 434.82,415.07 436.04,414.61 438.20,414.80 438.08,414.42 440.45,413.38 440.90,412.64 441.68,412.73 442.29,411.47 443.74,411.22 444.36,410.53 445.50,410.93 443.82,412.00 443.02,411.57 441.73,413.34 439.50,414.32 440.55,414.63 439.25,414.61 438.39,415.86 437.18,415.86 437.00,415.40 435.91,415.74 434.76,417.18 436.28,417.21 436.38,417.56 435.69,418.00 435.49,417.57 434.96,417.94 433.54,417.81 434.22,418.71 433.46,418.73 433.13,420.05 430.82,418.90 436.28,422.35 439.23,425.19 441.03,426.05 441.82,427.19 444.15,428.38 446.90,428.98 449.02,430.82 450.67,430.82 452.29,429.10 455.43,429.04 457.58,427.55 459.58,427.81 461.61,428.73 465.40,431.11 469.59,435.12 472.24,440.34 472.53,442.13 472.04,442.61 473.06,446.32 472.69,449.54 471.71,451.32 470.32,451.85 469.07,451.65 468.80,452.06 468.85,453.64 467.68,454.99 468.66,459.22 468.52,463.12 467.84,464.91 466.55,465.41 466.06,466.22 469.66,466.24 471.64,467.03 467.67,466.78 467.36,467.87 467.23,466.68 466.77,466.97 465.94,466.49 465.33,467.24 463.69,467.09 463.53,467.81 463.26,467.14 462.16,467.30 461.93,468.20 461.32,467.55 460.14,468.33 461.13,469.79 459.73,468.74 459.45,470.34 459.25,469.46 458.78,469.96 458.85,468.51 457.21,469.05 459.72,471.36 463.19,473.16 464.54,474.85 465.38,474.44 469.20,475.52 471.89,474.95 473.27,475.50 474.61,476.56 475.55,479.69 477.15,480.24 479.49,480.02 481.51,482.32 484.21,482.36 489.82,480.97 497.24,482.03 500.35,480.93 501.52,481.06 503.69,479.92 507.81,479.50 510.65,475.01 516.22,474.22 518.08,471.90 519.91,471.11 522.70,471.43 522.85,469.09 524.29,468.46 524.63,467.10 527.41,462.92 530.38,460.29 535.32,458.51 536.63,457.59 538.87,457.12 540.10,456.23 550.69,453.26 556.33,453.36 558.14,452.90 560.74,453.34 561.32,452.38 564.70,451.64 566.10,452.38 566.89,451.99 568.94,452.37 570.29,453.45 569.97,454.33 572.39,454.94 575.67,452.85 576.05,450.38 577.69,447.88 583.17,446.30 583.93,445.02 583.55,443.96 584.15,443.39 585.48,442.97 586.69,443.50 588.66,442.95 590.58,443.31 590.69,443.82 592.88,444.46 593.22,443.93 591.86,443.86 590.76,442.55 590.93,441.86 591.50,441.27 595.61,440.00 592.87,438.78 593.58,436.71 597.15,434.16 603.09,432.32 608.41,432.30 616.03,434.58 621.56,437.92 621.71,439.40 623.10,439.98 622.89,440.60 623.58,440.95 628.50,439.51 631.36,440.01 633.41,439.14 634.62,437.99 636.46,437.48 649.68,438.97 651.49,437.46 655.23,436.89 659.68,436.89 664.48,434.96 665.11,434.04 677.23,431.34 682.81,432.73 684.15,433.48 689.68,432.87 695.39,433.77 711.78,438.60 719.72,442.50 723.50,446.19 723.52,447.43 722.06,448.25 724.99,451.07 725.12,452.63 727.82,455.46 728.14,456.96 727.51,457.19 729.15,457.61 729.63,458.47 734.65,461.53 739.04,462.76 739.98,462.62 743.75,463.47 746.11,463.25 749.23,464.37 751.83,464.54 755.65,463.63 756.81,462.56 755.40,461.39 755.15,459.62 754.60,459.64 755.47,458.87 755.82,459.23 756.19,458.88 756.20,459.66 757.25,459.58 756.58,459.97 757.48,459.50 758.22,459.79 758.19,460.13 758.96,460.19 758.72,460.77 759.52,460.83 761.52,462.52 763.79,463.42 764.99,464.84 763.19,465.84 765.07,467.75 768.54,469.65 768.54,470.06 771.55,470.62 771.91,470.16 771.36,469.10 772.83,468.92 773.99,469.47 774.69,470.77 772.90,471.28 778.12,474.55 779.86,477.52 781.34,478.18 783.27,480.27 784.60,480.69 789.37,480.91 792.30,482.19 792.74,482.84 794.98,483.53 797.75,483.11 808.01,484.84 810.45,485.97 811.42,485.96 812.35,486.71 816.93,487.55 817.96,488.16 820.10,488.13 823.12,489.46 828.22,495.17 829.52,495.86 831.15,495.84 834.55,497.19 837.13,497.54 838.85,499.23 839.60,501.88 842.31,502.20 842.22,502.64 843.29,502.94 847.36,507.00 857.17,512.34 859.48,515.07 860.90,515.62 864.32,518.26 868.68,522.95 876.52,528.49 878.32,530.94 883.95,533.37 885.54,536.64 886.65,537.60 893.00,540.19 896.73,542.35 899.64,547.91 901.41,549.05 904.43,550.03 910.25,550.59 915.78,553.05 921.40,554.73 922.91,558.20 923.59,563.19 927.84,566.13 929.61,564.73 931.61,564.33 936.63,566.63 940.12,566.55 944.11,569.91 948.38,569.23 951.65,570.22 955.81,570.13 962.98,570.90 964.37,571.67 970.26,577.29 970.91,577.31 972.04,576.34 975.30,576.37 977.76,579.38 979.64,586.68 982.56,589.84 984.54,590.19 986.53,589.44 988.22,589.62 992.12,590.52 993.75,591.38 999.09,592.24 1000.97,593.70 1001.13,593.21 1001.16,593.64 1001.97,593.59 1002.63,594.18 1004.47,597.09 1007.17,603.70 1010.08,617.16 1010.41,616.52 1010.26,617.32 1012.45,618.39 1014.83,623.40 1015.89,627.21 1015.15,629.17 1015.69,629.62 1019.22,630.41 1022.30,632.00 1024.46,631.41 1024.66,631.09 1023.70,630.92 1023.55,630.45 1025.83,629.20 1028.17,630.11 1030.71,629.32 1031.98,630.94 1033.07,630.07 1034.87,630.63 1037.21,629.64 1037.51,630.41 1038.79,630.07 1040.98,631.04 1041.47,631.78 1042.24,631.09 1044.26,631.16 1045.64,631.92 1047.24,631.75 1048.20,632.83 1051.07,632.52 1052.38,633.17 1053.46,634.67 1057.97,636.32 1059.40,636.43 1060.53,635.05 1063.39,635.57 1063.06,634.27 1063.87,633.92 1063.18,634.33 1063.61,635.57 1062.21,635.72 1060.57,635.19 1060.01,636.42 1058.60,636.67 1053.52,635.00 1052.40,633.34 1051.38,632.92 1047.75,633.03 1047.12,631.94 1045.67,632.12 1044.35,631.34 1042.59,631.33 1041.44,631.96 1038.83,630.32 1037.43,630.59 1037.02,629.76 1034.87,630.99 1033.06,630.27 1031.95,631.21 1030.32,629.50 1028.72,630.44 1025.33,629.60 1023.91,630.74 1025.15,630.80 1025.04,631.62 1022.26,632.38 1019.00,630.43 1016.64,630.34 1015.85,631.47 1016.83,632.95 1016.20,633.55 1019.79,637.40 1020.54,637.00 1019.37,634.13 1023.49,634.36 1024.35,635.20 1023.63,635.37 1023.25,636.52 1020.59,637.11 1022.26,637.86 1021.80,639.13 1021.25,638.83 1021.72,639.59 1020.56,637.18 1020.56,637.78 1020.02,637.66 1023.28,642.29 1023.65,641.71 1025.05,653.01 1024.61,656.41 1020.50,664.20 1017.50,667.26 1016.14,667.50 1015.46,666.81 1012.11,669.46 1010.88,671.18 1010.41,674.42 1007.72,678.63 1004.48,680.08 1000.29,685.06 999.57,685.53 995.69,686.05 993.35,687.35 990.45,688.14 988.19,690.12 984.65,691.82 982.66,692.24 981.01,693.86 975.44,697.01 967.73,699.33 963.96,698.92 959.02,700.35 956.61,702.09 953.55,705.34 951.54,706.06 950.97,705.81 945.60,708.04 943.65,708.19 941.70,709.40 940.16,709.39 939.21,708.71 939.96,708.63 938.52,708.50 933.59,709.53 930.73,709.56 921.95,715.42 917.37,717.05 915.29,717.17 911.23,716.87 907.24,714.01 905.35,714.17 904.31,713.65 900.23,714.34 895.20,714.13 893.34,712.27 889.95,711.10 887.63,711.25 887.16,710.69 885.92,710.46 882.19,711.61 880.95,711.49 879.95,710.76 875.53,709.53 870.14,705.07 865.58,704.02 862.24,705.88 856.46,707.91 854.28,708.08 852.47,707.51 851.11,706.24 848.23,705.92 845.11,707.81 841.08,708.73 837.80,709.08 837.01,708.69 833.41,708.74 832.77,708.33 828.56,710.50 825.50,710.97 824.83,710.51 817.96,714.60 815.24,714.71 813.13,713.01 811.84,713.07 809.65,714.83 805.45,716.90 802.13,717.13 801.36,716.78 798.70,717.26 796.76,716.99 795.99,716.40 793.74,717.42 791.46,716.69 788.66,714.98 782.40,715.41 781.91,715.16 782.29,715.04 779.77,714.40 778.39,714.45 769.66,712.59 765.22,712.30 765.24,712.76 764.86,712.21 761.76,712.26 760.58,710.26 756.73,709.56 755.01,707.71 754.23,706.50 755.23,703.40 754.23,703.60 752.84,703.18 749.68,703.57 748.19,702.03 746.24,703.40 743.73,706.53 743.23,707.96 742.15,708.74 738.37,709.86 736.35,709.36 735.14,708.59 734.47,707.07 730.55,705.89 728.86,704.29 721.92,702.91 721.43,702.39 721.83,701.43 711.17,701.17 705.45,699.42 704.19,698.61 703.73,697.85 704.27,697.84 703.21,696.82 703.70,696.86 703.77,694.36 702.55,692.52 693.61,688.50 688.99,687.41 681.70,686.67 679.16,685.50 678.92,686.61 678.48,685.35 676.37,686.47 675.99,687.01 676.40,687.34 672.77,691.83 670.42,693.16 666.10,694.65 661.45,694.35 660.48,693.94 659.88,693.03 660.25,692.84 658.09,692.20 657.96,691.27 657.85,691.90 657.26,691.43 657.54,690.17 658.46,690.30 650.86,687.44 650.05,686.07 643.28,679.99 642.44,677.24 643.31,673.59 642.23,669.05 638.21,664.81 631.30,661.59 618.82,666.04 609.69,668.22 605.13,668.62 598.60,667.51 594.85,665.07 585.60,662.91 584.61,662.14 584.75,661.40 580.93,659.42 579.92,657.69 580.84,657.02 578.63,655.90 577.48,654.44 575.90,653.57 575.33,651.85 574.10,651.01 572.93,648.99 573.30,645.98 575.05,642.77 576.75,642.06 580.64,642.83 581.08,642.34 579.63,640.84 578.36,640.89 575.47,642.06 571.61,641.72 569.83,640.86 569.59,640.10 570.31,639.63 569.68,639.62 569.87,639.11 567.97,637.41 563.10,637.05 563.37,638.66 560.62,641.99 558.30,643.80 553.44,646.66 548.14,647.45 537.01,647.28 533.58,646.48 532.35,645.25 531.40,645.96 528.58,645.94 525.81,646.92 523.16,647.34 522.15,646.95 521.61,647.44 519.41,647.66 511.10,646.42 510.73,645.95 505.67,645.09 500.74,644.86 492.63,645.57 484.46,645.49 483.61,644.90 481.79,645.21 473.61,644.68 462.39,642.86 459.91,643.12 458.04,642.54 454.52,642.30 449.46,644.37 446.03,645.04 443.76,645.92 443.06,646.67 433.49,648.59 432.77,649.40 430.41,649.96 430.09,650.41 430.65,650.41 429.74,651.04 423.04,652.63 422.26,653.20 416.50,653.20 415.83,653.90 412.47,653.93 411.86,654.62 410.30,654.70 409.80,655.14 403.27,655.35 402.76,656.44 397.75,657.11 396.82,658.47 395.38,659.00 394.67,658.83 393.11,659.73 392.10,661.28 390.47,661.09 390.53,660.59 389.88,660.33 390.00,660.71 388.70,660.95 388.59,661.64 387.09,661.74 387.01,662.41 384.58,662.23 383.18,662.62 379.71,664.74 380.07,665.08 379.22,664.93 379.55,665.82 379.12,666.31 375.76,667.96 376.17,668.55 373.64,670.47 367.56,671.96 368.22,672.72 367.40,672.11 366.01,672.44 363.59,674.34 359.27,675.30 357.67,676.08 356.90,675.86 357.24,676.07 353.47,677.47 352.35,678.62 349.59,679.82 349.09,680.27 349.51,680.55 347.42,680.52 346.85,681.60 342.51,683.64 339.72,684.35 338.34,685.40 332.41,686.62 329.41,687.65 327.91,689.11 325.87,689.11 324.78,689.99 323.46,689.92 322.88,691.40 324.84,692.61 324.62,693.47 323.62,692.93 324.06,696.88 318.40,702.54 313.24,704.29 304.49,705.01 301.17,705.97 297.25,706.35 290.55,706.38 279.92,705.44 272.91,702.56 259.68,700.81 252.73,698.80 251.17,697.70 250.34,697.96 247.64,697.37 247.24,696.88 245.74,698.68 243.97,698.67 244.55,699.23 243.73,699.34 244.10,700.34 241.77,700.36 241.69,701.41 240.93,700.89 240.90,701.30 239.17,701.96 236.75,701.58 235.65,702.17 235.51,701.78 231.96,702.24 230.70,701.80 230.16,702.27 229.92,701.89 227.54,702.17 226.49,701.75 222.76,701.56 220.42,701.85 219.44,701.56 218.65,701.97 213.18,700.43 210.69,700.80 208.47,700.18 206.78,700.33 202.41,698.95 201.78,699.19 202.32,699.15 201.88,699.66 201.00,699.79 195.41,698.82 187.56,696.73 185.26,697.01 181.03,696.29 178.65,695.73 178.55,695.37 177.56,695.88 175.72,695.67 175.53,696.38 172.56,696.11 172.14,696.56 166.97,694.68 166.45,694.08 166.10,694.52 163.75,693.86 163.45,694.63 161.37,694.71 156.04,692.90 154.16,692.96 152.68,692.48 152.64,692.06 150.33,691.90 148.47,690.65 146.64,690.85 146.53,690.12 143.38,689.08 142.77,689.37 140.29,688.35 139.86,687.74 139.13,688.08 136.26,687.60 131.66,685.35 112.04,677.75 109.25,675.86 108.44,675.86 108.58,675.47 106.14,673.72 105.96,672.63 103.80,672.14 103.32,670.89 100.15,668.61 99.52,666.94 100.75,666.08 100.32,665.31 97.97,663.73 96.41,661.86 96.43,660.37 93.36,657.43 92.18,654.88 92.16,652.76 91.66,652.78 94.56,650.80 96.42,651.75 97.51,651.53 96.60,649.50 96.99,647.35 96.54,646.21 95.42,645.38 96.06,644.81 95.89,644.04 94.24,642.14 94.68,641.82 93.92,640.83 92.62,640.04 93.07,639.39 91.63,639.24 90.00,636.62 88.54,636.77 87.76,636.19 87.81,635.21 86.61,634.01 85.22,633.58 85.11,632.77 84.67,633.10 84.33,632.46 83.65,632.44 84.13,631.92 82.55,630.93 82.90,630.50 81.42,630.22 81.42,629.66 80.42,629.03 79.57,629.14 78.50,628.21 79.04,627.58 76.69,626.65 76.98,625.79 77.79,625.72 77.00,625.20 76.87,624.34 78.29,623.73 78.02,623.37 79.75,622.91 78.29,622.03 78.91,621.76 79.03,620.93 77.25,621.11 76.86,621.70 76.01,621.51 74.12,619.11 74.02,618.57 74.95,618.04 73.92,617.75 73.74,616.99 74.01,616.60 74.97,616.64 75.32,615.95 73.70,616.02 73.22,614.81 72.55,614.87 72.73,615.28 71.60,616.01 70.60,615.88 69.54,614.98 69.58,614.61 70.37,614.55 69.74,614.00 70.06,613.19 68.91,613.30 68.57,612.60 68.24,613.53 67.56,613.65 65.63,612.34 64.85,613.04 65.26,613.54 64.09,613.54 62.47,612.76 61.72,614.16 60.55,614.71 58.42,612.44 57.60,613.51 56.00,612.49 56.87,610.62 57.15,611.17 57.38,610.68 57.93,611.01 58.41,610.69 58.68,611.08 59.10,608.05 61.26,606.00 62.42,605.89 63.76,606.46 65.52,605.50 66.57,605.98 67.61,605.49 68.91,605.83 69.29,606.44 70.03,606.16 68.77,604.19 69.11,601.10 69.84,600.46 71.78,600.72 72.77,599.61 74.02,600.00 74.52,599.28 76.11,599.09 74.98,599.01 74.12,598.27 74.30,596.78 75.13,595.80 86.89,596.31 86.07,592.82 86.92,591.49 85.64,586.92 86.26,585.95 87.07,585.91 86.59,581.71 87.30,580.83 85.87,575.62 86.04,573.64 87.75,571.86 90.01,564.52 87.93,564.33 85.01,562.79 81.04,563.82 73.66,562.85 71.80,563.48 71.37,563.19 71.03,563.63 71.22,563.22 70.44,563.65 69.81,563.21 72.63,562.67 76.35,562.78 77.71,563.21 78.79,562.57 79.19,562.85 79.66,562.27 79.95,562.64 82.25,562.93 84.01,561.89 85.32,561.90 86.64,562.91 87.59,563.21 88.12,562.87 88.33,563.25 88.44,562.45 89.71,561.84 91.87,561.28 93.43,561.52 94.67,560.76 94.88,559.69 95.53,559.41 99.57,550.91 103.88,548.73 107.03,549.20 114.50,547.82 117.70,548.14 121.72,549.90 124.22,550.41 125.12,551.76 125.45,550.30 127.31,548.28 128.58,547.99 130.75,546.31 133.23,542.93 134.76,539.58 132.24,536.16 132.77,532.99 131.73,530.29 131.82,529.05 132.69,528.45 132.82,522.75 133.77,522.07 132.84,522.51 132.10,521.90 130.92,522.07 130.54,521.50 130.08,521.89 129.29,521.54 130.20,521.76 130.49,521.27 130.99,521.87 131.22,521.58 132.81,521.96 133.36,521.41 133.58,519.40 134.83,518.52 135.10,515.39 136.66,513.65 136.49,512.11 138.78,509.37 136.80,503.30 137.16,502.80 140.20,502.58 140.66,501.51 140.14,502.46 138.87,502.37 139.38,501.62 139.15,502.00 138.78,501.52 138.73,502.01 138.51,501.13 137.89,501.71 137.73,501.11 137.51,502.14 135.75,501.67 137.21,501.49 137.39,500.92 136.82,500.56 137.74,499.82 137.65,500.95 138.00,499.71 138.47,500.82 137.94,500.98 139.42,501.26 138.20,499.67 138.58,498.91 137.48,499.16 138.74,498.32 137.12,498.44 137.87,498.12 137.11,497.97 137.86,497.89 137.67,497.04 141.46,501.18 138.17,497.51 138.60,496.94 137.98,496.15 138.13,494.94 137.23,493.88 137.61,493.60 136.90,493.75 136.36,493.27 135.60,490.96 135.61,489.36 136.76,486.61 140.27,486.59 136.09,486.49 137.06,486.42 137.30,485.99 137.71,486.33 139.06,486.03 138.36,485.89 138.68,485.09 139.34,485.23 139.31,485.85 139.91,485.38 140.58,486.77 140.31,484.98 140.66,485.18 141.56,483.16 150.88,474.72 158.60,464.63 162.72,460.78 167.62,457.50 171.78,455.98 178.14,454.58 198.74,452.74 199.90,452.02 200.89,452.21 201.96,451.69 202.94,449.20 200.05,447.83 197.16,445.21 193.91,443.60 191.86,443.87 192.60,443.15 192.09,442.87 190.17,442.82 187.50,444.64 185.96,444.14 187.00,443.06 187.00,441.90 185.06,443.79 184.75,441.99 183.55,442.81 182.34,442.92 182.50,441.90 180.48,440.52 181.68,439.57 180.04,439.61 179.45,439.21 180.04,438.32 177.60,438.41 173.65,437.63 176.08,436.08 175.72,435.22 173.79,433.83 170.29,433.72 169.99,434.59 171.92,434.50 172.17,434.89 171.88,435.46 169.88,436.10 164.76,433.01 160.77,432.30 158.31,431.16 155.16,430.55 153.95,428.52 151.93,427.42 149.68,427.34 147.43,428.65 146.79,427.91 147.00,426.77 144.39,426.28 143.56,425.54 141.39,425.94 136.57,424.64 131.42,424.20 127.11,422.51 124.10,421.59 123.53,421.80 118.69,420.12 116.21,418.90 113.89,415.27 112.55,414.19 112.82,412.08 112.25,410.93 108.00,409.17 112.63,410.58 113.45,414.22 117.51,419.13 126.46,421.76 132.19,423.99 137.26,424.24 142.13,425.62 147.18,424.41 146.69,423.40 144.92,423.00 144.27,421.59 144.97,421.11 147.39,420.80 147.98,419.80 146.25,418.89 147.62,417.99 149.16,418.11 150.93,419.34 153.02,419.51 155.15,421.12 157.42,421.78 158.07,420.97 157.64,419.61 160.16,416.77 163.94,416.31 166.55,414.71 168.26,414.57 169.55,414.97 172.75,414.03 176.83,410.69 180.75,411.94 183.25,410.46 186.20,411.20 193.56,410.06 195.59,410.21 197.73,411.36 198.93,413.39 202.21,414.37 205.57,411.68 209.80,410.61 210.05,409.02 209.10,409.27 209.14,409.91 207.71,409.30 207.28,410.19 206.69,409.56 206.97,409.08 205.81,408.66 205.19,409.15 205.84,409.63 205.15,410.36 204.00,409.63 203.83,408.78 202.85,409.08 202.04,408.32 202.39,407.96 202.91,408.75 202.72,408.10 203.53,408.03 203.40,406.76 204.99,405.12 207.97,402.64 212.56,399.87 211.57,400.32 211.32,399.54 211.91,399.48 211.11,399.34 210.99,398.82 213.26,399.33 213.84,398.08 214.46,398.08 214.85,397.46 214.27,396.96 217.60,397.28 213.29,399.58 219.01,396.68 237.83,385.57 221.67,394.87 220.25,395.23 217.58,394.40 216.93,394.78 214.56,391.23 215.26,391.53 217.27,390.24 217.25,389.68 217.63,390.19 220.77,389.99 220.89,387.63 221.59,387.87 222.56,390.15 224.48,390.99 223.08,388.39 223.82,384.20 224.08,383.97 224.36,387.63 225.93,388.78 227.07,385.68 227.02,382.98 226.16,381.72 227.56,379.73 228.82,380.63 229.07,383.41 231.06,384.39 233.05,386.91 233.85,385.35 234.14,385.93 235.01,385.58 235.52,384.15 235.04,383.02 236.69,381.47 236.26,380.41 236.61,379.08 237.14,379.09 238.22,382.01 238.39,385.32 243.62,382.51 249.09,377.85 250.67,376.16 249.38,377.27 248.43,375.21 249.00,375.23 251.40,373.13 253.61,372.56 254.79,371.57 253.79,369.70 255.19,370.80 256.72,369.67 256.35,371.28 250.68,376.13 260.80,368.23 258.92,368.81 258.04,368.15 256.33,365.08 254.40,363.68 254.10,361.03 254.57,360.89 252.81,359.58 251.42,359.84 249.73,359.52 249.54,358.87 248.34,358.32 244.27,357.55 238.73,354.22 235.67,350.89 235.96,349.78 238.36,347.45 241.93,346.36 244.62,346.83 245.25,347.56 244.04,349.26 245.68,349.78 246.99,352.73 247.83,353.13 249.54,351.17 249.89,349.63 249.23,348.07 249.96,347.57 250.68,348.14 251.19,350.35 250.74,352.60 251.20,353.27 253.15,354.64 256.63,355.19 258.38,357.02 256.96,359.31 257.30,360.01 258.87,361.52 263.29,363.74 262.80,365.74 260.95,367.16 260.83,368.05 263.48,364.83 266.65,362.50 274.77,352.05 273.33,351.62 272.77,350.35 271.75,350.66 271.23,350.26 271.79,350.48 272.19,350.07 272.05,347.31 272.38,349.64 274.62,351.59 277.04,349.10 279.69,347.94 281.06,343.18 280.21,340.07 279.93,340.49 279.31,340.26 279.53,339.89 278.96,340.05 278.20,339.16 278.99,337.03 281.62,335.69 283.51,335.57 284.99,336.14 289.52,334.59 297.17,332.94 297.32,330.84 296.38,328.79 297.56,329.05 298.25,331.88 297.69,332.76 308.15,330.82 312.67,332.05 315.69,331.88 319.96,332.72 320.41,331.65 321.35,331.18 324.15,331.43 324.90,330.58 324.44,330.45 324.69,329.41 327.59,328.37 328.42,326.74 329.25,326.57 329.43,323.98 328.38,323.63 328.01,322.84 325.67,322.10 325.26,319.09 325.80,319.46 326.29,322.27 327.78,322.09 329.50,322.61 330.57,324.11 331.82,322.77 331.05,320.99 331.94,321.58 332.41,320.54 336.57,318.95 336.18,316.71 337.05,318.04 336.88,319.15 334.41,320.93 332.99,321.36 333.59,322.83 332.11,324.53 332.39,325.78 330.24,326.55 330.85,327.22 330.41,328.43 326.72,330.80 325.16,330.97 329.93,331.04 333.61,332.70 336.42,329.97 339.55,329.33 343.43,329.95 345.82,330.85 348.66,331.08 350.25,332.04 356.47,330.12 357.54,328.90 357.26,327.51 357.92,325.02 358.90,323.94 357.62,323.86 356.36,322.79 355.43,321.43 355.50,319.78 358.13,316.43 360.14,315.77 361.93,314.49 363.77,311.94 363.59,311.08 363.03,310.28 361.50,310.87 358.98,310.66 357.46,309.53 358.35,308.15 360.90,306.46 361.07,305.43 356.72,306.46 355.53,306.25 354.31,305.29 353.54,303.63 354.19,301.25 355.88,301.46 356.87,300.30 356.62,299.25 357.12,299.23 355.53,298.33 352.69,297.70 352.16,296.35 353.51,294.78 352.18,293.18 346.91,291.16 346.53,289.09 347.43,287.63 348.97,286.68 348.03,285.80 346.79,285.95 345.57,284.68 346.84,285.87 348.03,285.72 349.05,286.52 347.32,287.94 346.70,289.16 347.13,291.16 352.17,292.87 353.81,294.45 353.07,292.91 354.43,294.83 353.35,296.78 353.69,297.63 354.92,298.14 356.94,298.18 358.08,299.33 357.82,300.79 355.78,302.03 354.35,303.77 354.68,303.61 355.64,305.14 356.09,304.92 356.60,305.61 360.63,304.03 362.23,304.22 363.11,304.87 363.52,307.10 362.62,306.56 361.39,307.12 359.64,308.72 359.87,309.66 359.90,309.80"/>
    <polyline fill="none" stroke="#c06c3f" stroke-width="2.20" stroke-opacity="1.00" stroke-linejoin="round" stroke-linecap="round" points="360.10,309.78 361.40,310.15 363.61,309.55 362.98,309.32 364.75,309.23 365.74,310.12 364.79,313.24 365.16,314.23 362.32,315.47 363.29,315.86 362.29,316.43 360.42,316.44 360.63,318.77 358.68,320.20 359.84,320.69 358.90,321.42 359.51,320.83 360.31,321.00 359.58,322.87 360.73,323.12 362.45,325.19 361.75,327.20 362.73,328.90 365.74,330.98 367.32,331.66 370.05,331.59 372.15,332.69 373.74,335.61 376.37,334.33 378.40,334.33 381.07,333.21 384.03,334.39 384.79,335.94 389.97,336.40 391.89,335.36 394.31,335.40 395.74,334.73 396.03,333.09 396.58,334.08 395.97,334.58 398.23,333.05 400.55,333.07 400.67,332.68 399.16,332.39 399.43,331.89 400.63,331.71 400.85,332.13 402.57,331.35 402.94,332.26 401.06,332.20 400.93,332.94 403.86,332.52 403.74,331.83 404.17,332.31 409.27,328.53 412.52,327.65 416.78,327.74 420.71,326.73 420.55,326.37 426.17,323.54 429.96,322.89 433.46,323.07 441.26,320.07 450.66,320.03 452.47,320.92 456.36,320.36 456.67,320.86 455.69,321.43 456.63,321.18 455.50,321.94 451.27,322.64 443.37,321.14 441.54,320.31 433.50,323.62 430.22,323.31 425.70,324.24 419.71,327.52 411.03,328.65 407.57,329.89 400.37,336.98 398.88,336.60 394.29,339.45 392.10,339.13 386.55,340.39 383.24,340.16 385.89,340.99 385.98,341.46 385.01,341.45 385.46,341.68 389.41,340.07 390.51,340.32 391.13,339.65 393.10,340.28 392.02,341.19 391.56,340.94 391.60,341.33 388.72,342.09 381.38,341.13 381.45,340.76 377.27,340.88 374.96,340.24 375.49,339.90 377.02,340.38 374.18,338.74 374.44,340.10 371.20,339.31 365.71,340.50 365.13,339.68 365.21,340.26 363.39,340.30 358.55,338.58 358.25,339.04 358.51,338.61 357.40,338.63 358.06,337.94 356.94,337.44 356.02,337.48 357.12,338.30 354.54,338.45 348.79,337.11 349.24,336.80 347.37,336.25 340.76,336.99 335.69,336.88 331.96,335.39 330.96,334.26 333.14,336.59 338.21,339.24 344.10,344.24 343.43,343.34 344.00,343.92 344.38,343.59 343.37,343.21 343.79,341.48 345.91,340.43 348.27,340.26 356.47,341.99 361.06,343.64 358.96,342.96 361.63,343.12 360.31,342.60 362.29,343.14 360.69,343.22 361.80,343.80 364.06,342.56 365.64,343.13 366.39,345.13 368.13,346.30 367.28,347.75 365.81,347.32 364.41,348.86 359.61,350.50 353.08,350.66 349.73,351.41 350.49,351.47 349.87,351.22 349.41,351.75 349.35,351.35 347.51,353.18 348.12,352.81 348.87,353.60 349.08,355.29 350.19,354.19 350.37,354.80 351.19,354.45 351.57,355.44 352.66,354.15 352.55,354.75 353.88,355.20 355.42,354.54 355.40,355.41 356.92,353.66 356.74,352.93 356.13,353.72 355.71,353.39 355.82,352.08 357.32,351.90 356.64,352.25 357.29,352.48 356.83,352.98 360.05,353.20 359.23,353.37 360.38,353.63 361.20,355.32 361.97,354.94 361.42,355.37 362.13,355.90 363.16,355.64 363.26,356.09 364.25,355.41 363.67,356.00 365.61,356.52 365.44,356.08 365.79,356.66 367.14,355.89 368.86,357.01 368.36,356.51 369.18,356.28 370.73,358.68 372.76,359.44 373.29,358.96 372.72,359.46 373.57,359.80 375.15,359.50 377.73,361.61 377.05,361.09 378.67,360.38 380.30,361.02 380.67,362.05 380.21,361.28 379.54,361.78 380.03,363.15 379.50,364.24 367.74,361.89 391.69,367.26 401.10,368.95 400.68,368.04 404.93,366.54 407.76,366.04 409.27,366.61 413.67,365.97 416.14,364.84 419.55,365.83 422.48,365.65 422.44,365.20 425.69,366.15 433.78,365.72 432.34,365.05 433.85,363.98 433.03,363.41 433.69,362.82 436.19,362.90 436.76,364.03 440.33,364.90 444.22,362.77 444.88,361.39 444.18,360.14 445.08,360.55 446.90,358.69 446.73,359.68 445.61,360.27 445.62,361.65 447.00,362.90 445.70,363.81 445.03,365.90 445.87,366.02 445.54,364.75 446.60,364.29 448.55,363.76 450.23,364.10 452.75,365.70 452.21,366.90 450.73,367.03 450.96,366.63 450.51,367.02 450.74,368.23 452.85,368.25 452.42,366.88 454.32,365.60 454.81,366.81 456.77,367.28 456.36,368.08 459.88,371.03 461.00,371.33 460.21,370.99 460.44,370.45 462.92,369.94 465.69,371.49 466.61,371.14 464.75,369.08 465.68,367.79 469.94,368.16 466.44,366.60 465.94,365.10 468.56,364.91 468.39,364.06 470.26,363.59 470.03,363.91 470.56,362.58 471.85,362.59 473.39,364.10 473.41,365.46 475.06,367.90 473.19,369.67 474.41,375.66 473.47,377.05 474.88,377.23 474.77,376.69 476.23,376.20 481.95,376.46 483.13,377.62 482.38,378.29 480.63,378.18 479.24,379.27 477.61,379.52 478.20,382.90 477.60,383.89 476.37,382.03 474.90,381.94 473.80,380.66 473.04,380.75 470.94,382.29 469.98,382.08 468.32,384.43 467.56,384.01 467.84,383.58 465.95,384.22 464.99,383.02 463.89,383.21 460.25,384.45 459.77,384.81 460.39,385.22 459.60,385.00 459.14,385.58 459.67,385.37 459.67,386.01 459.47,385.46 455.90,387.72 448.56,389.97 446.14,389.95 443.12,387.69 441.26,392.26 436.48,393.05 434.88,394.10 434.60,393.74 427.63,396.45 419.82,400.98 419.47,401.42 420.96,401.44 421.33,402.06 419.99,403.93 419.35,402.89 418.29,403.38 419.27,404.34 415.78,405.11 418.28,403.45 417.32,402.76 411.97,405.09 412.09,406.05 411.24,406.43 410.91,405.54 401.94,409.05 397.78,412.38 396.31,414.56 398.24,415.04 399.20,415.98 397.30,417.40 408.30,419.51 413.12,416.85 416.89,415.76 426.40,416.70 430.76,418.46 430.42,418.88 430.55,418.47 426.33,416.60 429.47,417.09 430.20,416.56 430.85,417.50 431.21,416.68 431.91,416.86 432.88,415.82 434.77,415.87 434.83,415.14 435.87,414.67 438.40,414.76 438.05,414.28 442.26,412.24 442.20,411.33 443.96,411.13 444.51,410.45 445.52,410.73 443.94,411.87 442.91,411.75 441.78,413.30 439.90,413.87 439.53,414.32 440.69,414.60 439.40,414.49 438.44,415.85 436.86,415.36 435.91,415.64 435.55,416.80 434.55,417.08 436.38,417.20 436.42,417.65 433.44,417.86 434.30,418.87 433.51,418.79 433.12,420.19 430.82,418.94 435.38,421.63 441.76,427.10 447.07,429.02 449.14,430.93 451.30,430.48 452.13,428.91 455.27,428.97 457.68,427.58 461.48,428.57 466.83,432.03 468.38,433.68 470.24,435.84 472.47,440.74 472.13,442.57 473.10,444.97 472.75,449.63 471.68,451.52 471.21,451.18 470.46,451.86 469.10,451.66 468.57,454.05 467.59,454.84 468.95,459.76 468.71,463.31 466.00,466.25 466.93,465.86 467.90,466.56 469.81,466.15 469.56,466.54 471.56,466.95 470.56,467.24 468.41,466.62 467.46,467.88 467.00,466.67 465.76,466.54 465.49,467.30 463.87,467.07 463.30,467.77 463.18,467.08 461.80,467.44 461.99,468.09 461.24,467.59 460.04,468.59 460.71,468.57 460.44,469.29 461.19,469.68 460.24,469.55 459.74,468.64 459.51,470.53 459.00,468.34 457.06,469.06 459.24,471.07 462.51,472.52 464.50,474.77 466.07,474.33 468.93,475.61 471.56,475.35 471.59,474.86 473.34,475.48 474.92,477.13 474.74,478.68 475.41,479.53 478.19,480.37 479.78,480.07 479.66,480.76 481.49,482.36 484.49,482.33 489.92,480.94 497.35,482.02 497.96,481.33 501.36,481.09 501.97,480.35 502.41,480.64 505.46,479.41 507.45,479.60 510.57,474.87 510.53,475.28 516.96,473.77 517.80,473.00 517.63,472.12 520.07,470.98 522.50,471.40 523.03,468.57 524.38,468.45 524.50,467.06 526.38,465.10 527.40,462.77 530.56,460.19 540.33,456.24 550.70,453.13 556.90,453.27 558.03,452.82 560.17,453.31 561.49,452.96 561.26,452.46 564.96,451.64 566.22,452.45 568.85,452.35 570.25,453.21 569.88,454.24 572.39,454.94 575.81,452.60 576.34,449.36 577.55,447.82 580.16,446.87 582.84,446.67 584.04,445.04 583.58,443.93 584.22,443.34 585.21,442.88 586.84,443.44 587.97,442.87 590.46,443.24 592.90,444.49 592.90,443.83 591.72,444.01 590.79,442.65 591.10,441.49 595.67,440.08 593.77,438.78 592.90,438.88 593.48,436.67 597.18,434.16 603.05,432.30 607.04,432.02 613.11,433.36 619.51,436.17 621.61,437.95 621.61,439.35 623.91,440.97 628.69,439.43 631.66,440.08 634.23,438.12 636.36,437.48 640.16,437.38 649.60,438.92 650.95,438.18 650.90,437.55 655.29,436.81 659.88,436.98 664.72,434.90 665.10,434.09 677.21,431.42 682.31,432.47 684.54,433.56 685.02,433.11 688.95,432.81 692.61,433.23 708.91,437.47 716.21,440.40 722.56,444.70 723.82,447.09 722.06,448.21 725.06,450.90 725.42,453.12 727.92,455.39 728.25,456.92 727.64,457.35 728.87,457.34 729.58,458.53 734.54,461.53 737.86,462.11 738.77,462.87 740.22,462.44 740.66,463.09 742.34,463.40 744.87,463.05 749.11,464.36 752.90,464.49 756.51,463.26 756.08,462.76 756.72,462.43 754.56,459.57 755.64,458.76 756.26,459.16 756.26,458.69 756.38,459.55 757.21,459.55 756.34,460.01 757.51,459.58 758.53,459.95 758.26,460.31 758.69,459.98 758.60,460.52 759.44,460.61 758.52,460.72 759.59,460.74 765.07,464.60 763.04,465.69 765.01,467.75 768.44,469.43 768.61,470.17 771.49,470.66 771.98,469.82 771.57,470.11 771.08,469.52 771.39,468.98 774.16,469.58 774.84,470.42 772.80,471.38 778.12,474.49 779.70,477.50 781.39,478.18 783.31,480.27 785.72,480.90 787.05,480.45 788.91,480.72 794.85,483.45 797.39,483.12 801.04,483.41 804.84,484.49 805.76,484.18 812.25,486.27 812.21,486.68 817.27,487.61 818.00,488.27 819.57,487.95 823.43,489.39 828.34,495.34 836.76,497.42 838.83,499.26 839.81,502.12 841.49,501.74 840.95,502.21 842.31,502.22 842.17,502.71 843.50,503.15 847.64,507.33 853.64,510.01 854.94,511.45 858.12,513.16 859.80,515.33 861.06,515.69 865.79,519.68 868.60,523.05 876.80,528.44 878.34,530.97 883.94,533.37 885.73,537.02 895.33,541.29 897.13,543.04 898.90,547.00 900.56,548.61 904.68,550.02 909.89,550.43 916.25,553.38 921.66,554.85 923.08,558.32 923.39,563.31 928.04,566.34 929.45,564.71 931.80,564.36 934.33,565.79 936.15,566.13 936.63,566.85 939.91,566.41 944.18,570.13 948.41,569.26 951.77,570.28 960.32,570.34 963.67,571.04 970.13,577.31 972.23,576.25 975.40,576.38 977.81,579.36 979.65,586.74 982.50,589.84 985.06,590.06 986.52,589.37 992.30,590.45 993.91,591.40 999.62,592.36 1000.87,593.67 1000.79,593.12 1001.41,593.52 1000.92,593.68 1002.16,593.57 1003.44,594.98 1007.27,603.64 1010.11,617.28 1010.27,616.46 1010.41,617.43 1012.50,618.33 1015.30,624.80 1016.01,627.33 1015.09,629.35 1017.01,630.35 1018.76,630.26 1022.39,632.03 1024.42,631.35 1023.58,630.35 1025.95,629.04 1028.42,630.19 1031.08,629.29 1031.93,630.86 1033.03,630.01 1035.18,630.65 1037.20,629.51 1037.23,630.51 1038.90,630.03 1041.13,631.07 1041.18,631.77 1042.26,630.94 1044.33,631.10 1045.22,631.90 1047.10,631.58 1048.47,632.92 1051.94,632.71 1053.31,634.55 1057.92,636.42 1059.49,636.44 1060.65,635.05 1063.22,635.52 1062.81,634.16 1063.84,634.19 1064.00,633.72 1063.19,634.23 1063.74,635.58 1060.64,635.17 1060.08,636.41 1058.88,636.82 1053.52,634.97 1052.03,632.93 1047.88,633.26 1047.28,631.86 1045.83,632.17 1043.98,631.24 1041.32,632.03 1040.55,631.02 1038.63,630.25 1037.18,630.55 1037.23,629.72 1034.82,630.98 1033.03,630.24 1032.26,631.35 1030.26,629.43 1028.79,630.52 1025.22,629.52 1023.83,630.67 1025.58,631.11 1022.15,632.44 1018.98,630.33 1016.64,630.29 1015.85,631.06 1016.78,632.28 1016.17,633.71 1016.37,633.36 1019.84,637.49 1020.63,637.12 1019.26,634.10 1023.64,634.32 1023.51,634.92 1024.35,635.29 1023.50,635.48 1023.34,636.68 1020.51,636.80 1022.33,637.84 1021.88,639.34 1021.09,638.80 1021.71,639.54 1020.70,637.18 1020.02,637.66 1022.42,641.64 1023.56,641.80 1025.14,652.94 1024.42,657.18 1019.36,665.60 1016.71,667.57 1015.60,666.74 1014.86,666.99 1011.44,670.14 1009.42,676.44 1007.62,678.62 1004.53,680.09 1000.40,685.11 996.78,685.61 990.56,688.03 986.49,691.16 982.62,692.32 977.54,696.10 972.08,698.28 971.56,697.95 967.03,699.39 965.77,698.66 963.83,698.88 959.85,700.42 958.97,700.28 953.44,705.44 943.60,708.15 941.72,709.44 939.49,709.20 939.80,708.72 939.17,708.50 940.07,708.61 938.42,708.47 933.81,709.53 931.08,709.29 928.50,710.53 923.79,714.49 924.06,714.02 920.20,716.27 918.60,716.66 918.59,716.27 916.51,717.30 910.02,716.45 908.09,713.98 905.37,714.28 903.20,713.67 897.04,714.69 895.94,714.13 895.17,714.40 894.76,713.96 895.28,713.82 893.43,712.86 893.53,712.22 892.86,712.41 889.87,711.02 887.70,711.27 886.13,710.49 882.44,711.70 881.07,711.55 880.18,710.68 875.38,709.62 874.81,708.52 870.72,705.38 865.63,703.91 860.93,706.51 854.97,708.27 852.61,707.58 851.16,706.08 848.07,705.96 845.11,707.81 839.04,709.05 837.77,709.23 837.06,708.57 833.62,708.86 832.73,708.26 831.56,708.59 829.76,710.08 827.52,710.81 825.70,710.60 825.38,711.13 824.83,710.54 823.81,711.39 823.27,711.07 822.65,712.00 818.18,714.58 814.96,714.64 813.23,713.01 811.89,712.98 809.31,715.20 806.14,716.78 802.13,717.18 801.52,716.70 798.55,717.24 796.08,716.32 795.22,716.46 794.92,716.79 795.73,716.76 794.71,717.47 793.44,717.42 788.89,715.41 789.02,714.91 782.19,715.43 779.74,714.36 774.15,713.71 774.09,713.29 773.20,713.68 771.08,712.80 761.53,712.31 760.76,710.25 756.75,709.52 754.46,707.15 755.34,703.39 753.97,703.83 753.05,703.15 749.64,703.55 748.11,702.08 745.97,703.44 743.56,707.75 742.39,708.63 738.26,709.97 735.84,709.33 733.78,706.60 730.58,705.89 728.96,704.20 726.19,704.19 724.69,703.59 725.70,703.41 721.89,703.03 721.77,701.34 710.98,701.31 711.12,700.89 705.51,699.54 704.21,698.75 704.03,697.04 703.14,696.73 703.75,696.88 703.93,694.46 702.95,692.57 693.94,688.66 688.94,687.37 681.79,686.59 679.11,685.63 679.03,686.59 678.57,685.38 676.19,686.53 675.52,688.74 673.52,690.11 672.83,691.96 670.44,693.23 664.05,694.97 661.22,694.33 659.76,693.10 660.22,692.85 657.87,692.07 657.91,691.33 657.69,691.83 657.55,690.10 658.72,690.35 657.01,689.39 652.48,688.47 643.13,680.12 642.24,677.24 643.35,675.35 643.35,673.51 642.34,669.09 639.83,666.09 636.88,664.09 631.38,661.50 618.75,666.12 611.04,668.05 605.56,668.73 598.72,667.57 594.89,665.54 595.37,665.14 585.59,662.92 584.33,661.76 584.80,661.26 582.27,660.54 580.38,658.88 579.89,657.58 580.26,657.10 580.95,657.35 580.72,656.95 575.80,653.62 572.96,648.99 574.39,643.58 576.77,641.97 580.42,642.89 581.25,642.64 579.95,640.83 578.60,640.76 575.99,642.13 571.66,641.81 569.62,640.76 570.02,639.19 568.34,638.07 568.56,637.66 563.82,637.00 562.96,637.02 563.05,639.33 561.56,640.09 558.47,643.89 554.65,646.22 551.69,647.13 551.89,646.78 545.07,647.63 539.01,647.05 537.08,647.42 533.64,646.55 532.43,645.18 531.44,646.18 528.45,645.94 523.07,647.47 522.23,646.97 519.99,647.85 514.87,646.67 510.80,646.54 510.82,645.76 505.60,644.93 502.29,644.86 500.97,645.37 500.95,644.80 496.91,644.98 495.60,645.56 487.99,645.57 486.81,645.13 485.28,645.57 483.32,644.85 477.68,645.23 476.22,644.66 473.48,644.87 467.23,643.78 466.64,643.27 465.63,643.57 461.58,642.92 460.05,643.36 454.96,642.15 449.39,644.41 445.85,645.02 442.79,646.32 443.14,646.72 433.27,648.56 432.83,649.40 430.21,650.08 430.77,650.47 429.72,651.11 424.40,652.69 423.59,652.40 422.14,653.31 416.65,653.16 415.40,653.96 412.42,654.07 409.52,655.21 403.08,655.37 402.93,656.46 399.49,656.59 398.16,657.39 397.86,656.92 396.87,658.49 394.80,658.77 392.65,660.04 392.19,661.38 390.43,661.02 390.81,660.68 390.00,660.92 390.53,660.56 390.03,660.26 389.48,661.04 388.49,661.03 388.46,661.68 386.93,661.89 387.34,662.20 386.60,662.61 384.66,662.06 383.24,662.41 379.72,664.72 380.12,665.11 379.13,664.98 379.30,666.23 375.64,667.91 376.51,668.24 373.67,670.56 367.62,671.88 368.32,672.78 366.66,672.22 363.70,674.54 361.81,674.47 357.69,676.17 356.84,675.99 353.48,677.40 352.40,678.65 350.23,679.30 350.14,679.96 349.89,679.40 349.04,680.36 349.48,680.56 347.48,680.39 347.41,681.25 345.76,681.72 345.01,682.64 340.21,684.14 336.32,686.19 332.57,686.50 328.37,688.18 327.87,689.24 323.29,689.85 322.93,691.62 324.32,691.94 324.04,692.41 324.98,692.43 325.08,693.09 324.40,692.99 324.62,693.56 323.38,692.94 324.10,696.86 322.18,698.19 322.35,699.08 320.00,700.63 319.58,701.96 317.32,703.20 313.36,704.36 304.42,705.10 300.51,706.11 287.09,706.33 279.85,705.41 272.74,702.48 259.59,700.92 252.46,698.77 252.39,698.15 251.94,698.41 251.16,697.65 247.72,697.53 247.33,696.78 245.84,698.64 243.92,698.70 244.84,699.14 243.90,699.18 244.22,700.50 241.56,700.44 241.68,701.55 240.86,700.83 241.01,701.56 236.79,701.55 235.60,701.83 235.78,702.25 234.15,701.76 234.36,702.21 232.11,701.98 231.95,702.37 230.82,701.83 230.20,702.29 229.75,701.79 227.55,702.26 222.74,701.44 218.73,702.03 212.01,700.19 210.77,700.85 206.49,700.35 202.56,698.89 200.90,699.85 189.96,697.67 187.50,696.45 185.64,697.08 181.16,696.43 178.62,695.36 177.67,695.92 175.88,695.52 175.71,696.31 174.64,696.05 173.85,696.51 172.51,696.02 171.30,696.50 166.22,694.03 165.48,694.61 163.97,693.64 163.47,694.84 158.81,694.32 158.73,693.59 154.16,693.02 152.65,691.99 151.95,692.24 149.26,691.43 148.41,690.48 147.77,691.05 147.25,690.61 146.59,691.00 146.76,690.33 145.28,689.44 143.47,689.01 142.89,689.43 139.90,688.17 139.86,687.68 139.02,688.21 137.74,687.61 136.33,687.78 131.71,685.22 123.77,682.65 113.07,678.19 108.92,675.69 108.36,675.91 105.84,672.70 104.64,672.44 104.87,672.00 103.71,672.30 102.94,670.54 99.87,668.38 99.58,667.05 100.69,665.94 96.16,661.68 96.50,660.30 93.26,657.40 91.95,654.76 92.24,652.76 91.46,652.80 92.64,652.64 92.72,651.87 94.62,650.78 96.37,651.78 97.45,651.76 96.58,649.80 96.89,647.30 95.45,645.44 96.14,644.95 95.95,643.96 94.63,643.05 94.79,642.25 94.22,642.21 94.84,641.88 92.61,640.00 93.09,639.49 91.56,639.17 90.50,637.03 89.72,637.11 90.04,636.62 88.03,636.48 88.10,635.89 87.31,635.68 87.70,635.02 86.51,633.90 85.33,633.84 85.24,632.70 84.46,633.04 83.69,632.37 84.09,631.87 82.86,631.51 83.21,631.01 82.48,630.80 83.04,630.45 82.11,630.79 80.20,628.90 79.44,629.30 78.50,628.42 78.97,627.48 77.65,627.44 76.57,626.68 76.86,625.67 77.88,625.80 76.79,624.44 79.75,622.95 78.22,621.86 79.15,620.92 77.31,621.06 77.02,621.65 75.80,621.48 73.97,618.68 74.83,617.90 73.82,617.85 73.59,616.93 74.80,616.73 75.31,615.85 73.63,616.04 73.14,614.72 72.51,615.64 70.47,615.86 69.51,614.54 70.36,614.47 69.65,613.98 69.99,613.21 69.21,613.57 68.65,612.54 67.63,613.74 66.17,613.18 65.67,612.24 64.92,613.07 65.35,613.51 64.03,613.49 62.52,612.54 62.27,613.61 60.72,614.69 58.44,612.34 57.49,613.55 56.06,612.54 56.38,610.92 58.62,611.01 58.71,608.56 60.33,606.49 62.45,605.76 63.91,606.59 65.81,605.37 66.53,605.94 67.22,605.49 68.88,605.82 69.51,606.23 69.08,606.48 70.14,606.11 68.98,604.95 69.01,601.02 69.68,600.49 71.73,600.73 72.85,599.59 74.06,600.14 74.81,599.06 75.39,599.44 76.21,599.03 75.37,599.14 74.14,598.36 74.98,595.78 79.51,596.24 79.82,595.89 80.80,596.47 86.75,596.31 86.11,592.75 86.94,591.48 85.66,587.49 86.31,585.91 87.27,586.02 86.41,581.71 87.17,580.92 85.76,575.01 85.92,573.61 87.88,571.79 90.03,564.50 87.87,564.29 87.63,563.61 86.28,563.55 84.99,562.74 80.87,563.83 73.40,562.87 70.10,563.48 70.45,563.84 69.73,563.17 74.12,562.73 75.62,563.16 76.63,562.69 77.51,563.22 78.64,562.57 79.09,563.01 79.39,562.31 82.42,562.90 82.90,562.22 84.82,562.18 85.29,561.70 86.57,563.12 88.13,563.27 87.72,562.95 88.27,562.85 88.27,563.34 88.52,562.42 89.93,561.78 93.98,561.35 96.48,557.88 99.71,550.53 104.55,548.55 105.20,549.12 107.17,549.31 112.05,548.05 117.68,548.00 119.87,548.68 121.09,549.76 124.49,550.56 125.37,551.70 126.00,549.58 127.60,548.15 127.04,548.18 128.32,548.20 130.73,546.66 133.94,542.08 133.49,541.85 134.87,539.58 131.85,535.28 132.73,532.95 131.74,529.41 132.76,528.29 132.68,522.74 133.45,522.85 133.75,522.07 132.72,522.52 132.61,521.99 131.50,521.85 131.50,522.23 130.66,521.53 129.22,521.63 130.33,521.27 130.84,522.12 131.21,521.55 133.19,521.48 134.02,520.22 133.45,519.16 134.81,518.55 135.06,515.40 136.63,513.52 136.48,511.99 137.96,509.80 139.01,509.47 136.87,504.18 137.34,504.42 137.02,502.80 140.32,502.55 140.69,501.60 140.19,502.58 138.81,502.32 139.32,501.57 139.20,501.94 138.75,501.39 138.80,502.04 138.20,501.09 138.18,501.74 137.67,501.01 137.56,502.24 135.72,501.81 135.56,501.42 137.04,501.55 137.08,499.76 137.95,500.35 137.54,500.92 137.98,499.73 138.44,500.79 137.77,500.88 139.46,501.28 138.15,499.99 138.69,498.97 137.50,499.19 138.95,498.45 136.94,498.44 138.02,497.80 137.60,496.94 139.11,498.35 138.89,499.03 140.96,500.04 141.50,501.19 141.08,500.08 138.13,497.52 138.15,494.69 137.75,494.91 137.47,493.53 136.63,493.72 135.81,492.60 135.51,489.72 136.66,486.69 140.31,486.57 135.91,486.54 137.13,486.49 137.31,486.01 139.11,486.22 138.32,485.71 138.79,485.04 139.35,485.12 139.12,485.84 139.76,485.16 140.66,486.68 139.94,486.18 141.30,482.94 142.37,482.61 149.00,476.63 160.44,462.68 165.23,458.88 169.48,456.57 174.66,455.13 190.84,453.18 197.91,452.98 200.71,452.28 202.43,451.10 203.19,449.23 199.75,447.70 197.10,445.26 194.07,443.72 191.91,443.87 192.19,442.88 189.83,442.98 188.39,444.36 186.73,444.65 186.02,444.21 187.17,442.03 185.94,443.52 184.86,443.79 184.69,442.01 182.90,443.13 182.31,442.96 182.57,441.83 180.47,440.87 181.68,439.68 179.51,439.67 180.16,438.16 177.57,438.38 173.63,437.82 173.79,437.20 175.91,436.19 175.93,435.29 174.66,434.09 170.67,433.48 169.81,434.55 171.63,434.42 172.13,434.85 169.83,436.12 164.70,432.97 160.72,432.40 159.45,431.46 155.05,430.51 154.23,428.46 151.53,427.16 148.50,427.60 147.81,428.68 146.94,428.62 146.65,426.58 144.30,426.36 143.63,425.46 140.61,425.86 137.67,424.86 131.17,424.20 127.04,422.35 124.19,421.40 123.64,421.83 116.79,419.40 112.42,413.74 112.33,410.89 107.89,409.15 112.60,410.44 113.72,414.95 117.39,419.14 132.24,423.94 138.28,424.39 142.79,425.68 144.04,424.84 147.10,424.49 146.71,423.39 145.08,423.12 144.21,421.86 144.61,421.15 146.89,421.32 147.40,420.87 148.03,419.68 146.13,419.02 147.53,417.96 149.38,418.09 150.07,419.07 152.92,419.54 155.44,421.34 157.39,421.64 158.12,418.55 160.18,416.75 163.86,416.32 166.07,414.88 168.13,414.50 169.75,414.83 173.42,413.75 176.87,410.57 179.27,411.53 179.35,412.06 181.45,411.77 183.18,410.37 185.01,411.24 195.93,410.16 197.76,411.32 198.89,413.47 202.64,414.23 203.16,413.23 205.67,411.64 209.94,410.62 209.37,409.64 210.41,409.07 209.12,409.15 209.26,410.07 208.01,409.17 207.22,410.22 206.93,409.13 205.80,408.52 205.08,409.09 205.97,409.30 205.27,410.33 204.00,409.65 204.14,408.86 202.72,409.05 201.99,408.17 202.38,407.92 202.91,408.90 202.55,408.40 203.72,408.01 203.09,407.87 203.32,406.74 204.85,405.15 212.54,399.83 211.53,400.20 211.15,399.57 211.89,399.28 211.15,399.45 210.81,398.80 213.18,399.33 214.60,397.86 214.21,396.99 217.61,397.25 212.77,399.67 214.22,399.28 237.93,385.46 233.67,387.49 223.24,394.22 220.15,395.43 217.60,394.31 216.88,394.73 214.87,392.31 215.38,391.95 214.88,392.16 214.46,391.50 217.52,390.27 216.91,390.14 217.20,389.61 217.56,390.35 220.78,390.03 220.81,387.64 221.74,387.75 222.59,390.19 224.66,391.02 223.28,388.37 223.75,384.68 224.20,383.97 224.38,387.70 225.91,388.64 226.90,386.62 227.10,383.05 225.97,381.89 227.57,379.64 228.81,380.52 228.87,383.10 231.08,384.32 232.93,386.85 233.78,385.34 234.30,385.88 235.12,385.58 235.05,382.84 236.61,381.47 236.69,379.01 237.45,379.28 237.46,381.11 238.43,381.99 237.99,385.48 239.16,385.10 245.73,381.05 249.71,377.26 250.79,376.11 249.50,377.13 248.36,375.23 249.66,374.83 251.12,373.13 253.72,372.52 254.89,371.34 253.73,369.62 255.09,370.89 255.89,370.88 256.70,369.63 256.98,370.09 256.14,371.49 250.85,375.90 260.72,368.17 258.93,368.80 257.84,368.12 256.46,365.15 254.85,364.24 253.97,361.03 254.68,360.68 253.42,359.87 252.65,359.39 251.64,359.84 249.81,359.55 249.43,358.73 246.80,357.75 244.34,357.69 238.70,354.21 235.48,350.88 238.34,347.38 242.02,346.34 244.43,346.61 245.15,347.76 244.04,349.24 245.78,349.70 247.86,353.25 249.90,350.00 249.19,348.04 249.82,347.49 250.70,347.92 251.09,353.29 253.30,354.76 256.74,355.06 258.40,356.95 257.19,360.09 261.22,363.02 262.85,363.23 263.29,364.19 260.72,368.17 263.52,364.80 265.45,363.81 274.87,352.11 273.23,351.83 272.60,350.16 271.79,350.72 271.29,350.25 272.19,350.15 272.06,347.25 272.29,349.58 274.76,351.68 277.11,349.12 279.65,348.04 281.29,343.78 280.42,342.00 280.99,341.15 280.03,340.77 280.38,340.00 279.35,340.47 279.54,339.76 278.31,339.51 278.16,338.62 279.05,338.70 278.39,338.34 278.76,337.20 280.25,335.88 283.42,335.39 284.17,336.30 285.09,336.28 288.67,334.85 297.46,332.76 297.38,330.53 296.09,328.81 297.78,328.95 297.45,330.01 298.32,331.42 297.71,332.77 308.21,330.68 312.63,332.07 313.89,332.27 314.80,331.80 319.89,332.81 320.67,331.31 322.79,330.94 323.86,331.63 324.97,330.60 324.34,330.42 324.85,329.32 327.63,328.39 329.33,326.04 329.37,323.99 328.28,323.59 328.09,322.86 325.39,321.97 325.37,319.09 326.17,322.22 329.87,322.57 330.57,324.16 331.08,322.78 331.93,322.89 331.14,320.94 332.13,321.78 332.22,320.77 336.63,319.03 336.30,316.64 336.98,318.86 334.43,321.09 332.89,321.55 333.60,322.79 332.82,322.96 332.02,324.56 332.42,325.69 330.29,326.54 331.02,327.32 330.43,328.40 326.68,330.80 325.17,330.94 331.14,331.35 333.66,332.61 336.47,329.93 339.70,329.28 346.46,330.93 348.75,330.98 350.26,331.83 356.71,330.15 357.53,328.83 357.77,325.32 359.00,323.98 357.46,323.93 355.41,321.79 355.65,319.64 358.26,316.45 362.00,314.54 363.78,312.11 363.48,310.41 362.62,310.15 362.55,310.73 360.19,311.00 357.39,309.54 360.85,306.59 361.29,305.32 356.77,306.42 355.37,306.23 354.34,305.30 353.68,304.30 354.23,301.15 355.80,301.51 356.82,300.31 356.57,299.30 357.15,299.33 355.50,298.32 352.72,297.76 352.01,296.23 353.55,294.70 352.22,293.14 347.55,291.71 346.53,290.77 346.61,288.62 349.10,286.33 347.58,285.78 346.64,286.12 345.41,284.53 347.08,285.98 348.02,285.67 348.92,286.26 346.70,289.21 347.24,291.09 352.35,292.87 353.80,294.33 352.68,292.80 354.07,293.75 354.50,294.78 353.55,297.54 355.03,298.18 356.56,297.95 358.40,299.86 354.74,302.93 354.44,303.69 355.03,303.63 355.54,305.24 356.01,304.87 356.49,305.61 356.88,305.23 357.72,305.56 360.53,304.08 363.47,304.80 363.63,307.03 362.02,306.62 359.74,308.57 359.78,309.58 360.10,309.78"/>
  </g>
  <g>
  </g>
  <g>
    <text x="1092" y="168" font-family="Helvetica, Arial, sans-serif" font-size="18" font-weight="700" fill="#16324f">Слои и длины</text>
    <line x1="1092" y1="206" x2="1126" y2="206" stroke="#7a8b99" stroke-width="1.80" stroke-opacity="0.85" stroke-dasharray="8 6"/>
    <text x="1138" y="204" font-family="Helvetica, Arial, sans-serif" font-size="13" fill="#16324f">Реальная загруженная</text>
    <text x="1138" y="219" font-family="Helvetica, Arial, sans-serif" font-size="13" fill="#16324f">полилиния (справочно)</text>
    <text x="1138" y="236" font-family="Helvetica, Arial, sans-serif" font-size="12" fill="#6b7a87">6391 км</text>
    <line x1="1092" y1="250" x2="1356" y2="250" stroke="#ddd6c8" stroke-width="1"/>
    <line x1="1092" y1="274" x2="1126" y2="274" stroke="#1f6f8b" stroke-width="2.20" stroke-opacity="0.35"/>
    <text x="1138" y="272" font-family="Helvetica, Arial, sans-serif" font-size="13" fill="#16324f">Эрозия шаг 0</text>
    <text x="1138" y="289" font-family="Helvetica, Arial, sans-serif" font-size="12" fill="#6b7a87">6391 км</text>
    <line x1="1092" y1="303" x2="1356" y2="303" stroke="#ddd6c8" stroke-width="1"/>
    <line x1="1092" y1="327" x2="1126" y2="327" stroke="#c06c3f" stroke-width="2.20" stroke-opacity="1.00"/>
    <text x="1138" y="325" font-family="Helvetica, Arial, sans-serif" font-size="13" fill="#16324f">Эрозия шаг 1</text>
    <text x="1138" y="342" font-family="Helvetica, Arial, sans-serif" font-size="12" fill="#6b7a87">7050 км</text>
  </g>
  <g>
    <rect x="1092" y="384" width="264" height="108" rx="18" fill="#f8f6ef" stroke="#d6d0c4"/>
    <text x="1106" y="404" font-family="Helvetica, Arial, sans-serif" font-size="14" font-weight="700" fill="#16324f">Контроль геометрии</text>
    <text x="1106" y="436" font-family="Helvetica, Arial, sans-serif" font-size="12" fill="#4f6d7a">Сегменты &gt; 450 км</text>
    <text x="1342" y="436" text-anchor="end" font-family="Helvetica, Arial, sans-serif" font-size="13" font-weight="700" fill="#3f6b4b">0</text>
    <line x1="1106" y1="440" x2="1342" y2="440" stroke="#e7e1d5" stroke-width="1"/>
    <text x="1106" y="458" font-family="Helvetica, Arial, sans-serif" font-size="12" fill="#4f6d7a">Повторы ориентиров</text>
    <text x="1342" y="458" text-anchor="end" font-family="Helvetica, Arial, sans-serif" font-size="13" font-weight="700" fill="#3f6b4b">0</text>
    <line x1="1106" y1="462" x2="1342" y2="462" stroke="#e7e1d5" stroke-width="1"/>
    <text x="1106" y="480" font-family="Helvetica, Arial, sans-serif" font-size="12" fill="#4f6d7a">Автоисправления</text>
    <text x="1342" y="480" text-anchor="end" font-family="Helvetica, Arial, sans-serif" font-size="13" font-weight="700" fill="#3f6b4b">0</text>
  </g>
  <g>
  </g>
  <g>
  </g>
  <g>
    <rect x="1092" y="608" width="264" height="186" rx="18" fill="#f8f6ef" stroke="#d6d0c4"/>
    <text x="1106" y="628" font-family="Helvetica, Arial, sans-serif" font-size="14" font-weight="700" fill="#16324f">Сводка</text>
    <text x="1106" y="650" font-family="Helvetica, Arial, sans-serif" font-size="12" fill="#4f6d7a">Реальная линия: 6391 км, 9635 т.</text>
    <line x1="1106" y1="670" x2="1342" y2="670" stroke="#e7e1d5" stroke-width="1"/>
    <text x="1106" y="678" font-family="Helvetica, Arial, sans-serif" font-size="12" fill="#4f6d7a">База модели: 6391 км, 9635 т.</text>
    <text x="1106" y="694" font-family="Helvetica, Arial, sans-serif" font-size="12" fill="#4f6d7a">(+0.0% к реальной)</text>
    <line x1="1106" y1="714" x2="1342" y2="714" stroke="#e7e1d5" stroke-width="1"/>
    <text x="1106" y="722" font-family="Helvetica, Arial, sans-serif" font-size="12" fill="#4f6d7a">Шаг 1: 7050 км, 9635 т. расчёт /</text>
    <text x="1106" y="738" font-family="Helvetica, Arial, sans-serif" font-size="12" fill="#4f6d7a">1800 т. SVG</text>
    <line x1="1106" y1="758" x2="1342" y2="758" stroke="#e7e1d5" stroke-width="1"/>
    <text x="1106" y="766" font-family="Helvetica, Arial, sans-serif" font-size="12" fill="#4f6d7a">Эрозия: σ=150 м, seed=42</text>
  </g>
  <g>
    <line x1="56" y1="802" x2="479" y2="802" stroke="#16324f" stroke-width="3"/>
    <line x1="56" y1="795" x2="56" y2="809" stroke="#16324f" stroke-width="6"/>
    <line x1="479" y1="795" x2="479" y2="809" stroke="#16324f" stroke-width="6"/>
    <text x="56" y="788" font-family="Helvetica, Arial, sans-serif" font-size="13" fill="#16324f">Масштаб ≈ 500 км</text>  </g>
</svg>
