<?xml version="1.0" encoding="UTF-8"?>
<svg xmlns="http://www.w3.org/2000/svg" width="1440" height="1083" viewBox="0 0 1440 1083">
  <rect width="100%" height="100%" fill="#f7f4ea"/>
  <rect x="20" y="20" width="1400" height="1043" rx="28" fill="#fcfbf7" stroke="#d6d0c4"/>
  <rect x="1072" y="20" width="304" height="1043" rx="24" fill="#f0ece2" stroke="#d6d0c4"/>
  <g>
  <text x="56" y="58" font-family="Helvetica, Arial, sans-serif" font-size="30" font-weight="700" fill="#16324f">Organic Koch — итерация 1</text>
  <text x="56" y="108" font-family="Helvetica, Arial, sans-serif" font-size="14" fill="#4f6d7a">Серая пунктирная линия показывает реальную загруженную береговую линию; цветные слои строятся от упрощённой базы модели и</text>
  <text x="56" y="126" font-family="Helvetica, Arial, sans-serif" font-size="14" fill="#4f6d7a">упрощены для рендера</text>
  <text x="56" y="152" font-family="Helvetica, Arial, sans-serif" font-size="13" fill="#6b7a87">SVG содержит исходную полилинию, фрактальные итерации, масштаб и длину по слоям.</text>
  </g>
  <g>
    <polyline fill="none" stroke="#7a8b99" stroke-width="1.80" stroke-opacity="0.85" stroke-linejoin="round" stroke-linecap="round" stroke-dasharray="8 6" points="359.94,318.67 361.39,319.08 361.97,318.56 363.59,318.33 363.30,318.13 364.65,318.14 365.80,319.99 364.81,321.68 364.92,323.03 362.96,324.02 362.59,324.43 363.10,324.62 362.28,325.25 360.75,325.41 360.74,327.66 358.82,328.85 359.78,329.53 359.01,330.20 360.26,329.77 359.61,331.62 360.75,331.97 362.49,334.15 362.00,336.14 362.68,337.51 365.85,339.90 367.59,340.57 370.07,340.44 371.36,340.96 373.57,344.48 380.95,342.10 383.86,343.24 384.98,344.76 390.18,345.12 395.67,343.57 396.23,342.01 395.94,343.50 398.35,341.94 400.82,341.85 399.44,341.25 399.70,340.70 400.65,340.58 400.92,340.95 401.64,340.29 402.58,340.27 402.23,340.63 402.71,340.60 402.88,341.19 402.19,340.95 401.47,341.35 401.05,340.97 401.09,341.82 403.88,341.31 403.84,340.79 404.30,341.09 409.24,337.57 413.05,336.49 417.72,336.41 426.15,332.52 430.00,331.90 434.09,331.85 441.21,328.98 450.70,329.09 452.42,329.78 455.39,329.13 456.86,329.70 455.45,330.73 451.12,331.52 440.99,329.34 434.66,332.15 426.33,332.88 419.50,336.38 415.37,337.22 411.11,337.45 409.03,338.15 406.32,339.96 405.10,341.02 405.59,341.29 404.75,341.32 400.43,345.78 398.42,345.70 395.16,348.04 391.24,348.12 386.67,349.33 383.42,349.09 385.86,349.86 385.23,350.42 385.86,350.55 388.75,349.25 391.52,348.65 392.91,348.88 391.50,350.21 388.80,350.83 384.77,350.63 380.19,349.64 377.40,349.68 375.13,349.06 377.09,349.21 374.22,347.69 373.76,347.81 374.55,348.19 374.53,348.84 371.36,348.28 365.56,349.30 365.40,348.60 365.19,349.15 363.40,348.99 357.74,347.60 357.55,346.91 358.07,346.73 356.35,346.25 357.17,347.15 355.54,347.40 350.69,346.49 347.48,345.18 341.41,345.84 335.67,345.85 332.75,344.76 331.04,343.11 333.22,345.45 339.58,349.16 344.15,352.85 343.52,352.30 344.44,352.56 343.37,352.05 343.76,350.51 344.69,349.71 346.96,349.12 356.36,350.92 360.92,352.46 359.21,351.69 361.55,352.06 360.06,351.56 360.91,351.63 362.18,352.22 360.85,352.16 361.97,352.42 364.17,351.46 365.87,352.16 366.63,354.01 368.08,355.28 367.67,356.27 366.41,356.61 365.69,356.23 364.52,357.85 361.33,358.93 357.18,359.61 356.60,359.57 358.89,359.36 353.11,359.50 349.46,360.32 349.75,360.51 347.99,361.31 347.62,362.16 348.19,361.89 348.87,362.31 349.45,363.51 349.14,364.24 350.11,363.55 349.93,363.15 350.40,363.67 351.29,363.40 351.56,364.19 352.57,363.17 353.00,363.41 352.50,363.68 353.42,363.55 353.73,364.00 355.07,363.52 355.50,364.26 357.01,362.45 356.54,361.92 356.30,362.47 355.87,362.35 355.76,361.02 356.99,360.79 356.97,361.83 360.02,362.18 359.34,362.16 360.39,362.51 360.64,363.48 361.29,363.68 360.67,363.53 360.87,363.88 361.20,364.18 361.76,363.90 361.30,364.17 362.08,364.75 363.64,364.89 364.17,364.25 363.94,365.01 364.80,365.23 365.59,365.36 365.15,364.95 365.67,364.75 366.04,365.44 367.19,364.75 368.75,365.76 368.57,365.33 369.22,365.32 370.16,367.11 370.91,367.09 370.73,367.41 371.86,368.08 372.85,368.19 372.73,367.86 373.20,368.48 375.17,368.50 377.54,370.40 377.10,369.83 377.85,369.90 377.87,369.45 378.79,369.29 380.26,369.80 380.82,370.77 380.24,370.91 380.07,370.37 379.66,370.75 380.19,372.00 379.38,373.16 367.51,370.65 391.70,376.03 400.80,377.72 401.01,376.63 404.84,375.48 407.72,374.97 409.69,375.42 413.67,374.85 416.08,373.88 420.06,374.68 423.20,374.20 425.59,375.08 433.52,374.63 433.96,374.47 432.84,374.38 432.67,373.91 433.66,372.81 433.16,371.85 434.40,371.56 436.26,371.74 437.32,373.01 440.84,373.71 444.15,371.59 444.94,370.37 444.35,368.97 445.18,369.44 446.85,367.56 445.56,370.38 447.07,371.72 445.81,372.43 445.07,374.32 445.40,374.88 445.98,374.97 445.77,373.60 446.60,373.15 448.55,372.75 450.87,373.13 452.33,373.86 452.82,374.75 452.12,375.89 450.65,375.60 450.90,376.93 453.01,376.99 452.49,376.81 452.83,375.11 454.05,374.39 454.98,375.61 456.81,376.11 456.47,377.09 460.14,380.05 460.85,380.07 460.23,379.79 460.47,379.37 461.89,379.33 462.98,378.74 465.59,380.23 466.65,380.03 464.93,378.56 465.29,377.05 466.55,376.59 470.01,377.05 466.60,375.48 466.17,373.95 466.94,374.32 468.19,374.06 468.59,372.91 469.99,372.80 470.80,371.48 471.82,371.50 472.92,372.43 475.11,376.85 473.90,377.43 473.25,378.52 474.43,384.50 473.46,385.78 474.78,386.03 474.88,385.57 476.19,385.18 481.69,385.37 482.56,385.66 483.01,386.58 482.32,387.05 480.71,387.12 478.79,388.41 478.31,388.08 477.74,388.32 477.87,392.70 476.17,390.83 474.96,390.66 473.17,389.57 470.91,391.10 470.05,390.99 468.42,393.26 467.75,392.54 465.70,392.95 465.11,391.97 464.26,392.07 460.10,393.58 460.08,394.19 459.79,393.81 459.53,394.19 459.75,394.89 459.37,394.20 455.99,396.51 449.57,398.68 446.30,398.77 444.18,397.76 442.98,396.53 442.25,399.69 441.14,401.05 436.31,402.10 428.71,404.98 424.55,407.11 419.80,409.85 419.56,410.28 420.87,410.32 421.26,410.91 420.03,412.22 420.26,412.64 419.48,411.95 418.52,412.30 418.47,412.67 419.19,412.57 419.33,413.30 415.85,414.00 418.35,412.38 417.38,411.75 412.22,413.98 412.10,414.92 410.82,415.28 411.33,414.87 410.83,414.39 403.62,417.25 400.49,419.02 396.46,422.96 397.17,423.71 398.37,423.87 398.98,424.76 397.50,426.38 408.22,428.44 413.40,425.69 416.82,424.91 425.23,425.30 428.50,426.42 430.51,427.67 430.65,427.33 426.63,425.49 429.58,425.96 430.66,425.38 430.95,426.27 432.20,425.59 432.45,424.89 434.77,424.69 434.87,423.95 436.09,423.49 438.25,423.68 438.13,423.30 440.50,422.26 440.95,421.53 441.73,421.62 442.34,420.35 443.79,420.11 444.41,419.42 445.55,419.81 443.87,420.88 443.07,420.46 441.78,422.22 439.55,423.20 440.60,423.52 439.30,423.50 438.44,424.74 437.23,424.75 437.05,424.28 435.96,424.63 434.81,426.06 436.33,426.10 436.43,426.44 435.74,426.89 435.54,426.45 435.01,426.82 433.59,426.69 434.27,427.60 433.51,427.62 433.18,428.94 430.86,427.79 436.33,431.23 439.28,434.08 441.08,434.94 441.87,436.08 444.20,437.27 446.95,437.86 449.07,439.70 450.72,439.71 452.34,437.98 455.48,437.92 457.63,436.44 459.64,436.70 461.66,437.62 465.45,440.00 469.65,444.01 472.30,449.22 472.58,451.02 472.09,451.49 473.11,455.21 472.75,458.43 471.76,460.21 470.37,460.74 469.12,460.54 468.86,460.95 468.90,462.52 467.74,463.88 468.71,468.11 468.58,472.01 467.90,473.80 466.60,474.30 466.12,475.12 469.71,475.13 471.69,475.93 467.72,475.68 467.42,476.76 467.28,475.58 466.82,475.86 465.99,475.38 465.38,476.13 463.74,475.98 463.58,476.70 463.31,476.04 462.21,476.19 461.98,477.10 461.37,476.44 460.19,477.23 461.18,478.68 459.78,477.63 459.50,479.23 459.30,478.35 458.83,478.85 458.90,477.40 457.26,477.94 459.77,480.25 463.24,482.05 464.59,483.74 465.44,483.33 469.25,484.42 471.94,483.84 473.32,484.39 474.67,485.45 475.61,488.58 477.21,489.13 479.54,488.91 481.57,491.21 484.27,491.25 489.88,489.86 497.30,490.93 500.41,489.83 501.57,489.95 503.75,488.81 507.87,488.40 510.71,483.90 516.28,483.12 518.14,480.80 519.97,480.00 522.76,480.33 522.91,477.98 524.35,477.35 524.69,476.00 527.47,471.81 530.44,469.18 535.39,467.40 536.70,466.48 538.93,466.01 540.16,465.12 550.76,462.15 556.39,462.25 558.21,461.79 560.81,462.23 561.38,461.27 564.76,460.52 566.16,461.27 566.96,460.88 569.01,461.26 570.36,462.34 570.03,463.22 572.46,463.83 575.74,461.74 576.12,459.27 577.76,456.77 583.24,455.19 584.00,453.90 583.62,452.85 584.22,452.28 585.55,451.86 586.75,452.39 588.73,451.84 590.65,452.20 590.76,452.70 592.95,453.35 593.29,452.82 591.93,452.75 590.83,451.44 591.00,450.75 591.57,450.16 595.68,448.89 592.94,447.67 593.65,445.60 597.22,443.04 603.16,441.20 608.48,441.18 616.10,443.47 621.64,446.81 621.78,448.29 623.17,448.87 622.96,449.49 623.66,449.84 628.58,448.40 631.44,448.90 633.48,448.03 634.70,446.88 636.54,446.37 649.75,447.85 651.57,446.35 655.31,445.77 659.76,445.77 664.56,443.84 665.19,442.92 677.31,440.23 682.89,441.62 684.24,442.36 689.76,441.76 695.47,442.66 711.87,447.48 719.80,451.39 723.58,455.08 723.60,456.32 722.15,457.13 725.07,459.96 725.20,461.52 727.90,464.35 728.23,465.85 727.60,466.08 729.24,466.50 729.72,467.36 734.74,470.42 739.13,471.66 740.07,471.51 743.84,472.37 746.20,472.15 749.32,473.26 751.92,473.43 755.74,472.52 756.90,471.46 755.49,470.28 755.24,468.51 754.69,468.53 755.56,467.76 755.91,468.12 756.28,467.77 756.29,468.56 757.34,468.47 756.67,468.86 757.57,468.39 758.31,468.68 758.29,469.02 759.05,469.08 758.81,469.66 759.61,469.72 761.61,471.41 763.88,472.32 765.08,473.73 763.28,474.73 765.16,476.64 768.63,478.54 768.64,478.95 771.64,479.51 772.01,479.05 771.45,477.99 772.92,477.81 774.09,478.36 774.79,479.66 772.99,480.17 778.22,483.44 779.95,486.42 781.44,487.07 783.36,489.16 784.69,489.59 789.47,489.80 792.39,491.09 792.84,491.73 795.08,492.42 797.84,492.01 808.11,493.73 810.54,494.86 811.52,494.85 812.45,495.60 817.03,496.45 818.06,497.06 820.20,497.03 823.22,498.35 828.32,504.07 829.62,504.75 831.25,504.74 834.65,506.08 837.23,506.44 838.96,508.13 839.71,510.78 842.41,511.10 842.33,511.53 843.39,511.84 847.46,515.89 857.28,521.24 859.58,523.97 861.00,524.52 864.42,527.15 868.78,531.85 876.63,537.39 878.43,539.84 884.06,542.27 885.65,545.54 886.75,546.50 893.11,549.09 896.84,551.25 899.75,556.82 901.52,557.95 904.54,558.93 910.37,559.49 915.89,561.95 921.52,563.63 923.02,567.10 923.71,572.10 927.95,575.03 929.73,573.63 931.72,573.24 936.75,575.53 940.23,575.45 944.23,578.81 948.50,578.13 951.77,579.13 955.93,579.03 963.10,579.80 964.49,580.57 970.38,586.20 971.03,586.22 972.16,585.24 975.42,585.28 977.87,588.28 979.76,595.58 982.68,598.74 984.67,599.10 986.65,598.34 988.34,598.52 992.25,599.43 993.87,600.29 999.21,601.15 1001.09,602.61 1001.25,602.12 1001.28,602.55 1002.09,602.50 1002.76,603.09 1004.60,606.00 1007.30,612.61 1010.20,626.07 1010.54,625.43 1010.39,626.23 1012.58,627.30 1014.95,632.31 1016.01,636.13 1015.27,638.09 1015.82,638.53 1019.34,639.33 1022.43,640.91 1024.59,640.32 1024.79,640.00 1023.82,639.83 1023.68,639.36 1025.96,638.11 1028.30,639.03 1030.84,638.23 1032.10,639.85 1033.20,638.99 1035.00,639.54 1037.34,638.55 1037.64,639.33 1038.92,638.98 1041.11,639.95 1041.59,640.69 1042.36,640.00 1044.39,640.07 1045.77,640.83 1047.37,640.67 1048.32,641.74 1051.20,641.43 1052.51,642.09 1053.59,643.58 1058.10,645.24 1059.53,645.35 1060.66,643.96 1063.52,644.48 1063.19,643.18 1064.00,642.84 1063.31,643.24 1063.74,644.48 1062.34,644.63 1060.70,644.10 1060.14,645.34 1058.73,645.58 1053.64,643.92 1052.53,642.25 1051.51,641.83 1047.88,641.95 1047.25,640.85 1045.80,641.03 1044.48,640.25 1042.72,640.25 1041.57,640.87 1038.96,639.23 1037.56,639.51 1037.15,638.68 1035.00,639.90 1033.19,639.18 1032.08,640.12 1030.45,638.41 1028.84,639.35 1025.45,638.51 1024.03,639.65 1025.28,639.71 1025.16,640.53 1022.38,641.29 1019.12,639.34 1016.76,639.25 1015.98,640.38 1016.96,641.86 1016.33,642.46 1019.92,646.31 1020.67,645.91 1019.49,643.04 1023.62,643.28 1024.47,644.12 1023.75,644.28 1023.37,645.44 1020.71,646.02 1022.38,646.77 1021.93,648.04 1021.38,647.74 1021.84,648.50 1020.69,646.09 1020.69,646.70 1020.14,646.58 1023.40,651.20 1023.77,650.62 1025.17,661.93 1024.73,665.33 1020.63,673.12 1017.63,676.18 1016.26,676.42 1015.59,675.73 1012.24,678.38 1011.00,680.10 1010.54,683.34 1007.85,687.55 1004.60,689.00 1000.42,693.98 999.70,694.45 995.81,694.97 993.47,696.27 990.57,697.06 988.31,699.04 984.77,700.74 982.78,701.16 981.13,702.79 975.56,705.93 967.85,708.25 964.08,707.84 959.13,709.28 956.72,711.01 953.66,714.26 951.66,714.98 951.09,714.73 945.71,716.96 943.76,717.11 941.81,718.32 940.28,718.31 939.33,717.64 940.08,717.55 938.63,717.42 933.71,718.46 930.84,718.48 922.06,724.34 917.49,725.97 915.40,726.09 911.34,725.79 907.35,722.94 905.46,723.10 904.42,722.57 900.34,723.26 895.31,723.06 893.45,721.19 890.06,720.03 887.74,720.17 887.26,719.62 886.02,719.38 882.30,720.54 881.06,720.41 880.06,719.68 875.64,718.45 870.25,713.99 865.69,712.94 862.35,714.80 856.57,716.83 854.39,717.00 852.57,716.43 851.21,715.16 848.34,714.84 845.22,716.73 841.18,717.65 837.90,718.00 837.11,717.62 833.51,717.66 832.87,717.25 828.67,719.42 825.60,719.89 824.93,719.43 818.05,723.53 815.34,723.63 813.23,721.94 811.94,721.99 809.75,723.75 805.55,725.83 802.23,726.05 801.46,725.70 798.79,726.19 796.86,725.92 796.09,725.33 793.83,726.34 791.56,725.61 788.75,723.90 782.49,724.34 782.00,724.09 782.38,723.97 779.86,723.32 778.49,723.38 769.75,721.51 765.31,721.22 765.33,721.68 764.96,721.14 761.85,721.18 760.67,719.19 756.82,718.48 755.10,716.64 754.32,715.43 755.32,712.32 754.32,712.53 752.94,712.10 749.77,712.49 748.28,710.95 746.33,712.32 743.82,715.46 743.32,716.88 742.23,717.66 738.45,718.78 736.44,718.28 735.23,717.51 734.56,715.99 730.64,714.81 728.94,713.21 722.00,711.83 721.52,711.31 721.91,710.35 711.25,710.09 705.54,708.34 704.28,707.53 703.81,706.77 704.36,706.76 703.30,705.74 703.79,705.78 703.86,703.28 702.63,701.44 693.69,697.42 689.07,696.33 681.78,695.59 679.24,694.42 679.00,695.53 678.56,694.27 676.45,695.39 676.07,695.93 676.48,696.26 672.85,700.75 670.50,702.08 666.18,703.57 661.53,703.27 660.56,702.86 659.96,701.95 660.32,701.76 658.17,701.12 658.04,700.19 657.92,700.82 657.34,700.35 657.62,699.09 658.54,699.22 650.93,696.36 650.13,694.99 643.36,688.91 642.52,686.16 643.39,682.51 642.31,677.97 638.29,673.73 631.38,670.50 618.89,674.95 609.76,677.14 605.20,677.54 598.67,676.43 594.92,673.99 585.67,671.83 584.67,671.06 584.82,670.32 581.00,668.34 579.99,666.61 580.91,665.93 578.70,664.81 577.54,663.36 575.97,662.48 575.40,660.76 574.17,659.93 573.00,657.91 573.37,654.90 575.12,651.69 576.82,650.97 580.71,651.75 581.15,651.26 579.70,649.75 578.43,649.80 575.54,650.97 571.68,650.63 569.90,649.77 569.65,649.01 570.38,648.55 569.74,648.54 569.94,648.03 568.04,646.32 563.17,645.96 563.44,647.57 560.69,650.91 558.36,652.72 553.51,655.57 548.20,656.36 537.08,656.20 533.64,655.39 532.41,654.17 531.46,654.87 528.64,654.86 525.87,655.83 523.22,656.26 522.21,655.87 521.67,656.36 519.47,656.57 511.16,655.33 510.79,654.87 505.73,654.00 500.80,653.77 492.69,654.48 484.51,654.40 483.66,653.82 481.85,654.12 473.66,653.59 462.44,651.77 459.96,652.03 458.09,651.45 454.58,651.22 449.51,653.28 446.08,653.95 443.81,654.83 443.11,655.59 433.54,657.51 432.82,658.31 430.46,658.87 430.13,659.32 430.69,659.33 429.79,659.95 423.09,661.55 422.31,662.12 416.55,662.11 415.88,662.82 412.52,662.85 411.91,663.53 410.34,663.61 409.84,664.05 403.32,664.27 402.80,665.36 397.79,666.02 396.86,667.38 395.42,667.92 394.71,667.75 393.15,668.64 392.14,670.20 390.52,670.01 390.57,669.50 389.92,669.24 390.04,669.63 388.74,669.87 388.63,670.56 387.13,670.65 387.05,671.33 384.63,671.15 383.22,671.54 379.75,673.66 380.11,673.99 379.26,673.85 379.59,674.74 379.16,675.22 375.80,676.88 376.21,677.46 373.68,679.38 367.60,680.88 368.26,681.64 367.44,681.03 366.05,681.36 363.63,683.26 359.31,684.22 357.71,685.00 356.94,684.77 357.28,684.99 353.51,686.38 352.38,687.54 349.63,688.74 349.13,689.19 349.55,689.46 347.46,689.44 346.89,690.52 342.54,692.56 339.76,693.27 338.37,694.32 332.44,695.54 329.44,696.57 327.95,698.03 325.90,698.03 324.82,698.91 323.49,698.84 322.91,700.33 324.88,701.53 324.65,702.39 323.66,701.85 324.10,705.80 318.43,711.46 313.27,713.21 304.52,713.93 301.20,714.89 297.29,715.28 290.58,715.30 279.95,714.36 272.94,711.48 259.71,709.74 252.76,707.72 251.20,706.62 250.36,706.88 247.67,706.29 247.26,705.80 245.77,707.60 243.99,707.59 244.58,708.15 243.75,708.26 244.12,709.26 241.80,709.28 241.72,710.33 240.96,709.82 240.92,710.22 239.19,710.88 236.77,710.50 235.67,711.10 235.54,710.71 231.98,711.16 230.73,710.72 230.19,711.19 229.95,710.81 227.56,711.10 226.51,710.67 222.79,710.48 220.44,710.77 219.46,710.49 218.67,710.89 213.20,709.36 210.71,709.73 208.49,709.10 206.80,709.26 202.42,707.88 201.80,708.11 202.34,708.07 201.90,708.59 201.02,708.72 195.43,707.74 187.58,705.65 185.28,705.93 181.05,705.21 178.67,704.65 178.57,704.29 177.57,704.80 175.74,704.60 175.55,705.30 172.57,705.03 172.16,705.48 166.98,703.60 166.47,703.00 166.11,703.44 163.77,702.78 163.46,703.55 161.39,703.63 156.06,701.82 154.17,701.88 152.70,701.40 152.65,700.98 150.34,700.82 148.49,699.57 146.65,699.77 146.54,699.05 143.39,698.00 142.79,698.29 140.31,697.27 139.87,696.66 139.14,697.00 136.27,696.52 131.67,694.27 112.04,686.67 109.26,684.78 108.44,684.78 108.59,684.39 106.15,682.63 105.96,681.55 103.80,681.06 103.33,679.81 100.16,677.53 99.53,675.86 100.76,675.00 100.33,674.23 97.97,672.64 96.41,670.77 96.44,669.28 93.36,666.34 92.19,663.79 92.17,661.68 91.66,661.70 94.56,659.72 96.43,660.66 97.52,660.44 96.60,658.41 97.00,656.27 96.54,655.12 95.42,654.29 96.06,653.73 95.90,652.96 94.25,651.05 94.68,650.73 93.93,649.74 92.63,648.95 93.07,648.30 91.64,648.15 90.01,645.53 88.54,645.69 87.77,645.10 87.81,644.12 86.61,642.92 85.23,642.49 85.12,641.69 84.68,642.01 84.33,641.37 83.65,641.35 84.13,640.84 82.56,639.84 82.90,639.42 81.43,639.14 81.43,638.57 80.42,637.94 79.58,638.05 78.50,637.12 79.05,636.50 76.69,635.56 76.98,634.70 77.80,634.63 77.01,634.11 76.87,633.26 78.29,632.64 78.03,632.28 79.75,631.82 78.29,630.94 78.91,630.67 79.04,629.85 77.25,630.02 76.86,630.61 76.01,630.42 74.13,628.02 74.02,627.48 74.95,626.95 73.92,626.66 73.74,625.90 74.01,625.51 74.97,625.55 75.32,624.86 73.71,624.93 73.22,623.72 72.55,623.79 72.73,624.19 71.60,624.92 70.61,624.79 69.54,623.89 69.58,623.52 70.38,623.46 69.75,622.91 70.06,622.11 68.91,622.21 68.57,621.51 68.24,622.44 67.56,622.56 65.64,621.25 64.85,621.95 65.26,622.45 64.09,622.46 62.47,621.67 61.72,623.07 60.55,623.62 58.42,621.35 57.60,622.42 56.00,621.40 56.87,619.53 57.15,620.08 57.38,619.59 57.93,619.92 58.41,619.60 58.68,619.99 59.10,616.96 61.26,614.91 62.42,614.80 63.76,615.37 65.52,614.41 66.57,614.89 67.61,614.40 68.91,614.74 69.29,615.35 70.04,615.07 68.77,613.10 69.11,610.01 69.84,609.36 71.78,609.63 72.78,608.51 74.02,608.91 74.52,608.19 76.12,608.00 74.98,607.92 74.12,607.18 74.30,605.69 75.13,604.71 86.89,605.21 86.08,601.73 86.92,600.40 85.64,595.83 86.27,594.86 87.07,594.82 86.59,590.62 87.30,589.74 85.87,584.53 86.04,582.55 87.76,580.76 90.01,573.43 87.93,573.23 85.02,571.70 81.04,572.72 73.67,571.75 71.80,572.38 71.37,572.09 71.03,572.54 71.23,572.13 70.44,572.56 69.81,572.12 72.63,571.58 76.35,571.68 77.72,572.12 78.80,571.47 79.19,571.76 79.67,571.17 79.96,571.55 82.25,571.84 84.01,570.79 85.33,570.80 86.65,571.82 87.59,572.11 88.12,571.77 88.34,572.16 88.45,571.35 89.71,570.75 91.88,570.18 93.43,570.42 94.68,569.66 94.89,568.59 95.54,568.31 99.58,559.81 103.89,557.63 107.04,558.10 114.51,556.73 117.71,557.04 121.73,558.80 124.23,559.32 125.13,560.66 125.46,559.20 127.32,557.18 128.59,556.89 130.76,555.21 133.24,551.83 134.77,548.48 132.25,545.06 132.78,541.89 131.74,539.19 131.83,537.95 132.70,537.35 132.83,531.65 133.78,530.97 132.85,531.41 132.11,530.80 130.93,530.97 130.55,530.40 130.09,530.79 129.30,530.44 130.21,530.66 130.50,530.17 131.00,530.77 131.23,530.48 132.82,530.86 133.37,530.31 133.59,528.30 134.84,527.42 135.11,524.29 136.67,522.55 136.50,521.01 138.79,518.27 136.82,512.20 137.17,511.70 140.21,511.47 140.67,510.41 140.15,511.36 138.88,511.27 139.39,510.51 139.16,510.90 138.79,510.41 138.74,510.90 138.52,510.02 137.90,510.60 137.74,510.01 137.52,511.03 135.76,510.56 137.22,510.39 137.40,509.81 136.83,509.46 137.75,508.72 137.66,509.85 138.01,508.60 138.48,509.72 137.95,509.87 139.43,510.15 138.21,508.57 138.59,507.80 137.50,508.06 138.75,507.21 137.13,507.33 137.88,507.01 137.13,506.86 137.87,506.79 137.68,505.93 141.47,510.08 138.18,506.40 138.61,505.83 138.00,505.04 138.14,503.83 137.24,502.77 137.62,502.50 136.91,502.64 136.37,502.17 135.61,499.86 135.62,498.26 136.77,495.50 140.28,495.48 136.10,495.39 137.07,495.31 137.31,494.88 137.72,495.23 139.07,494.93 138.37,494.79 138.69,493.99 139.35,494.13 139.32,494.74 139.92,494.27 140.60,495.66 140.32,493.88 140.67,494.08 141.57,492.05 150.90,483.61 158.62,473.52 162.74,469.67 167.63,466.39 171.80,464.87 178.16,463.47 198.76,461.63 199.92,460.91 200.91,461.10 201.98,460.58 202.96,458.09 200.07,456.72 197.18,454.10 193.93,452.49 191.88,452.76 192.62,452.04 192.10,451.76 190.18,451.71 187.52,453.53 185.98,453.02 187.01,451.95 187.02,450.79 185.08,452.67 184.76,450.88 183.57,451.70 182.36,451.81 182.51,450.79 180.49,449.41 181.69,448.45 180.06,448.50 179.46,448.10 180.05,447.20 177.61,447.29 173.67,446.52 176.09,444.97 175.73,444.10 173.81,442.71 170.30,442.61 170.00,443.48 171.94,443.39 172.19,443.77 171.90,444.35 169.89,444.99 164.77,441.90 160.78,441.19 158.32,440.05 155.17,439.44 153.96,437.40 151.94,436.31 149.69,436.22 147.45,437.53 146.80,436.79 147.01,435.66 144.40,435.16 143.58,434.43 141.40,434.82 136.58,433.52 131.43,433.09 127.11,431.39 124.11,430.47 123.54,430.68 118.70,429.01 116.22,427.79 113.90,424.16 112.56,423.08 112.83,420.96 112.26,419.81 108.01,418.06 112.64,419.46 113.46,423.10 117.52,428.01 126.47,430.64 132.20,432.88 137.27,433.12 142.14,434.51 147.19,433.29 146.71,432.29 144.93,431.89 144.28,430.48 144.98,429.99 147.40,429.69 148.00,428.69 146.26,427.78 147.63,426.88 149.17,426.99 150.94,428.23 153.03,428.39 155.16,430.01 157.43,430.67 158.09,429.85 157.65,428.49 160.17,425.66 163.96,425.19 166.56,423.60 168.28,423.45 169.56,423.85 172.77,422.92 176.84,419.58 180.76,420.83 183.27,419.34 186.21,420.09 193.58,418.94 195.60,419.10 197.75,420.25 198.95,422.28 202.23,423.26 205.59,420.56 209.82,419.49 210.07,417.91 209.12,418.15 209.16,418.79 207.73,418.18 207.30,419.07 206.71,418.44 206.99,417.97 205.83,417.54 205.21,418.04 205.86,418.52 205.17,419.25 204.02,418.51 203.85,417.67 202.87,417.96 202.06,417.20 202.41,416.85 202.92,417.64 202.74,416.98 203.55,416.91 203.42,415.65 205.01,414.01 207.99,411.52 212.58,408.75 211.59,409.20 211.34,408.42 211.93,408.36 211.13,408.22 211.01,407.71 213.28,408.21 213.87,406.96 214.48,406.96 214.87,406.35 214.29,405.84 217.62,406.16 213.31,408.46 219.03,405.56 237.86,394.45 221.69,403.75 220.28,404.11 217.60,403.29 216.95,403.66 214.58,400.11 215.28,400.41 217.29,399.12 217.27,398.56 217.65,399.08 220.79,398.87 220.91,396.51 221.61,396.75 222.59,399.03 224.51,399.88 223.10,397.27 223.84,393.08 224.10,392.85 224.38,396.51 225.95,397.66 227.09,394.56 227.04,391.86 226.18,390.60 227.58,388.61 228.84,389.51 229.09,392.29 231.09,393.27 233.07,395.79 233.88,394.23 234.16,394.81 235.03,394.46 235.54,393.03 235.06,391.90 236.72,390.35 236.28,389.29 236.63,387.96 237.16,387.97 238.24,390.89 238.42,394.20 243.65,391.39 249.12,386.73 250.69,385.04 249.41,386.15 248.45,384.09 249.03,384.11 251.42,382.01 253.64,381.44 254.81,380.44 253.81,378.58 255.21,379.68 256.75,378.55 256.38,380.16 250.70,385.01 260.83,377.11 258.94,377.69 258.06,377.03 256.35,373.95 254.42,372.55 254.12,369.91 254.59,369.77 252.83,368.46 251.45,368.72 249.76,368.39 249.57,367.75 248.37,367.19 244.29,366.42 238.75,363.10 235.69,359.77 235.98,358.66 238.38,356.32 241.96,355.23 244.65,355.70 245.27,356.44 244.06,358.13 245.71,358.66 247.02,361.61 247.86,362.00 249.57,360.04 249.91,358.51 249.25,356.94 249.99,356.44 250.70,357.01 251.21,359.23 250.76,361.48 251.22,362.15 253.17,363.52 256.65,364.07 258.41,365.90 256.99,368.19 257.33,368.89 258.89,370.40 263.32,372.62 262.82,374.61 260.97,376.04 260.86,376.92 263.51,373.71 266.68,371.37 274.80,360.92 273.36,360.50 272.80,359.22 271.78,359.53 271.26,359.13 271.82,359.35 272.22,358.95 272.08,356.19 272.40,358.52 274.65,360.47 277.07,357.97 279.72,356.81 281.09,352.05 280.24,348.94 279.96,349.37 279.34,349.13 279.56,348.76 278.99,348.92 278.22,348.03 279.02,345.91 281.64,344.56 283.54,344.45 285.02,345.01 289.55,343.47 297.20,341.82 297.35,339.72 296.41,337.67 297.59,337.92 298.28,340.76 297.73,341.63 308.19,339.70 312.71,340.92 315.73,340.75 319.99,341.59 320.45,340.52 321.38,340.05 324.18,340.31 324.94,339.45 324.47,339.33 324.72,338.29 327.63,337.25 328.45,335.61 329.28,335.45 329.46,332.85 328.41,332.50 328.05,331.72 325.71,330.97 325.29,327.96 325.83,328.34 326.32,331.15 327.82,330.96 329.53,331.48 330.60,332.98 331.85,331.64 331.09,329.86 331.97,330.45 332.45,329.41 336.61,327.82 336.22,325.58 337.08,326.91 336.92,328.02 334.45,329.80 333.03,330.23 333.62,331.70 332.14,333.40 332.42,334.66 330.28,335.42 330.88,336.10 330.45,337.31 326.76,339.67 325.20,339.84 329.97,339.92 333.64,341.57 336.46,338.84 339.58,338.21 343.47,338.82 345.86,339.72 348.69,339.95 350.29,340.92 356.51,338.99 357.58,337.77 357.30,336.38 357.96,333.89 358.94,332.81 357.66,332.74 356.40,331.67 355.47,330.30 355.54,328.65 358.16,325.30 360.18,324.64 361.97,323.36 363.81,320.81 363.63,319.95 363.07,319.15 361.53,319.74 359.02,319.53 357.50,318.40 358.39,317.03 360.94,315.33 361.11,314.31 356.76,315.33 355.57,315.12 354.35,314.16 353.57,312.50 354.23,310.12 355.92,310.33 356.91,309.17 356.66,308.12 357.16,308.10 355.57,307.20 352.72,306.57 352.20,305.22 353.55,303.64 352.22,302.05 346.95,300.03 346.57,297.96 347.47,296.49 349.00,295.55 348.07,294.67 346.82,294.82 345.61,293.55 346.88,294.74 348.07,294.59 349.09,295.39 347.36,296.81 346.74,298.03 347.17,300.03 352.20,301.74 353.85,303.32 353.11,301.78 354.47,303.70 353.39,305.65 353.73,306.50 354.96,307.01 356.97,307.05 358.12,308.20 357.86,309.66 355.82,310.90 354.39,312.64 354.72,312.48 355.68,314.01 356.13,313.79 356.64,314.48 360.67,312.90 362.27,313.09 363.15,313.74 363.56,315.97 362.66,315.43 361.43,315.99 359.68,317.59 359.91,318.53 359.94,318.67"/>
    <polyline fill="none" stroke="#1f6f8b" stroke-width="2.10" stroke-opacity="0.38" stroke-linejoin="round" stroke-linecap="round" points="359.94,318.67 361.39,319.08 361.97,318.56 363.59,318.33 363.30,318.13 364.65,318.14 365.80,319.99 364.81,321.68 364.92,323.03 362.96,324.02 362.59,324.43 363.10,324.62 362.28,325.25 360.75,325.41 360.74,327.66 358.82,328.85 359.78,329.53 359.01,330.20 360.26,329.77 359.61,331.62 360.75,331.97 362.49,334.15 362.00,336.14 362.68,337.51 365.85,339.90 367.59,340.57 370.07,340.44 371.36,340.96 373.57,344.48 380.95,342.10 383.86,343.24 384.98,344.76 390.18,345.12 395.67,343.57 396.23,342.01 395.94,343.50 398.35,341.94 400.82,341.85 399.44,341.25 399.70,340.70 400.65,340.58 400.92,340.95 401.64,340.29 402.58,340.27 402.23,340.63 402.71,340.60 402.88,341.19 402.19,340.95 401.47,341.35 401.05,340.97 401.09,341.82 403.88,341.31 403.84,340.79 404.30,341.09 409.24,337.57 413.05,336.49 417.72,336.41 426.15,332.52 430.00,331.90 434.09,331.85 441.21,328.98 450.70,329.09 452.42,329.78 455.39,329.13 456.86,329.70 455.45,330.73 451.12,331.52 440.99,329.34 434.66,332.15 426.33,332.88 419.50,336.38 415.37,337.22 411.11,337.45 409.03,338.15 406.32,339.96 405.10,341.02 405.59,341.29 404.75,341.32 400.43,345.78 398.42,345.70 395.16,348.04 391.24,348.12 386.67,349.33 383.42,349.09 385.86,349.86 385.23,350.42 385.86,350.55 388.75,349.25 391.52,348.65 392.91,348.88 391.50,350.21 388.80,350.83 384.77,350.63 380.19,349.64 377.40,349.68 375.13,349.06 377.09,349.21 374.22,347.69 373.76,347.81 374.55,348.19 374.53,348.84 371.36,348.28 365.56,349.30 365.40,348.60 365.19,349.15 363.40,348.99 357.74,347.60 357.55,346.91 358.07,346.73 356.35,346.25 357.17,347.15 355.54,347.40 350.69,346.49 347.48,345.18 341.41,345.84 335.67,345.85 332.75,344.76 331.04,343.11 333.22,345.45 339.58,349.16 344.15,352.85 343.52,352.30 344.44,352.56 343.37,352.05 343.76,350.51 344.69,349.71 346.96,349.12 356.36,350.92 360.92,352.46 359.21,351.69 361.55,352.06 360.06,351.56 360.91,351.63 362.18,352.22 360.85,352.16 361.97,352.42 364.17,351.46 365.87,352.16 366.63,354.01 368.08,355.28 367.67,356.27 366.41,356.61 365.69,356.23 364.52,357.85 361.33,358.93 357.18,359.61 356.60,359.57 358.89,359.36 353.11,359.50 349.46,360.32 349.75,360.51 347.99,361.31 347.62,362.16 348.19,361.89 348.87,362.31 349.45,363.51 349.14,364.24 350.11,363.55 349.93,363.15 350.40,363.67 351.29,363.40 351.56,364.19 352.57,363.17 353.00,363.41 352.50,363.68 353.42,363.55 353.73,364.00 355.07,363.52 355.50,364.26 357.01,362.45 356.54,361.92 356.30,362.47 355.87,362.35 355.76,361.02 356.99,360.79 356.97,361.83 360.02,362.18 359.34,362.16 360.39,362.51 360.64,363.48 361.29,363.68 360.67,363.53 360.87,363.88 361.20,364.18 361.76,363.90 361.30,364.17 362.08,364.75 363.64,364.89 364.17,364.25 363.94,365.01 364.80,365.23 365.59,365.36 365.15,364.95 365.67,364.75 366.04,365.44 367.19,364.75 368.75,365.76 368.57,365.33 369.22,365.32 370.16,367.11 370.91,367.09 370.73,367.41 371.86,368.08 372.85,368.19 372.73,367.86 373.20,368.48 375.17,368.50 377.54,370.40 377.10,369.83 377.85,369.90 377.87,369.45 378.79,369.29 380.26,369.80 380.82,370.77 380.24,370.91 380.07,370.37 379.66,370.75 380.19,372.00 379.38,373.16 367.51,370.65 391.70,376.03 400.80,377.72 401.01,376.63 404.84,375.48 407.72,374.97 409.69,375.42 413.67,374.85 416.08,373.88 420.06,374.68 423.20,374.20 425.59,375.08 433.52,374.63 433.96,374.47 432.84,374.38 432.67,373.91 433.66,372.81 433.16,371.85 434.40,371.56 436.26,371.74 437.32,373.01 440.84,373.71 444.15,371.59 444.94,370.37 444.35,368.97 445.18,369.44 446.85,367.56 445.56,370.38 447.07,371.72 445.81,372.43 445.07,374.32 445.40,374.88 445.98,374.97 445.77,373.60 446.60,373.15 448.55,372.75 450.87,373.13 452.33,373.86 452.82,374.75 452.12,375.89 450.65,375.60 450.90,376.93 453.01,376.99 452.49,376.81 452.83,375.11 454.05,374.39 454.98,375.61 456.81,376.11 456.47,377.09 460.14,380.05 460.85,380.07 460.23,379.79 460.47,379.37 461.89,379.33 462.98,378.74 465.59,380.23 466.65,380.03 464.93,378.56 465.29,377.05 466.55,376.59 470.01,377.05 466.60,375.48 466.17,373.95 466.94,374.32 468.19,374.06 468.59,372.91 469.99,372.80 470.80,371.48 471.82,371.50 472.92,372.43 475.11,376.85 473.90,377.43 473.25,378.52 474.43,384.50 473.46,385.78 474.78,386.03 474.88,385.57 476.19,385.18 481.69,385.37 482.56,385.66 483.01,386.58 482.32,387.05 480.71,387.12 478.79,388.41 478.31,388.08 477.74,388.32 477.87,392.70 476.17,390.83 474.96,390.66 473.17,389.57 470.91,391.10 470.05,390.99 468.42,393.26 467.75,392.54 465.70,392.95 465.11,391.97 464.26,392.07 460.10,393.58 460.08,394.19 459.79,393.81 459.53,394.19 459.75,394.89 459.37,394.20 455.99,396.51 449.57,398.68 446.30,398.77 444.18,397.76 442.98,396.53 442.25,399.69 441.14,401.05 436.31,402.10 428.71,404.98 424.55,407.11 419.80,409.85 419.56,410.28 420.87,410.32 421.26,410.91 420.03,412.22 420.26,412.64 419.48,411.95 418.52,412.30 418.47,412.67 419.19,412.57 419.33,413.30 415.85,414.00 418.35,412.38 417.38,411.75 412.22,413.98 412.10,414.92 410.82,415.28 411.33,414.87 410.83,414.39 403.62,417.25 400.49,419.02 396.46,422.96 397.17,423.71 398.37,423.87 398.98,424.76 397.50,426.38 408.22,428.44 413.40,425.69 416.82,424.91 425.23,425.30 428.50,426.42 430.51,427.67 430.65,427.33 426.63,425.49 429.58,425.96 430.66,425.38 430.95,426.27 432.20,425.59 432.45,424.89 434.77,424.69 434.87,423.95 436.09,423.49 438.25,423.68 438.13,423.30 440.50,422.26 440.95,421.53 441.73,421.62 442.34,420.35 443.79,420.11 444.41,419.42 445.55,419.81 443.87,420.88 443.07,420.46 441.78,422.22 439.55,423.20 440.60,423.52 439.30,423.50 438.44,424.74 437.23,424.75 437.05,424.28 435.96,424.63 434.81,426.06 436.33,426.10 436.43,426.44 435.74,426.89 435.54,426.45 435.01,426.82 433.59,426.69 434.27,427.60 433.51,427.62 433.18,428.94 430.86,427.79 436.33,431.23 439.28,434.08 441.08,434.94 441.87,436.08 444.20,437.27 446.95,437.86 449.07,439.70 450.72,439.71 452.34,437.98 455.48,437.92 457.63,436.44 459.64,436.70 461.66,437.62 465.45,440.00 469.65,444.01 472.30,449.22 472.58,451.02 472.09,451.49 473.11,455.21 472.75,458.43 471.76,460.21 470.37,460.74 469.12,460.54 468.86,460.95 468.90,462.52 467.74,463.88 468.71,468.11 468.58,472.01 467.90,473.80 466.60,474.30 466.12,475.12 469.71,475.13 471.69,475.93 467.72,475.68 467.42,476.76 467.28,475.58 466.82,475.86 465.99,475.38 465.38,476.13 463.74,475.98 463.58,476.70 463.31,476.04 462.21,476.19 461.98,477.10 461.37,476.44 460.19,477.23 461.18,478.68 459.78,477.63 459.50,479.23 459.30,478.35 458.83,478.85 458.90,477.40 457.26,477.94 459.77,480.25 463.24,482.05 464.59,483.74 465.44,483.33 469.25,484.42 471.94,483.84 473.32,484.39 474.67,485.45 475.61,488.58 477.21,489.13 479.54,488.91 481.57,491.21 484.27,491.25 489.88,489.86 497.30,490.93 500.41,489.83 501.57,489.95 503.75,488.81 507.87,488.40 510.71,483.90 516.28,483.12 518.14,480.80 519.97,480.00 522.76,480.33 522.91,477.98 524.35,477.35 524.69,476.00 527.47,471.81 530.44,469.18 535.39,467.40 536.70,466.48 538.93,466.01 540.16,465.12 550.76,462.15 556.39,462.25 558.21,461.79 560.81,462.23 561.38,461.27 564.76,460.52 566.16,461.27 566.96,460.88 569.01,461.26 570.36,462.34 570.03,463.22 572.46,463.83 575.74,461.74 576.12,459.27 577.76,456.77 583.24,455.19 584.00,453.90 583.62,452.85 584.22,452.28 585.55,451.86 586.75,452.39 588.73,451.84 590.65,452.20 590.76,452.70 592.95,453.35 593.29,452.82 591.93,452.75 590.83,451.44 591.00,450.75 591.57,450.16 595.68,448.89 592.94,447.67 593.65,445.60 597.22,443.04 603.16,441.20 608.48,441.18 616.10,443.47 621.64,446.81 621.78,448.29 623.17,448.87 622.96,449.49 623.66,449.84 628.58,448.40 631.44,448.90 633.48,448.03 634.70,446.88 636.54,446.37 649.75,447.85 651.57,446.35 655.31,445.77 659.76,445.77 664.56,443.84 665.19,442.92 677.31,440.23 682.89,441.62 684.24,442.36 689.76,441.76 695.47,442.66 711.87,447.48 719.80,451.39 723.58,455.08 723.60,456.32 722.15,457.13 725.07,459.96 725.20,461.52 727.90,464.35 728.23,465.85 727.60,466.08 729.24,466.50 729.72,467.36 734.74,470.42 739.13,471.66 740.07,471.51 743.84,472.37 746.20,472.15 749.32,473.26 751.92,473.43 755.74,472.52 756.90,471.46 755.49,470.28 755.24,468.51 754.69,468.53 755.56,467.76 755.91,468.12 756.28,467.77 756.29,468.56 757.34,468.47 756.67,468.86 757.57,468.39 758.31,468.68 758.29,469.02 759.05,469.08 758.81,469.66 759.61,469.72 761.61,471.41 763.88,472.32 765.08,473.73 763.28,474.73 765.16,476.64 768.63,478.54 768.64,478.95 771.64,479.51 772.01,479.05 771.45,477.99 772.92,477.81 774.09,478.36 774.79,479.66 772.99,480.17 778.22,483.44 779.95,486.42 781.44,487.07 783.36,489.16 784.69,489.59 789.47,489.80 792.39,491.09 792.84,491.73 795.08,492.42 797.84,492.01 808.11,493.73 810.54,494.86 811.52,494.85 812.45,495.60 817.03,496.45 818.06,497.06 820.20,497.03 823.22,498.35 828.32,504.07 829.62,504.75 831.25,504.74 834.65,506.08 837.23,506.44 838.96,508.13 839.71,510.78 842.41,511.10 842.33,511.53 843.39,511.84 847.46,515.89 857.28,521.24 859.58,523.97 861.00,524.52 864.42,527.15 868.78,531.85 876.63,537.39 878.43,539.84 884.06,542.27 885.65,545.54 886.75,546.50 893.11,549.09 896.84,551.25 899.75,556.82 901.52,557.95 904.54,558.93 910.37,559.49 915.89,561.95 921.52,563.63 923.02,567.10 923.71,572.10 927.95,575.03 929.73,573.63 931.72,573.24 936.75,575.53 940.23,575.45 944.23,578.81 948.50,578.13 951.77,579.13 955.93,579.03 963.10,579.80 964.49,580.57 970.38,586.20 971.03,586.22 972.16,585.24 975.42,585.28 977.87,588.28 979.76,595.58 982.68,598.74 984.67,599.10 986.65,598.34 988.34,598.52 992.25,599.43 993.87,600.29 999.21,601.15 1001.09,602.61 1001.25,602.12 1001.28,602.55 1002.09,602.50 1002.76,603.09 1004.60,606.00 1007.30,612.61 1010.20,626.07 1010.54,625.43 1010.39,626.23 1012.58,627.30 1014.95,632.31 1016.01,636.13 1015.27,638.09 1015.82,638.53 1019.34,639.33 1022.43,640.91 1024.59,640.32 1024.79,640.00 1023.82,639.83 1023.68,639.36 1025.96,638.11 1028.30,639.03 1030.84,638.23 1032.10,639.85 1033.20,638.99 1035.00,639.54 1037.34,638.55 1037.64,639.33 1038.92,638.98 1041.11,639.95 1041.59,640.69 1042.36,640.00 1044.39,640.07 1045.77,640.83 1047.37,640.67 1048.32,641.74 1051.20,641.43 1052.51,642.09 1053.59,643.58 1058.10,645.24 1059.53,645.35 1060.66,643.96 1063.52,644.48 1063.19,643.18 1064.00,642.84 1063.31,643.24 1063.74,644.48 1062.34,644.63 1060.70,644.10 1060.14,645.34 1058.73,645.58 1053.64,643.92 1052.53,642.25 1051.51,641.83 1047.88,641.95 1047.25,640.85 1045.80,641.03 1044.48,640.25 1042.72,640.25 1041.57,640.87 1038.96,639.23 1037.56,639.51 1037.15,638.68 1035.00,639.90 1033.19,639.18 1032.08,640.12 1030.45,638.41 1028.84,639.35 1025.45,638.51 1024.03,639.65 1025.28,639.71 1025.16,640.53 1022.38,641.29 1019.12,639.34 1016.76,639.25 1015.98,640.38 1016.96,641.86 1016.33,642.46 1019.92,646.31 1020.67,645.91 1019.49,643.04 1023.62,643.28 1024.47,644.12 1023.75,644.28 1023.37,645.44 1020.71,646.02 1022.38,646.77 1021.93,648.04 1021.38,647.74 1021.84,648.50 1020.69,646.09 1020.69,646.70 1020.14,646.58 1023.40,651.20 1023.77,650.62 1025.17,661.93 1024.73,665.33 1020.63,673.12 1017.63,676.18 1016.26,676.42 1015.59,675.73 1012.24,678.38 1011.00,680.10 1010.54,683.34 1007.85,687.55 1004.60,689.00 1000.42,693.98 999.70,694.45 995.81,694.97 993.47,696.27 990.57,697.06 988.31,699.04 984.77,700.74 982.78,701.16 981.13,702.79 975.56,705.93 967.85,708.25 964.08,707.84 959.13,709.28 956.72,711.01 953.66,714.26 951.66,714.98 951.09,714.73 945.71,716.96 943.76,717.11 941.81,718.32 940.28,718.31 939.33,717.64 940.08,717.55 938.63,717.42 933.71,718.46 930.84,718.48 922.06,724.34 917.49,725.97 915.40,726.09 911.34,725.79 907.35,722.94 905.46,723.10 904.42,722.57 900.34,723.26 895.31,723.06 893.45,721.19 890.06,720.03 887.74,720.17 887.26,719.62 886.02,719.38 882.30,720.54 881.06,720.41 880.06,719.68 875.64,718.45 870.25,713.99 865.69,712.94 862.35,714.80 856.57,716.83 854.39,717.00 852.57,716.43 851.21,715.16 848.34,714.84 845.22,716.73 841.18,717.65 837.90,718.00 837.11,717.62 833.51,717.66 832.87,717.25 828.67,719.42 825.60,719.89 824.93,719.43 818.05,723.53 815.34,723.63 813.23,721.94 811.94,721.99 809.75,723.75 805.55,725.83 802.23,726.05 801.46,725.70 798.79,726.19 796.86,725.92 796.09,725.33 793.83,726.34 791.56,725.61 788.75,723.90 782.49,724.34 782.00,724.09 782.38,723.97 779.86,723.32 778.49,723.38 769.75,721.51 765.31,721.22 765.33,721.68 764.96,721.14 761.85,721.18 760.67,719.19 756.82,718.48 755.10,716.64 754.32,715.43 755.32,712.32 754.32,712.53 752.94,712.10 749.77,712.49 748.28,710.95 746.33,712.32 743.82,715.46 743.32,716.88 742.23,717.66 738.45,718.78 736.44,718.28 735.23,717.51 734.56,715.99 730.64,714.81 728.94,713.21 722.00,711.83 721.52,711.31 721.91,710.35 711.25,710.09 705.54,708.34 704.28,707.53 703.81,706.77 704.36,706.76 703.30,705.74 703.79,705.78 703.86,703.28 702.63,701.44 693.69,697.42 689.07,696.33 681.78,695.59 679.24,694.42 679.00,695.53 678.56,694.27 676.45,695.39 676.07,695.93 676.48,696.26 672.85,700.75 670.50,702.08 666.18,703.57 661.53,703.27 660.56,702.86 659.96,701.95 660.32,701.76 658.17,701.12 658.04,700.19 657.92,700.82 657.34,700.35 657.62,699.09 658.54,699.22 650.93,696.36 650.13,694.99 643.36,688.91 642.52,686.16 643.39,682.51 642.31,677.97 638.29,673.73 631.38,670.50 618.89,674.95 609.76,677.14 605.20,677.54 598.67,676.43 594.92,673.99 585.67,671.83 584.67,671.06 584.82,670.32 581.00,668.34 579.99,666.61 580.91,665.93 578.70,664.81 577.54,663.36 575.97,662.48 575.40,660.76 574.17,659.93 573.00,657.91 573.37,654.90 575.12,651.69 576.82,650.97 580.71,651.75 581.15,651.26 579.70,649.75 578.43,649.80 575.54,650.97 571.68,650.63 569.90,649.77 569.65,649.01 570.38,648.55 569.74,648.54 569.94,648.03 568.04,646.32 563.17,645.96 563.44,647.57 560.69,650.91 558.36,652.72 553.51,655.57 548.20,656.36 537.08,656.20 533.64,655.39 532.41,654.17 531.46,654.87 528.64,654.86 525.87,655.83 523.22,656.26 522.21,655.87 521.67,656.36 519.47,656.57 511.16,655.33 510.79,654.87 505.73,654.00 500.80,653.77 492.69,654.48 484.51,654.40 483.66,653.82 481.85,654.12 473.66,653.59 462.44,651.77 459.96,652.03 458.09,651.45 454.58,651.22 449.51,653.28 446.08,653.95 443.81,654.83 443.11,655.59 433.54,657.51 432.82,658.31 430.46,658.87 430.13,659.32 430.69,659.33 429.79,659.95 423.09,661.55 422.31,662.12 416.55,662.11 415.88,662.82 412.52,662.85 411.91,663.53 410.34,663.61 409.84,664.05 403.32,664.27 402.80,665.36 397.79,666.02 396.86,667.38 395.42,667.92 394.71,667.75 393.15,668.64 392.14,670.20 390.52,670.01 390.57,669.50 389.92,669.24 390.04,669.63 388.74,669.87 388.63,670.56 387.13,670.65 387.05,671.33 384.63,671.15 383.22,671.54 379.75,673.66 380.11,673.99 379.26,673.85 379.59,674.74 379.16,675.22 375.80,676.88 376.21,677.46 373.68,679.38 367.60,680.88 368.26,681.64 367.44,681.03 366.05,681.36 363.63,683.26 359.31,684.22 357.71,685.00 356.94,684.77 357.28,684.99 353.51,686.38 352.38,687.54 349.63,688.74 349.13,689.19 349.55,689.46 347.46,689.44 346.89,690.52 342.54,692.56 339.76,693.27 338.37,694.32 332.44,695.54 329.44,696.57 327.95,698.03 325.90,698.03 324.82,698.91 323.49,698.84 322.91,700.33 324.88,701.53 324.65,702.39 323.66,701.85 324.10,705.80 318.43,711.46 313.27,713.21 304.52,713.93 301.20,714.89 297.29,715.28 290.58,715.30 279.95,714.36 272.94,711.48 259.71,709.74 252.76,707.72 251.20,706.62 250.36,706.88 247.67,706.29 247.26,705.80 245.77,707.60 243.99,707.59 244.58,708.15 243.75,708.26 244.12,709.26 241.80,709.28 241.72,710.33 240.96,709.82 240.92,710.22 239.19,710.88 236.77,710.50 235.67,711.10 235.54,710.71 231.98,711.16 230.73,710.72 230.19,711.19 229.95,710.81 227.56,711.10 226.51,710.67 222.79,710.48 220.44,710.77 219.46,710.49 218.67,710.89 213.20,709.36 210.71,709.73 208.49,709.10 206.80,709.26 202.42,707.88 201.80,708.11 202.34,708.07 201.90,708.59 201.02,708.72 195.43,707.74 187.58,705.65 185.28,705.93 181.05,705.21 178.67,704.65 178.57,704.29 177.57,704.80 175.74,704.60 175.55,705.30 172.57,705.03 172.16,705.48 166.98,703.60 166.47,703.00 166.11,703.44 163.77,702.78 163.46,703.55 161.39,703.63 156.06,701.82 154.17,701.88 152.70,701.40 152.65,700.98 150.34,700.82 148.49,699.57 146.65,699.77 146.54,699.05 143.39,698.00 142.79,698.29 140.31,697.27 139.87,696.66 139.14,697.00 136.27,696.52 131.67,694.27 112.04,686.67 109.26,684.78 108.44,684.78 108.59,684.39 106.15,682.63 105.96,681.55 103.80,681.06 103.33,679.81 100.16,677.53 99.53,675.86 100.76,675.00 100.33,674.23 97.97,672.64 96.41,670.77 96.44,669.28 93.36,666.34 92.19,663.79 92.17,661.68 91.66,661.70 94.56,659.72 96.43,660.66 97.52,660.44 96.60,658.41 97.00,656.27 96.54,655.12 95.42,654.29 96.06,653.73 95.90,652.96 94.25,651.05 94.68,650.73 93.93,649.74 92.63,648.95 93.07,648.30 91.64,648.15 90.01,645.53 88.54,645.69 87.77,645.10 87.81,644.12 86.61,642.92 85.23,642.49 85.12,641.69 84.68,642.01 84.33,641.37 83.65,641.35 84.13,640.84 82.56,639.84 82.90,639.42 81.43,639.14 81.43,638.57 80.42,637.94 79.58,638.05 78.50,637.12 79.05,636.50 76.69,635.56 76.98,634.70 77.80,634.63 77.01,634.11 76.87,633.26 78.29,632.64 78.03,632.28 79.75,631.82 78.29,630.94 78.91,630.67 79.04,629.85 77.25,630.02 76.86,630.61 76.01,630.42 74.13,628.02 74.02,627.48 74.95,626.95 73.92,626.66 73.74,625.90 74.01,625.51 74.97,625.55 75.32,624.86 73.71,624.93 73.22,623.72 72.55,623.79 72.73,624.19 71.60,624.92 70.61,624.79 69.54,623.89 69.58,623.52 70.38,623.46 69.75,622.91 70.06,622.11 68.91,622.21 68.57,621.51 68.24,622.44 67.56,622.56 65.64,621.25 64.85,621.95 65.26,622.45 64.09,622.46 62.47,621.67 61.72,623.07 60.55,623.62 58.42,621.35 57.60,622.42 56.00,621.40 56.87,619.53 57.15,620.08 57.38,619.59 57.93,619.92 58.41,619.60 58.68,619.99 59.10,616.96 61.26,614.91 62.42,614.80 63.76,615.37 65.52,614.41 66.57,614.89 67.61,614.40 68.91,614.74 69.29,615.35 70.04,615.07 68.77,613.10 69.11,610.01 69.84,609.36 71.78,609.63 72.78,608.51 74.02,608.91 74.52,608.19 76.12,608.00 74.98,607.92 74.12,607.18 74.30,605.69 75.13,604.71 86.89,605.21 86.08,601.73 86.92,600.40 85.64,595.83 86.27,594.86 87.07,594.82 86.59,590.62 87.30,589.74 85.87,584.53 86.04,582.55 87.76,580.76 90.01,573.43 87.93,573.23 85.02,571.70 81.04,572.72 73.67,571.75 71.80,572.38 71.37,572.09 71.03,572.54 71.23,572.13 70.44,572.56 69.81,572.12 72.63,571.58 76.35,571.68 77.72,572.12 78.80,571.47 79.19,571.76 79.67,571.17 79.96,571.55 82.25,571.84 84.01,570.79 85.33,570.80 86.65,571.82 87.59,572.11 88.12,571.77 88.34,572.16 88.45,571.35 89.71,570.75 91.88,570.18 93.43,570.42 94.68,569.66 94.89,568.59 95.54,568.31 99.58,559.81 103.89,557.63 107.04,558.10 114.51,556.73 117.71,557.04 121.73,558.80 124.23,559.32 125.13,560.66 125.46,559.20 127.32,557.18 128.59,556.89 130.76,555.21 133.24,551.83 134.77,548.48 132.25,545.06 132.78,541.89 131.74,539.19 131.83,537.95 132.70,537.35 132.83,531.65 133.78,530.97 132.85,531.41 132.11,530.80 130.93,530.97 130.55,530.40 130.09,530.79 129.30,530.44 130.21,530.66 130.50,530.17 131.00,530.77 131.23,530.48 132.82,530.86 133.37,530.31 133.59,528.30 134.84,527.42 135.11,524.29 136.67,522.55 136.50,521.01 138.79,518.27 136.82,512.20 137.17,511.70 140.21,511.47 140.67,510.41 140.15,511.36 138.88,511.27 139.39,510.51 139.16,510.90 138.79,510.41 138.74,510.90 138.52,510.02 137.90,510.60 137.74,510.01 137.52,511.03 135.76,510.56 137.22,510.39 137.40,509.81 136.83,509.46 137.75,508.72 137.66,509.85 138.01,508.60 138.48,509.72 137.95,509.87 139.43,510.15 138.21,508.57 138.59,507.80 137.50,508.06 138.75,507.21 137.13,507.33 137.88,507.01 137.13,506.86 137.87,506.79 137.68,505.93 141.47,510.08 138.18,506.40 138.61,505.83 138.00,505.04 138.14,503.83 137.24,502.77 137.62,502.50 136.91,502.64 136.37,502.17 135.61,499.86 135.62,498.26 136.77,495.50 140.28,495.48 136.10,495.39 137.07,495.31 137.31,494.88 137.72,495.23 139.07,494.93 138.37,494.79 138.69,493.99 139.35,494.13 139.32,494.74 139.92,494.27 140.60,495.66 140.32,493.88 140.67,494.08 141.57,492.05 150.90,483.61 158.62,473.52 162.74,469.67 167.63,466.39 171.80,464.87 178.16,463.47 198.76,461.63 199.92,460.91 200.91,461.10 201.98,460.58 202.96,458.09 200.07,456.72 197.18,454.10 193.93,452.49 191.88,452.76 192.62,452.04 192.10,451.76 190.18,451.71 187.52,453.53 185.98,453.02 187.01,451.95 187.02,450.79 185.08,452.67 184.76,450.88 183.57,451.70 182.36,451.81 182.51,450.79 180.49,449.41 181.69,448.45 180.06,448.50 179.46,448.10 180.05,447.20 177.61,447.29 173.67,446.52 176.09,444.97 175.73,444.10 173.81,442.71 170.30,442.61 170.00,443.48 171.94,443.39 172.19,443.77 171.90,444.35 169.89,444.99 164.77,441.90 160.78,441.19 158.32,440.05 155.17,439.44 153.96,437.40 151.94,436.31 149.69,436.22 147.45,437.53 146.80,436.79 147.01,435.66 144.40,435.16 143.58,434.43 141.40,434.82 136.58,433.52 131.43,433.09 127.11,431.39 124.11,430.47 123.54,430.68 118.70,429.01 116.22,427.79 113.90,424.16 112.56,423.08 112.83,420.96 112.26,419.81 108.01,418.06 112.64,419.46 113.46,423.10 117.52,428.01 126.47,430.64 132.20,432.88 137.27,433.12 142.14,434.51 147.19,433.29 146.71,432.29 144.93,431.89 144.28,430.48 144.98,429.99 147.40,429.69 148.00,428.69 146.26,427.78 147.63,426.88 149.17,426.99 150.94,428.23 153.03,428.39 155.16,430.01 157.43,430.67 158.09,429.85 157.65,428.49 160.17,425.66 163.96,425.19 166.56,423.60 168.28,423.45 169.56,423.85 172.77,422.92 176.84,419.58 180.76,420.83 183.27,419.34 186.21,420.09 193.58,418.94 195.60,419.10 197.75,420.25 198.95,422.28 202.23,423.26 205.59,420.56 209.82,419.49 210.07,417.91 209.12,418.15 209.16,418.79 207.73,418.18 207.30,419.07 206.71,418.44 206.99,417.97 205.83,417.54 205.21,418.04 205.86,418.52 205.17,419.25 204.02,418.51 203.85,417.67 202.87,417.96 202.06,417.20 202.41,416.85 202.92,417.64 202.74,416.98 203.55,416.91 203.42,415.65 205.01,414.01 207.99,411.52 212.58,408.75 211.59,409.20 211.34,408.42 211.93,408.36 211.13,408.22 211.01,407.71 213.28,408.21 213.87,406.96 214.48,406.96 214.87,406.35 214.29,405.84 217.62,406.16 213.31,408.46 219.03,405.56 237.86,394.45 221.69,403.75 220.28,404.11 217.60,403.29 216.95,403.66 214.58,400.11 215.28,400.41 217.29,399.12 217.27,398.56 217.65,399.08 220.79,398.87 220.91,396.51 221.61,396.75 222.59,399.03 224.51,399.88 223.10,397.27 223.84,393.08 224.10,392.85 224.38,396.51 225.95,397.66 227.09,394.56 227.04,391.86 226.18,390.60 227.58,388.61 228.84,389.51 229.09,392.29 231.09,393.27 233.07,395.79 233.88,394.23 234.16,394.81 235.03,394.46 235.54,393.03 235.06,391.90 236.72,390.35 236.28,389.29 236.63,387.96 237.16,387.97 238.24,390.89 238.42,394.20 243.65,391.39 249.12,386.73 250.69,385.04 249.41,386.15 248.45,384.09 249.03,384.11 251.42,382.01 253.64,381.44 254.81,380.44 253.81,378.58 255.21,379.68 256.75,378.55 256.38,380.16 250.70,385.01 260.83,377.11 258.94,377.69 258.06,377.03 256.35,373.95 254.42,372.55 254.12,369.91 254.59,369.77 252.83,368.46 251.45,368.72 249.76,368.39 249.57,367.75 248.37,367.19 244.29,366.42 238.75,363.10 235.69,359.77 235.98,358.66 238.38,356.32 241.96,355.23 244.65,355.70 245.27,356.44 244.06,358.13 245.71,358.66 247.02,361.61 247.86,362.00 249.57,360.04 249.91,358.51 249.25,356.94 249.99,356.44 250.70,357.01 251.21,359.23 250.76,361.48 251.22,362.15 253.17,363.52 256.65,364.07 258.41,365.90 256.99,368.19 257.33,368.89 258.89,370.40 263.32,372.62 262.82,374.61 260.97,376.04 260.86,376.92 263.51,373.71 266.68,371.37 274.80,360.92 273.36,360.50 272.80,359.22 271.78,359.53 271.26,359.13 271.82,359.35 272.22,358.95 272.08,356.19 272.40,358.52 274.65,360.47 277.07,357.97 279.72,356.81 281.09,352.05 280.24,348.94 279.96,349.37 279.34,349.13 279.56,348.76 278.99,348.92 278.22,348.03 279.02,345.91 281.64,344.56 283.54,344.45 285.02,345.01 289.55,343.47 297.20,341.82 297.35,339.72 296.41,337.67 297.59,337.92 298.28,340.76 297.73,341.63 308.19,339.70 312.71,340.92 315.73,340.75 319.99,341.59 320.45,340.52 321.38,340.05 324.18,340.31 324.94,339.45 324.47,339.33 324.72,338.29 327.63,337.25 328.45,335.61 329.28,335.45 329.46,332.85 328.41,332.50 328.05,331.72 325.71,330.97 325.29,327.96 325.83,328.34 326.32,331.15 327.82,330.96 329.53,331.48 330.60,332.98 331.85,331.64 331.09,329.86 331.97,330.45 332.45,329.41 336.61,327.82 336.22,325.58 337.08,326.91 336.92,328.02 334.45,329.80 333.03,330.23 333.62,331.70 332.14,333.40 332.42,334.66 330.28,335.42 330.88,336.10 330.45,337.31 326.76,339.67 325.20,339.84 329.97,339.92 333.64,341.57 336.46,338.84 339.58,338.21 343.47,338.82 345.86,339.72 348.69,339.95 350.29,340.92 356.51,338.99 357.58,337.77 357.30,336.38 357.96,333.89 358.94,332.81 357.66,332.74 356.40,331.67 355.47,330.30 355.54,328.65 358.16,325.30 360.18,324.64 361.97,323.36 363.81,320.81 363.63,319.95 363.07,319.15 361.53,319.74 359.02,319.53 357.50,318.40 358.39,317.03 360.94,315.33 361.11,314.31 356.76,315.33 355.57,315.12 354.35,314.16 353.57,312.50 354.23,310.12 355.92,310.33 356.91,309.17 356.66,308.12 357.16,308.10 355.57,307.20 352.72,306.57 352.20,305.22 353.55,303.64 352.22,302.05 346.95,300.03 346.57,297.96 347.47,296.49 349.00,295.55 348.07,294.67 346.82,294.82 345.61,293.55 346.88,294.74 348.07,294.59 349.09,295.39 347.36,296.81 346.74,298.03 347.17,300.03 352.20,301.74 353.85,303.32 353.11,301.78 354.47,303.70 353.39,305.65 353.73,306.50 354.96,307.01 356.97,307.05 358.12,308.20 357.86,309.66 355.82,310.90 354.39,312.64 354.72,312.48 355.68,314.01 356.13,313.79 356.64,314.48 360.67,312.90 362.27,313.09 363.15,313.74 363.56,315.97 362.66,315.43 361.43,315.99 359.68,317.59 359.91,318.53 359.94,318.67"/>
    <polyline fill="none" stroke="#2c7a7b" stroke-width="3.60" stroke-opacity="1.00" stroke-linejoin="round" stroke-linecap="round" points="359.94,318.67 361.39,319.08 363.77,317.78 365.95,319.49 364.92,323.03 362.96,324.02 363.04,324.84 360.75,325.41 361.09,327.37 358.82,328.85 359.78,329.53 359.01,330.20 359.96,329.53 360.39,330.05 359.61,331.62 361.44,332.24 362.34,333.72 362.68,337.51 367.59,340.57 371.07,340.58 373.40,342.63 372.77,343.19 373.57,344.48 374.75,342.92 375.42,343.68 381.26,341.96 384.57,343.69 384.98,344.76 390.18,345.12 395.67,343.57 396.18,342.01 395.97,343.50 398.61,341.68 400.82,341.85 399.36,341.16 400.06,340.32 400.92,340.95 402.58,340.27 402.87,341.21 401.05,340.97 401.09,341.82 403.88,341.31 407.31,338.90 407.29,338.10 410.97,337.14 411.15,336.51 411.49,337.00 413.49,336.25 417.72,336.41 421.28,334.97 421.14,334.17 421.92,334.71 423.30,334.02 423.39,333.00 424.04,333.58 427.10,331.94 434.09,331.85 441.94,328.56 451.48,328.96 452.42,329.78 454.70,328.96 456.76,329.42 456.36,330.67 454.89,331.22 449.84,331.83 447.74,330.54 446.12,331.33 445.90,330.35 440.99,329.34 439.58,329.82 439.55,330.72 438.80,330.15 437.32,331.56 435.78,331.68 435.73,332.33 428.98,332.49 428.29,333.52 427.66,332.69 426.33,332.88 420.36,336.44 418.34,336.49 416.15,337.64 414.55,337.20 414.35,337.98 413.72,337.18 411.11,337.45 406.32,339.96 401.05,345.50 398.42,345.70 395.01,348.27 391.24,348.12 387.38,349.66 383.42,349.09 385.35,349.50 385.86,350.55 388.29,349.13 392.98,348.94 389.76,350.92 386.30,350.77 385.91,351.36 381.78,349.86 375.70,349.69 375.27,348.87 377.09,349.21 374.63,348.60 374.22,347.69 374.82,348.73 373.84,349.00 371.36,348.28 366.44,349.32 365.40,348.60 364.69,349.45 357.57,347.55 358.07,346.73 356.25,346.20 357.16,347.17 355.79,347.51 349.39,346.30 347.48,345.18 342.11,345.97 338.00,345.72 337.48,346.92 336.84,345.79 333.40,345.43 331.04,343.11 335.29,346.84 337.05,346.95 337.11,347.73 341.21,349.88 344.13,352.87 343.37,352.05 343.89,350.07 345.16,349.10 347.58,348.83 352.49,350.09 353.85,349.28 354.42,350.51 357.91,351.44 358.98,350.48 359.42,351.95 361.03,352.48 359.21,351.69 361.02,352.16 360.06,351.56 361.55,351.42 362.08,352.34 360.85,352.16 361.97,352.42 364.55,351.31 365.60,351.84 368.26,355.45 367.46,356.54 365.69,356.23 363.91,358.91 363.21,358.35 358.41,359.63 356.92,359.75 357.02,359.16 358.89,359.36 355.34,359.96 353.11,359.50 352.07,360.33 351.06,359.86 347.62,362.16 348.80,362.15 349.14,364.24 349.93,363.15 351.15,363.29 351.56,364.19 352.57,363.17 353.73,364.00 355.07,363.52 355.50,364.26 357.01,362.45 356.54,361.92 355.87,362.35 355.72,361.13 356.86,360.73 356.97,361.83 360.02,362.18 359.34,362.16 362.08,364.75 363.64,364.89 364.28,364.25 363.94,365.01 365.59,365.36 365.38,364.68 366.04,365.44 367.85,364.68 368.75,365.76 368.64,365.24 369.68,365.36 370.16,367.11 373.20,368.48 375.09,368.43 376.95,370.19 377.71,370.44 377.24,369.71 379.62,369.07 380.82,370.77 379.66,370.75 379.91,372.94 378.53,373.47 377.19,372.55 367.42,370.48 372.33,371.65 373.24,370.51 373.63,371.92 376.07,372.47 377.00,371.44 377.20,372.76 379.26,373.22 379.85,372.45 380.19,373.40 386.53,374.83 387.24,374.23 387.57,375.07 389.64,375.55 390.51,374.84 390.67,375.79 392.69,376.20 393.52,375.48 393.68,376.37 396.10,376.84 396.85,375.92 397.54,377.13 400.80,377.72 400.77,376.66 404.05,375.30 413.67,374.85 415.02,373.49 420.06,374.68 422.69,374.03 425.59,375.08 428.24,374.37 431.31,374.73 431.68,374.04 431.96,374.72 433.52,374.63 432.61,374.18 433.66,372.81 433.03,372.07 435.26,371.05 437.32,373.01 440.84,373.71 444.15,371.59 444.94,370.37 444.12,369.17 445.18,369.44 446.85,367.56 445.56,370.38 447.07,371.72 445.81,372.43 445.40,374.88 445.81,373.45 447.25,372.73 451.49,373.07 453.03,375.19 451.78,376.18 450.65,375.60 450.90,376.93 453.01,376.99 452.61,375.35 454.21,374.42 454.98,375.61 456.65,375.95 456.47,377.09 457.99,377.34 457.69,377.99 460.14,380.05 460.85,380.07 460.28,379.42 463.30,378.67 465.59,380.23 466.65,380.03 465.48,379.75 464.74,378.34 465.45,376.68 468.24,376.34 468.21,376.96 470.01,377.05 467.11,376.30 466.20,373.82 468.19,374.06 468.38,373.00 470.33,372.61 471.03,371.30 472.84,371.98 475.17,376.63 473.25,378.52 474.78,383.80 473.46,385.78 474.78,386.03 475.51,384.95 479.19,385.23 479.47,384.64 483.04,386.07 482.79,386.94 477.74,388.32 477.79,392.80 476.17,390.83 473.17,389.57 471.05,391.11 470.05,390.99 468.57,393.28 467.21,392.42 465.88,393.04 465.11,391.97 460.46,393.36 459.65,394.97 459.37,394.20 455.03,396.90 455.23,398.15 454.07,397.29 450.36,398.86 446.91,399.24 444.50,398.33 442.98,396.53 442.82,399.07 441.32,401.04 438.15,401.44 428.71,404.98 423.79,407.58 423.82,408.58 423.03,408.06 421.40,409.81 419.80,409.85 421.32,411.27 420.14,412.77 419.48,411.95 418.52,412.30 419.33,413.30 415.85,414.00 418.35,412.38 417.38,411.75 412.22,413.98 411.98,415.01 410.82,415.28 410.83,414.39 403.62,417.25 401.62,419.06 400.49,419.02 396.46,422.96 399.02,424.40 397.50,426.38 406.48,428.19 407.55,427.80 408.22,428.44 412.49,425.88 415.44,424.85 417.94,425.02 418.23,424.25 418.74,425.02 423.78,424.59 423.89,425.16 425.95,425.08 429.06,426.68 429.63,426.23 430.51,427.67 426.61,425.50 429.58,425.96 430.66,425.38 430.95,426.27 436.11,423.47 438.25,423.68 440.42,421.77 441.73,421.62 442.69,419.96 445.48,419.65 444.19,420.94 443.04,420.48 442.25,421.99 439.55,423.20 440.68,423.49 439.30,423.50 438.52,424.73 435.96,424.63 434.81,426.06 436.43,426.44 434.21,427.13 433.59,426.69 434.30,427.48 433.18,428.94 430.86,427.79 433.26,428.44 433.07,429.20 440.82,434.50 441.87,436.08 444.20,437.27 446.34,437.35 449.48,439.83 450.72,439.71 452.81,437.57 455.48,437.92 458.20,436.12 460.31,437.00 460.93,436.60 467.19,441.50 468.05,441.19 467.77,442.05 469.42,442.88 470.53,445.53 471.43,445.45 470.91,446.18 472.33,448.05 473.36,457.74 471.96,460.20 468.86,460.95 469.07,462.24 467.74,463.88 469.11,471.13 467.85,474.00 466.12,475.12 469.63,475.09 471.69,475.93 467.72,475.68 467.42,476.76 467.28,475.58 465.99,475.38 465.54,476.15 463.74,475.98 463.58,476.70 463.31,476.04 462.21,476.19 461.98,477.10 461.37,476.44 460.19,477.23 461.18,478.68 459.78,477.63 459.50,479.23 458.90,477.40 457.26,477.94 459.77,480.25 462.31,481.12 464.59,483.74 465.79,483.24 469.25,484.42 472.83,483.92 474.54,485.07 475.61,488.58 477.95,489.19 479.40,488.79 481.57,491.21 482.28,490.58 484.27,491.25 490.31,489.78 497.30,490.93 504.94,488.28 507.87,488.40 510.54,483.91 516.28,483.12 517.94,480.89 520.15,479.84 522.76,480.33 522.95,477.73 524.38,477.32 527.91,470.74 530.94,468.49 535.39,467.40 535.66,466.69 538.93,466.01 542.20,464.12 544.58,464.13 545.92,463.10 549.91,462.59 551.39,461.71 554.55,461.47 556.39,462.25 558.60,461.61 560.81,462.23 561.77,461.03 565.31,460.44 566.16,461.27 569.30,461.30 570.30,462.10 570.03,463.22 572.46,463.83 575.74,461.74 576.78,457.11 579.46,455.90 582.77,455.57 584.57,451.83 586.75,452.39 587.69,451.62 589.04,452.14 590.19,451.71 590.76,452.70 592.95,453.35 593.29,452.82 591.55,452.66 590.76,450.98 591.73,450.01 595.68,448.89 592.82,447.56 592.99,446.25 595.89,443.11 597.82,442.80 597.76,442.04 598.42,442.55 599.99,442.03 600.43,441.13 600.96,441.75 604.04,440.62 607.88,440.59 609.96,441.54 611.18,440.76 611.45,441.90 614.06,442.11 618.85,444.30 621.99,446.99 621.77,448.27 623.05,448.52 623.66,449.84 629.04,448.11 631.44,448.90 635.49,445.97 635.93,446.54 639.74,445.88 639.86,446.47 642.23,446.78 643.14,445.50 644.02,447.04 646.94,446.89 649.75,447.85 651.84,445.98 653.61,445.98 653.69,445.15 654.46,445.88 656.30,445.30 659.76,445.77 664.56,443.84 667.41,441.14 667.89,442.33 670.58,441.73 670.67,440.01 671.93,441.43 674.62,440.83 674.76,439.73 675.96,440.53 677.65,440.19 680.67,441.06 681.13,440.32 681.63,441.33 684.24,442.36 686.09,441.59 687.47,441.92 687.61,441.31 690.74,441.87 691.65,441.18 691.73,441.98 694.19,441.84 696.52,442.99 697.24,442.47 697.56,443.32 699.66,443.99 700.35,442.81 700.70,444.32 702.74,444.87 703.64,444.05 703.73,445.09 706.15,445.76 706.78,444.81 707.49,446.12 709.77,446.81 710.30,446.15 710.73,447.15 712.72,447.88 713.30,447.29 713.58,448.28 721.03,451.73 723.61,454.13 723.73,456.23 722.15,457.13 724.84,459.18 725.63,461.99 727.30,462.75 728.54,464.93 727.60,466.08 728.70,466.05 732.92,469.61 739.13,471.66 743.84,472.37 745.65,471.69 749.32,473.26 751.92,473.43 755.74,472.52 756.90,471.46 754.69,468.53 756.12,467.70 756.29,468.56 757.34,468.47 756.67,468.86 758.93,468.86 758.81,469.66 764.91,473.01 764.83,474.04 763.28,474.73 768.64,478.95 771.64,479.51 771.68,477.67 774.76,478.43 774.79,479.66 772.99,480.17 774.95,480.60 777.63,482.80 779.95,486.42 782.24,487.27 783.36,489.16 785.40,489.64 787.90,489.15 795.08,492.42 798.45,491.91 802.75,492.82 803.33,492.19 804.86,493.36 807.37,492.94 807.42,493.63 812.45,495.60 815.25,496.26 815.60,495.74 815.81,496.40 820.00,496.86 823.81,498.33 828.32,504.07 830.63,504.83 832.29,504.35 833.18,505.55 837.47,506.52 839.41,508.47 839.71,510.78 842.13,510.83 843.84,512.29 844.54,511.98 844.29,512.74 847.00,514.57 847.46,515.89 857.93,521.33 859.58,523.97 861.98,524.66 865.31,527.32 865.51,528.57 868.78,531.85 870.56,532.11 870.73,533.08 872.38,534.26 873.06,533.91 873.07,534.82 877.14,537.52 878.43,539.84 884.67,542.36 886.75,546.50 893.87,548.96 894.84,550.35 896.65,550.83 897.65,552.90 898.51,552.80 897.96,553.81 899.75,556.82 904.54,558.93 907.25,558.62 908.41,559.44 911.11,559.40 915.89,561.95 921.23,563.29 923.75,567.69 923.71,572.10 927.95,575.03 928.61,573.66 931.45,573.06 936.75,575.53 939.94,575.12 944.23,578.81 945.14,578.18 945.43,578.77 946.85,578.55 947.39,577.67 947.68,578.34 949.03,577.88 951.77,579.13 955.41,578.65 962.57,579.41 965.31,580.86 970.38,586.20 973.10,584.85 975.93,585.34 978.88,589.43 979.76,595.58 981.70,596.80 982.68,598.74 984.67,599.10 986.95,598.17 989.30,598.22 991.29,599.20 991.64,598.70 993.87,600.29 995.86,599.94 996.17,600.64 999.54,601.06 1001.09,602.61 1001.25,602.12 1003.38,603.36 1005.13,607.22 1006.14,607.56 1005.66,608.44 1008.03,615.33 1009.02,615.40 1008.25,616.36 1010.20,626.07 1010.54,625.43 1010.39,626.23 1012.80,627.46 1015.61,632.75 1015.82,638.53 1019.73,639.21 1022.43,640.91 1024.59,640.32 1023.68,639.36 1025.53,637.97 1028.30,639.03 1031.03,638.18 1032.10,639.85 1033.32,638.87 1035.00,639.54 1037.13,638.47 1037.64,639.33 1039.50,638.95 1041.59,640.69 1043.96,639.76 1045.77,640.83 1047.47,640.65 1048.32,641.74 1049.40,641.12 1052.12,641.64 1053.59,643.58 1054.77,644.04 1055.91,643.01 1055.95,644.50 1058.10,645.24 1059.53,645.35 1060.86,643.83 1063.52,644.48 1063.02,643.58 1063.94,642.80 1063.75,644.48 1062.02,644.78 1060.70,644.10 1059.88,645.57 1057.86,645.74 1053.18,643.81 1051.51,641.83 1048.22,642.14 1047.25,640.85 1045.54,641.08 1044.48,640.25 1041.78,640.95 1038.96,639.23 1037.38,639.49 1037.15,638.68 1034.76,640.00 1033.19,639.18 1032.23,640.18 1030.45,638.41 1028.36,639.54 1025.45,638.51 1024.03,639.65 1025.16,639.51 1025.12,640.62 1022.38,641.29 1019.12,639.34 1017.86,639.81 1016.76,639.25 1016.33,642.46 1019.92,646.31 1020.67,645.91 1019.44,643.03 1022.41,642.95 1024.43,643.95 1023.54,645.41 1020.71,646.02 1022.38,646.77 1021.93,648.04 1021.38,647.74 1021.93,648.47 1020.69,646.09 1020.14,646.58 1023.40,651.20 1023.77,650.62 1024.05,654.92 1024.97,655.16 1024.19,655.90 1025.46,660.90 1024.86,665.78 1020.15,674.12 1017.97,676.18 1016.56,676.62 1016.06,675.81 1014.96,676.01 1012.24,678.38 1008.73,687.14 1004.60,689.00 1001.16,693.63 999.23,694.78 996.82,694.68 990.57,697.06 985.75,700.96 985.34,700.50 982.78,701.16 980.27,703.88 979.10,703.78 976.52,706.07 974.33,706.16 973.02,707.31 971.64,706.84 967.35,708.50 964.08,707.84 959.28,709.21 953.18,714.84 951.09,714.73 946.02,717.04 943.76,717.11 942.38,718.35 939.96,718.35 939.75,717.39 932.08,718.92 930.78,718.50 921.63,724.66 914.43,726.45 910.62,726.01 907.35,722.94 905.84,723.35 903.24,722.67 899.29,723.83 899.01,723.29 895.53,723.25 893.45,721.19 886.02,719.38 881.74,720.95 880.06,719.68 874.90,718.33 874.84,717.45 873.15,716.27 872.34,716.53 872.56,715.81 870.25,713.99 865.69,712.94 860.41,716.10 858.81,716.03 857.07,717.04 853.77,716.99 851.21,715.16 848.34,714.84 847.96,716.09 847.11,715.68 844.54,717.47 842.35,717.18 838.54,718.24 832.87,717.25 831.10,718.02 831.45,719.03 830.37,718.50 829.27,719.51 825.53,719.94 824.93,719.43 823.34,720.11 822.16,721.70 820.18,722.34 820.34,723.03 819.39,722.82 817.28,724.19 814.72,723.60 813.23,721.94 811.88,722.00 806.00,725.96 802.77,726.26 801.69,725.71 797.03,726.05 796.09,725.33 794.96,726.32 792.45,726.40 788.75,723.90 785.54,724.70 783.94,724.36 783.36,725.04 782.21,723.90 776.33,722.69 775.71,723.15 774.12,722.22 768.47,721.46 767.57,722.77 767.18,721.41 762.65,721.53 760.05,718.82 757.27,719.02 755.51,717.34 754.21,715.19 755.32,712.32 750.10,712.72 748.28,710.95 746.28,712.37 743.32,716.92 740.24,718.32 739.89,719.36 739.35,718.55 737.76,718.87 736.06,718.20 734.56,715.99 730.94,715.12 728.37,712.97 727.02,713.38 725.12,712.73 725.39,712.12 722.30,712.30 721.91,710.35 715.63,710.46 715.33,711.21 714.98,710.43 710.36,709.84 709.95,710.66 709.56,709.65 704.80,708.39 703.77,707.19 703.72,702.81 701.82,700.99 699.88,700.26 698.55,700.83 698.77,699.79 696.67,698.86 695.54,699.40 695.68,698.39 692.72,697.12 691.50,696.86 690.83,698.06 690.29,696.59 684.19,695.59 682.92,696.36 682.59,695.59 680.90,695.73 679.24,694.42 679.00,695.53 678.56,694.27 676.45,695.39 675.37,698.07 671.83,701.91 667.87,703.58 661.94,703.74 660.32,701.76 658.71,701.68 658.04,700.19 657.41,700.59 657.62,699.09 658.54,699.22 651.41,696.98 647.25,692.60 645.80,692.79 646.40,691.71 643.76,689.99 642.24,686.57 643.39,682.51 642.68,679.96 641.55,679.74 642.31,677.97 638.29,673.73 631.38,670.50 628.85,672.09 626.99,672.19 627.01,672.82 626.41,672.42 624.88,673.57 622.43,673.80 622.18,675.04 620.85,674.26 616.19,675.59 615.41,676.80 615.00,675.85 607.65,677.78 604.02,677.43 603.49,678.76 602.83,677.31 598.02,676.32 594.92,673.99 592.18,673.50 591.49,674.12 591.38,673.34 586.14,672.29 584.82,670.32 583.97,670.55 581.10,668.69 579.89,666.40 580.91,665.93 577.89,664.45 577.54,663.36 576.22,663.22 575.40,660.76 573.10,658.96 572.96,655.69 575.37,651.37 576.58,650.84 580.87,651.71 579.97,649.91 578.43,649.80 574.62,651.63 574.24,651.00 573.02,651.34 570.05,650.13 570.38,648.55 568.04,646.32 563.17,645.96 562.83,648.58 559.98,652.32 559.14,652.11 557.39,653.36 557.52,654.74 556.41,654.01 553.95,655.63 550.00,655.88 547.36,656.98 546.17,656.17 544.67,656.90 540.55,656.79 539.43,655.98 535.98,656.22 533.31,655.37 532.41,654.17 523.73,656.52 522.21,655.87 521.25,656.74 511.84,655.68 510.82,654.84 509.06,655.17 507.73,654.43 507.25,655.11 507.05,654.25 502.42,653.81 490.28,654.77 486.66,654.17 484.88,654.61 483.71,653.79 482.26,654.33 478.88,653.95 478.60,654.68 478.24,653.93 476.83,654.26 476.29,653.63 475.69,654.20 473.42,653.38 472.19,653.85 466.54,652.32 454.58,651.22 449.06,653.78 443.81,654.83 442.90,655.88 433.54,657.51 433.35,658.30 430.46,658.87 428.93,660.64 425.37,661.69 420.27,661.90 418.24,662.71 416.55,662.11 415.61,662.92 412.52,662.85 408.63,664.45 403.32,664.27 403.03,665.33 397.79,666.02 397.69,666.96 393.15,668.64 391.96,670.36 389.92,669.24 386.95,671.46 383.22,671.54 380.11,673.99 379.26,673.85 379.50,675.11 375.80,676.88 376.18,677.71 373.23,680.10 367.60,680.88 368.26,681.64 367.44,681.03 366.05,681.36 364.68,683.08 356.94,684.77 349.63,688.74 349.49,689.50 347.46,689.44 347.09,690.50 339.76,693.27 337.93,694.73 332.44,695.54 329.44,696.57 327.86,698.06 323.49,698.84 322.91,700.33 324.98,701.78 324.46,702.41 323.66,701.85 324.16,705.72 322.38,707.09 322.30,708.26 319.80,709.75 318.13,712.11 312.21,713.86 309.26,713.74 308.83,715.49 307.42,713.92 304.52,713.93 300.73,715.17 297.87,714.96 295.91,715.78 288.69,715.19 288.44,715.67 285.28,714.85 284.79,715.49 284.61,714.75 278.75,713.86 277.74,714.97 277.55,713.35 272.94,711.48 271.00,711.40 269.79,712.33 269.74,711.25 267.24,710.96 266.47,712.29 265.98,710.81 263.47,710.44 262.68,711.62 262.22,710.22 258.75,709.52 258.30,710.47 257.79,709.30 255.40,709.16 254.14,708.23 253.63,708.72 252.49,707.18 250.76,706.58 248.38,706.91 247.26,705.80 245.61,707.74 243.99,707.59 243.94,709.52 241.86,709.25 241.82,710.32 240.91,709.82 239.52,710.89 236.77,710.50 233.51,711.27 222.79,710.48 217.60,711.16 213.20,709.36 204.83,709.36 202.42,707.88 199.52,709.37 199.04,708.38 192.09,706.82 190.65,707.13 187.58,705.65 183.16,705.79 178.57,704.29 175.74,704.60 175.19,705.50 170.75,705.06 170.00,705.66 169.91,704.75 166.47,703.00 163.77,702.78 162.59,704.04 156.06,701.82 154.65,702.24 152.65,700.98 150.89,701.17 148.49,699.57 146.81,699.90 145.17,698.52 141.62,698.21 139.87,696.66 138.10,697.11 135.44,696.50 131.67,694.27 129.23,693.51 128.64,694.06 128.46,693.23 126.73,692.53 125.78,692.96 125.76,692.13 119.95,689.93 118.99,691.10 118.63,689.37 114.98,688.31 107.79,684.40 105.96,681.55 103.59,680.97 103.33,679.81 99.82,677.02 100.33,674.23 96.74,671.36 95.89,668.67 94.09,667.80 91.58,662.32 94.18,659.61 97.52,660.44 96.60,658.61 97.00,656.27 95.32,654.07 95.90,652.96 92.63,648.95 93.07,648.30 91.50,648.05 90.01,645.53 87.92,645.25 86.61,642.92 83.79,641.59 82.90,639.42 79.29,637.94 78.33,636.01 76.79,635.81 76.68,634.88 77.80,634.63 77.02,633.02 79.75,631.82 78.28,630.92 79.04,629.85 76.48,630.66 74.18,629.04 73.92,627.56 74.95,626.95 73.57,626.29 75.30,624.84 73.38,624.84 73.22,623.72 71.41,625.04 70.10,624.71 70.06,622.11 69.03,622.32 68.57,621.51 67.99,622.73 65.64,621.25 65.04,622.62 62.47,621.67 60.90,623.76 58.42,621.35 57.60,622.42 56.00,621.40 56.52,619.65 58.68,619.99 58.77,617.14 60.62,614.86 61.99,614.50 63.76,615.37 65.20,614.35 66.57,614.89 67.85,614.28 69.29,615.35 70.04,615.07 68.64,613.59 68.44,611.06 69.72,609.35 71.78,609.63 73.04,608.32 74.02,608.91 74.69,608.02 76.12,608.00 74.11,607.37 74.89,604.71 83.52,605.23 84.00,604.58 84.21,605.24 86.89,605.21 85.78,602.50 86.92,600.40 85.52,596.14 85.98,594.93 87.07,594.82 86.43,591.07 87.30,589.74 86.65,587.36 85.35,587.05 86.41,586.22 86.03,582.17 87.76,580.76 90.01,573.43 88.28,573.45 85.02,571.70 81.68,572.83 73.67,571.75 72.48,572.47 69.79,572.16 73.20,571.16 77.10,572.09 79.50,571.16 82.25,571.84 84.94,570.75 88.34,572.16 90.21,570.34 93.43,570.42 96.64,566.36 98.81,560.34 104.08,557.47 108.87,558.01 115.31,556.47 120.65,557.74 122.43,559.02 123.81,558.87 125.13,560.66 126.60,557.70 130.76,555.21 134.77,548.48 132.18,545.51 132.78,541.89 131.54,538.77 132.70,537.35 132.64,532.03 133.78,530.97 133.06,531.55 129.30,530.44 132.82,530.86 133.37,530.31 133.59,528.12 134.84,527.42 134.93,524.61 136.67,522.55 136.51,520.94 138.79,518.27 136.88,511.88 137.94,511.04 140.21,511.47 140.60,510.39 140.71,510.88 138.98,511.35 139.39,510.51 138.82,510.95 138.26,509.98 137.37,511.11 135.77,510.62 137.22,510.39 137.48,508.57 137.57,509.83 138.01,508.60 137.95,509.87 139.43,510.15 138.31,509.36 138.59,507.80 137.46,507.94 138.75,507.21 137.13,507.33 137.83,505.79 139.07,507.73 140.39,507.89 141.47,510.08 138.43,506.85 137.62,502.50 135.85,501.87 135.43,500.52 136.28,495.80 137.75,494.80 138.27,495.51 140.28,495.48 139.01,495.44 138.61,496.88 137.75,495.41 136.09,495.39 139.07,494.93 138.24,494.43 138.82,493.96 140.60,495.66 139.92,494.61 140.79,492.37 145.66,488.32 146.72,486.35 147.35,486.63 150.90,483.61 151.01,481.98 152.31,481.96 154.23,479.41 153.42,477.71 155.32,477.85 157.38,474.95 157.07,473.92 158.00,474.24 159.23,472.92 158.87,472.00 159.85,472.32 161.68,470.76 161.88,469.82 163.61,469.03 163.60,467.91 164.49,468.40 166.12,467.30 165.92,466.28 166.87,466.85 168.24,465.28 168.97,465.81 170.38,465.29 170.34,464.56 171.09,465.08 172.83,464.62 172.99,463.43 173.87,464.37 177.20,463.20 180.19,463.20 180.59,462.22 181.13,463.09 186.47,462.63 186.54,462.05 186.99,462.58 190.62,462.35 191.31,461.71 192.78,462.08 193.24,461.48 193.49,461.99 198.76,461.63 201.98,460.58 202.96,458.09 198.68,456.29 197.18,454.10 193.93,452.49 191.95,452.83 192.10,451.76 190.18,451.71 189.38,452.89 187.10,453.69 185.98,453.02 187.02,450.79 185.34,452.77 184.76,450.88 182.49,451.93 182.20,450.41 180.47,449.62 181.69,448.45 179.45,448.31 180.05,447.20 178.24,447.61 173.83,446.75 173.90,445.63 176.09,444.97 173.81,442.71 170.30,442.61 170.00,443.48 172.09,443.39 172.22,444.12 169.57,445.12 164.77,441.90 163.94,442.38 163.70,441.68 155.43,439.59 153.96,437.40 151.94,436.31 149.69,436.22 147.68,437.71 147.01,435.66 143.58,434.43 139.47,434.97 139.38,434.28 134.86,433.38 134.14,434.72 133.14,433.23 130.12,432.97 129.15,432.17 128.80,432.64 124.11,430.47 121.63,430.48 121.60,429.82 116.41,428.23 112.29,422.85 112.26,419.81 107.99,418.07 109.81,418.38 110.20,417.63 110.59,418.58 112.46,419.12 113.46,423.10 117.52,428.01 120.80,429.02 122.17,427.62 122.49,429.47 125.60,429.75 128.91,431.57 129.67,431.03 129.62,431.78 131.34,431.94 132.07,432.84 134.11,432.99 134.57,432.34 135.00,432.99 136.60,432.73 139.17,433.66 139.63,433.01 140.07,433.98 142.14,434.51 143.28,433.73 147.19,433.29 144.17,430.65 147.89,429.06 146.21,427.90 146.84,426.85 148.83,426.66 150.90,428.21 152.69,428.03 155.16,430.01 157.43,430.67 157.58,428.61 159.67,425.77 163.41,424.76 163.96,425.19 167.32,423.06 169.56,423.85 171.59,422.61 172.77,422.92 176.41,419.57 180.76,420.83 183.43,419.21 185.19,420.07 188.32,420.03 191.52,419.44 191.62,418.30 192.55,419.19 194.39,418.33 197.53,419.78 198.95,422.28 199.87,422.00 200.08,422.73 202.23,423.26 204.25,421.38 204.09,420.53 204.92,420.97 209.85,419.42 210.07,417.91 208.94,418.82 207.73,418.18 207.18,419.07 207.01,417.99 205.83,417.54 204.82,419.26 203.85,417.67 202.95,418.05 202.04,417.45 202.28,416.80 202.92,417.64 203.45,415.42 205.89,413.31 205.57,411.97 206.76,412.62 208.39,410.66 210.10,410.25 211.45,408.69 212.34,408.91 211.59,409.20 211.01,407.71 213.28,408.21 214.81,405.60 217.62,406.16 216.57,406.70 216.85,407.98 215.53,407.23 213.06,408.52 224.65,402.17 224.43,400.99 225.68,401.63 231.31,398.31 231.09,397.41 232.03,397.79 233.95,396.07 237.86,394.45 221.44,404.09 216.37,403.43 214.50,400.23 215.28,400.41 217.27,398.56 217.65,399.08 219.99,398.32 220.79,398.87 220.91,396.51 222.59,399.03 224.51,399.88 223.07,397.57 223.31,394.36 224.06,392.83 224.38,396.51 225.95,397.66 227.09,394.56 226.11,390.39 227.60,388.59 229.21,390.32 229.09,392.29 229.94,392.01 232.19,393.59 233.07,395.79 233.88,394.23 234.16,394.81 235.03,394.46 234.97,392.13 236.72,390.35 236.08,389.69 237.29,387.99 238.42,394.20 244.68,390.66 247.24,388.47 246.89,387.22 248.18,387.60 250.69,385.04 249.85,386.12 248.90,385.91 248.42,384.15 252.01,381.19 253.64,381.44 254.81,380.44 253.81,378.58 255.21,379.68 256.72,378.51 256.68,379.88 255.32,381.97 254.64,381.64 250.70,385.01 251.06,383.47 252.00,383.92 253.96,381.21 254.89,381.53 256.61,380.15 256.32,379.05 257.34,379.53 258.84,377.72 260.83,377.11 258.94,377.69 257.79,376.98 256.35,373.95 254.54,372.94 254.59,369.77 253.27,368.74 250.12,368.61 246.85,366.68 243.04,366.33 237.01,361.72 235.56,359.37 236.08,357.77 239.15,355.44 240.73,355.46 240.85,354.72 241.34,355.35 244.25,355.14 245.30,356.18 244.06,358.13 246.28,359.14 247.86,362.00 249.57,360.04 249.18,357.00 249.89,356.42 250.98,357.15 251.22,362.15 253.17,363.52 256.11,363.49 258.57,366.51 256.99,368.19 257.33,368.89 263.25,372.34 262.55,375.88 261.59,375.56 260.86,376.92 263.71,373.25 266.68,371.37 268.38,367.97 271.54,365.16 271.14,364.24 272.18,364.17 274.80,360.92 273.05,360.27 272.80,359.22 271.31,359.41 272.22,358.95 272.10,356.15 272.40,358.52 274.65,360.47 275.58,359.47 275.11,358.49 276.33,358.72 277.71,357.09 279.72,356.81 279.30,355.78 281.09,352.05 280.24,348.94 279.79,349.41 278.22,348.03 279.09,345.43 282.97,344.19 285.02,345.01 292.14,342.42 292.62,342.87 296.74,342.03 297.40,340.08 296.26,337.66 297.67,338.03 298.42,341.05 297.73,341.63 298.81,340.87 299.15,341.40 301.59,340.90 301.67,340.33 305.33,340.47 307.41,339.35 311.26,340.38 311.81,339.73 312.71,340.92 316.45,340.38 319.99,341.59 320.91,339.97 324.18,340.31 324.98,337.82 327.63,337.25 327.80,336.01 329.28,335.45 329.46,332.85 325.68,330.94 325.30,327.95 326.32,331.15 329.82,331.48 330.60,332.98 331.85,331.64 331.09,329.86 331.97,330.45 332.26,329.42 336.61,327.82 336.37,325.57 337.34,327.16 336.65,328.74 333.03,330.23 333.62,331.70 332.14,333.40 332.51,334.62 330.28,335.42 331.09,336.81 329.67,338.44 325.20,339.84 327.93,339.24 330.78,339.76 333.64,341.57 334.93,339.63 338.28,338.37 338.40,337.70 341.63,338.46 342.34,337.87 344.27,339.12 344.88,338.32 345.06,339.42 349.28,339.81 350.29,340.92 351.87,339.90 356.51,338.99 357.59,337.74 357.37,334.67 358.94,332.81 356.81,332.59 355.43,330.58 355.67,327.64 358.62,324.97 361.95,323.38 363.63,319.95 363.07,319.15 359.31,319.87 357.50,318.40 361.11,314.31 357.67,315.65 354.49,314.54 353.53,312.95 353.85,310.82 354.54,309.92 355.92,310.33 357.16,308.10 352.39,306.36 352.01,305.58 353.55,303.64 352.22,302.05 348.62,301.31 346.35,299.43 346.84,296.89 349.00,295.55 348.07,294.67 346.66,294.79 345.61,293.55 349.16,295.60 346.74,298.03 347.17,300.03 351.86,301.33 353.85,303.32 352.75,301.76 353.47,301.88 354.53,303.07 353.73,306.50 358.11,307.74 358.18,309.49 354.39,312.64 356.64,314.48 360.08,312.83 362.54,313.04 363.47,314.05 363.56,315.97 362.66,315.43 361.43,315.99 359.68,317.59 359.93,318.62 359.94,318.67"/>
  </g>
  <g>
  </g>
  <g>
    <text x="1092" y="186" font-family="Helvetica, Arial, sans-serif" font-size="18" font-weight="700" fill="#16324f">Слои и длины</text>
    <line x1="1092" y1="224" x2="1126" y2="224" stroke="#7a8b99" stroke-width="1.80" stroke-opacity="0.85" stroke-dasharray="8 6"/>
    <text x="1138" y="222" font-family="Helvetica, Arial, sans-serif" font-size="13" fill="#16324f">Реальная загруженная</text>
    <text x="1138" y="237" font-family="Helvetica, Arial, sans-serif" font-size="13" fill="#16324f">полилиния (справочно)</text>
    <text x="1138" y="254" font-family="Helvetica, Arial, sans-serif" font-size="12" fill="#6b7a87">6391 км</text>
    <line x1="1092" y1="268" x2="1356" y2="268" stroke="#ddd6c8" stroke-width="1"/>
    <line x1="1092" y1="292" x2="1126" y2="292" stroke="#1f6f8b" stroke-width="2.10" stroke-opacity="0.38"/>
    <text x="1138" y="290" font-family="Helvetica, Arial, sans-serif" font-size="13" fill="#16324f">Упрощённая база модели</text>
    <text x="1138" y="305" font-family="Helvetica, Arial, sans-serif" font-size="13" fill="#16324f">(итерация 0)</text>
    <text x="1138" y="322" font-family="Helvetica, Arial, sans-serif" font-size="12" fill="#6b7a87">6391 км</text>
    <line x1="1092" y1="336" x2="1356" y2="336" stroke="#ddd6c8" stroke-width="1"/>
    <line x1="1092" y1="360" x2="1126" y2="360" stroke="#2c7a7b" stroke-width="3.60" stroke-opacity="1.00"/>
    <text x="1138" y="358" font-family="Helvetica, Arial, sans-serif" font-size="13" fill="#16324f">Синтетическая итерация 1</text>
    <text x="1138" y="375" font-family="Helvetica, Arial, sans-serif" font-size="12" fill="#6b7a87">8931 км</text>
  </g>
  <g>
    <rect x="1092" y="417" width="264" height="108" rx="18" fill="#f8f6ef" stroke="#d6d0c4"/>
    <text x="1106" y="437" font-family="Helvetica, Arial, sans-serif" font-size="14" font-weight="700" fill="#16324f">Контроль геометрии</text>
    <text x="1106" y="469" font-family="Helvetica, Arial, sans-serif" font-size="12" fill="#4f6d7a">Сегменты &gt; 450 км</text>
    <text x="1342" y="469" text-anchor="end" font-family="Helvetica, Arial, sans-serif" font-size="13" font-weight="700" fill="#3f6b4b">0</text>
    <line x1="1106" y1="473" x2="1342" y2="473" stroke="#e7e1d5" stroke-width="1"/>
    <text x="1106" y="491" font-family="Helvetica, Arial, sans-serif" font-size="12" fill="#4f6d7a">Повторы ориентиров</text>
    <text x="1342" y="491" text-anchor="end" font-family="Helvetica, Arial, sans-serif" font-size="13" font-weight="700" fill="#3f6b4b">0</text>
    <line x1="1106" y1="495" x2="1342" y2="495" stroke="#e7e1d5" stroke-width="1"/>
    <text x="1106" y="513" font-family="Helvetica, Arial, sans-serif" font-size="12" fill="#4f6d7a">Автоисправления</text>
    <text x="1342" y="513" text-anchor="end" font-family="Helvetica, Arial, sans-serif" font-size="13" font-weight="700" fill="#3f6b4b">0</text>
  </g>
  <g>
    <rect x="1092" y="543" width="264" height="118" rx="18" fill="#fcfbf7" stroke="#d6d0c4"/>
    <text x="1106" y="563" font-family="Helvetica, Arial, sans-serif" font-size="14" font-weight="700" fill="#16324f">Длина по итерациям</text>
    <line x1="1106" y1="574" x2="1122" y2="574" stroke="#1f6f8b" stroke-width="2.2"/>
    <text x="1128" y="578" font-family="Helvetica, Arial, sans-serif" font-size="11" fill="#4f6d7a">Измерено</text>
    <line x1="1106" y1="587.00" x2="1342" y2="587.00" stroke="#ddd6c8" stroke-width="1"/>
    <line x1="1106" y1="613.00" x2="1342" y2="613.00" stroke="#ddd6c8" stroke-width="1"/>
    <line x1="1106" y1="639.00" x2="1342" y2="639.00" stroke="#ddd6c8" stroke-width="1"/>
    <line x1="1106" y1="639" x2="1342" y2="639" stroke="#8a9aa6" stroke-width="1.4"/>
    <text x="1106" y="581" font-family="Helvetica, Arial, sans-serif" font-size="11" fill="#6b7a87">9135</text>
    <text x="1106" y="653" font-family="Helvetica, Arial, sans-serif" font-size="11" fill="#6b7a87">6188</text>
    <text x="1106" y="651" font-family="Helvetica, Arial, sans-serif" font-size="11" fill="#6b7a87">0</text>
    <text x="1342" y="651" text-anchor="end" font-family="Helvetica, Arial, sans-serif" font-size="11" fill="#6b7a87">1</text>
    <polyline fill="none" stroke="#1f6f8b" stroke-width="2.4" stroke-linecap="round" stroke-linejoin="round" points="1106.00,635.41 1342.00,590.59"/>
    <circle cx="1106.00" cy="635.41" r="2.8" fill="#1f6f8b"/>
    <circle cx="1342.00" cy="590.59" r="2.8" fill="#1f6f8b"/>
    <rect x="1092" y="679" width="264" height="118" rx="18" fill="#fcfbf7" stroke="#d6d0c4"/>
    <text x="1106" y="699" font-family="Helvetica, Arial, sans-serif" font-size="14" font-weight="700" fill="#16324f">Размерность D</text>
    <line x1="1106" y1="710" x2="1122" y2="710" stroke="#8b3f5c" stroke-width="2.2"/>
    <text x="1128" y="714" font-family="Helvetica, Arial, sans-serif" font-size="11" fill="#4f6d7a">Оценка</text>
    <line x1="1204" y1="710" x2="1220" y2="710" stroke="#6f5f1f" stroke-width="2.2" stroke-dasharray="5 4"/>
    <text x="1226" y="714" font-family="Helvetica, Arial, sans-serif" font-size="11" fill="#4f6d7a">Теория</text>
    <line x1="1106" y1="723.00" x2="1342" y2="723.00" stroke="#ddd6c8" stroke-width="1"/>
    <line x1="1106" y1="749.00" x2="1342" y2="749.00" stroke="#ddd6c8" stroke-width="1"/>
    <line x1="1106" y1="775.00" x2="1342" y2="775.00" stroke="#ddd6c8" stroke-width="1"/>
    <line x1="1106" y1="775" x2="1342" y2="775" stroke="#8a9aa6" stroke-width="1.4"/>
    <text x="1106" y="717" font-family="Helvetica, Arial, sans-serif" font-size="11" fill="#6b7a87">1.272</text>
    <text x="1106" y="789" font-family="Helvetica, Arial, sans-serif" font-size="11" fill="#6b7a87">1.126</text>
    <text x="1106" y="787" font-family="Helvetica, Arial, sans-serif" font-size="11" fill="#6b7a87">0</text>
    <text x="1342" y="787" text-anchor="end" font-family="Helvetica, Arial, sans-serif" font-size="11" fill="#6b7a87">1</text>
    <polyline fill="none" stroke="#8b3f5c" stroke-width="2.4" stroke-linecap="round" stroke-linejoin="round" points="1106.00,771.41 1342.00,764.64"/>
    <circle cx="1106.00" cy="771.41" r="2.8" fill="#8b3f5c"/>
    <circle cx="1342.00" cy="764.64" r="2.8" fill="#8b3f5c"/>
    <polyline fill="none" stroke="#6f5f1f" stroke-width="2.4" stroke-linecap="round" stroke-linejoin="round" stroke-dasharray="5 4" points="1106.00,726.59 1342.00,726.59"/>
    <circle cx="1106.00" cy="726.59" r="2.8" fill="#6f5f1f"/>
    <circle cx="1342.00" cy="726.59" r="2.8" fill="#6f5f1f"/>
  </g>
  <g>
  </g>
  <g>
    <rect x="1092" y="841" width="264" height="186" rx="18" fill="#f8f6ef" stroke="#d6d0c4"/>
    <text x="1106" y="861" font-family="Helvetica, Arial, sans-serif" font-size="14" font-weight="700" fill="#16324f">Сводка</text>
    <text x="1106" y="883" font-family="Helvetica, Arial, sans-serif" font-size="12" fill="#4f6d7a">Реальная линия: 6391 км, 9635 т.</text>
    <line x1="1106" y1="903" x2="1342" y2="903" stroke="#e7e1d5" stroke-width="1"/>
    <text x="1106" y="911" font-family="Helvetica, Arial, sans-serif" font-size="12" fill="#4f6d7a">База модели: 6391 км, 9635 т.</text>
    <text x="1106" y="927" font-family="Helvetica, Arial, sans-serif" font-size="12" fill="#4f6d7a">(+0.0% к реальной)</text>
    <line x1="1106" y1="947" x2="1342" y2="947" stroke="#e7e1d5" stroke-width="1"/>
    <text x="1106" y="955" font-family="Helvetica, Arial, sans-serif" font-size="12" fill="#4f6d7a">Текущий слой: 8931 км, 38537 т.</text>
    <text x="1106" y="971" font-family="Helvetica, Arial, sans-serif" font-size="12" fill="#4f6d7a">расчёт / 1799 т. SVG</text>
    <line x1="1106" y1="991" x2="1342" y2="991" stroke="#e7e1d5" stroke-width="1"/>
    <text x="1106" y="999" font-family="Helvetica, Arial, sans-serif" font-size="12" fill="#4f6d7a">D: 1.15506, R²=0.9994, стаб=false</text>
  </g>
  <g>
    <line x1="56" y1="985" x2="479" y2="985" stroke="#16324f" stroke-width="3"/>
    <line x1="56" y1="978" x2="56" y2="992" stroke="#16324f" stroke-width="6"/>
    <line x1="479" y1="978" x2="479" y2="992" stroke="#16324f" stroke-width="6"/>
    <text x="56" y="971" font-family="Helvetica, Arial, sans-serif" font-size="13" fill="#16324f">Масштаб ≈ 500 км</text>  </g>
</svg>
