<?xml version="1.0" encoding="UTF-8"?>
<svg xmlns="http://www.w3.org/2000/svg" width="1440" height="1117" viewBox="0 0 1440 1117">
  <rect width="100%" height="100%" fill="#f7f4ea"/>
  <rect x="20" y="20" width="1400" height="1077" rx="28" fill="#fcfbf7" stroke="#d6d0c4"/>
  <rect x="1072" y="20" width="304" height="1077" rx="24" fill="#f0ece2" stroke="#d6d0c4"/>
  <g>
  <text x="56" y="58" font-family="Helvetica, Arial, sans-serif" font-size="30" font-weight="700" fill="#16324f">Фрактальная размерность (органическая модель) — итерация</text>
  <text x="56" y="92" font-family="Helvetica, Arial, sans-serif" font-size="30" font-weight="700" fill="#16324f">1</text>
  <text x="56" y="142" font-family="Helvetica, Arial, sans-serif" font-size="14" fill="#4f6d7a">Органическая модель: seed=42, угол ±18°, высота ±25%; серая пунктирная линия — реальная линия, цветные слои — от упрощённой</text>
  <text x="56" y="160" font-family="Helvetica, Arial, sans-serif" font-size="14" fill="#4f6d7a">базы</text>
  <text x="56" y="186" font-family="Helvetica, Arial, sans-serif" font-size="13" fill="#6b7a87">SVG содержит исходную полилинию, фрактальные итерации, масштаб и длину по слоям.</text>
  </g>
  <g>
    <polyline fill="none" stroke="#7a8b99" stroke-width="1.80" stroke-opacity="0.85" stroke-linejoin="round" stroke-linecap="round" stroke-dasharray="8 6" points="359.94,329.93 361.39,330.34 361.97,329.83 363.59,329.59 363.30,329.39 364.65,329.41 365.80,331.25 364.81,332.95 364.92,334.29 362.96,335.29 362.59,335.69 363.10,335.88 362.28,336.52 360.75,336.67 360.74,338.93 358.82,340.12 359.78,340.80 359.01,341.46 360.26,341.04 359.61,342.88 360.75,343.23 362.49,345.42 362.00,347.41 362.68,348.78 365.85,351.16 367.59,351.84 370.07,351.71 371.36,352.22 373.57,355.75 380.95,353.37 383.86,354.51 384.98,356.02 390.18,356.39 395.67,354.84 396.23,353.28 395.94,354.76 398.35,353.21 400.82,353.11 399.44,352.51 399.70,351.97 400.65,351.84 400.92,352.22 401.64,351.56 402.58,351.54 402.23,351.89 402.71,351.87 402.88,352.45 402.19,352.21 401.47,352.61 401.05,352.24 401.09,353.08 403.88,352.57 403.84,352.05 404.30,352.36 409.24,348.83 413.05,347.75 417.72,347.67 426.15,343.78 430.00,343.17 434.09,343.11 441.21,340.24 450.70,340.36 452.42,341.05 455.39,340.40 456.86,340.97 455.45,341.99 451.12,342.78 440.99,340.60 434.66,343.41 426.33,344.15 419.50,347.64 415.37,348.48 411.11,348.71 409.03,349.41 406.32,351.22 405.10,352.28 405.59,352.56 404.75,352.58 400.43,357.04 398.42,356.96 395.16,359.30 391.24,359.38 386.67,360.60 383.42,360.36 385.86,361.13 385.23,361.68 385.86,361.81 388.75,360.51 391.52,359.92 392.91,360.15 391.50,361.48 388.80,362.10 384.77,361.89 380.19,360.90 377.40,360.94 375.13,360.33 377.09,360.47 374.22,358.96 373.76,359.07 374.55,359.45 374.53,360.10 371.36,359.54 365.56,360.57 365.40,359.87 365.19,360.42 363.40,360.26 357.74,358.86 357.55,358.17 358.07,357.99 356.35,357.51 357.17,358.41 355.54,358.67 350.69,357.76 347.48,356.45 341.41,357.10 335.67,357.11 332.75,356.03 331.04,354.38 333.22,356.71 339.58,360.43 344.15,364.12 343.52,363.57 344.44,363.82 343.37,363.32 343.76,361.77 344.69,360.98 346.96,360.39 356.36,362.18 360.92,363.73 359.21,362.96 361.55,363.32 360.06,362.82 360.91,362.90 362.18,363.48 360.85,363.42 361.97,363.68 364.17,362.73 365.87,363.42 366.63,365.28 368.08,366.55 367.67,367.53 366.41,367.88 365.69,367.49 364.52,369.12 361.33,370.20 357.18,370.87 356.60,370.84 358.89,370.62 353.11,370.76 349.46,371.58 349.75,371.78 347.99,372.58 347.62,373.43 348.19,373.16 348.87,373.58 349.45,374.78 349.14,375.50 350.11,374.81 349.93,374.42 350.40,374.93 351.29,374.66 351.56,375.46 352.57,374.44 353.00,374.68 352.50,374.95 353.42,374.82 353.73,375.26 355.07,374.79 355.50,375.52 357.01,373.72 356.54,373.18 356.30,373.73 355.87,373.61 355.76,372.29 356.99,372.06 356.97,373.10 360.02,373.45 359.34,373.42 360.39,373.77 360.64,374.75 361.29,374.95 360.67,374.79 360.87,375.14 361.20,375.44 361.76,375.16 361.30,375.44 362.08,376.01 363.64,376.16 364.17,375.52 363.94,376.28 364.80,376.50 365.59,376.62 365.15,376.22 365.67,376.01 366.04,376.70 367.19,376.01 368.75,377.03 368.57,376.59 369.22,376.59 370.16,378.37 370.91,378.35 370.73,378.67 371.86,379.34 372.85,379.46 372.73,379.12 373.20,379.75 375.17,379.76 377.54,381.66 377.10,381.09 377.85,381.16 377.87,380.71 378.79,380.55 380.26,381.06 380.82,382.04 380.24,382.17 380.07,381.64 379.66,382.01 380.19,383.27 379.38,384.42 367.51,381.92 391.70,387.30 400.80,388.98 401.01,387.90 404.84,386.75 407.72,386.23 409.69,386.68 413.67,386.12 416.08,385.14 420.06,385.95 423.20,385.46 425.59,386.34 433.52,385.90 433.96,385.74 432.84,385.65 432.67,385.18 433.66,384.07 433.16,383.11 434.40,382.82 436.26,383.01 437.32,384.28 440.84,384.97 444.15,382.85 444.94,381.64 444.35,380.24 445.18,380.70 446.85,378.82 445.56,381.65 447.07,382.98 445.81,383.69 445.07,385.59 445.40,386.15 445.98,386.24 445.77,384.87 446.60,384.42 448.55,384.01 450.87,384.40 452.33,385.12 452.82,386.01 452.12,387.16 450.65,386.87 450.90,388.19 453.01,388.25 452.49,388.08 452.83,386.38 454.05,385.66 454.98,386.87 456.81,387.37 456.47,388.35 460.14,391.32 460.85,391.34 460.23,391.06 460.47,390.63 461.89,390.59 462.98,390.01 465.59,391.49 466.65,391.29 464.93,389.82 465.29,388.31 466.55,387.86 470.01,388.32 466.60,386.75 466.17,385.21 466.94,385.58 468.19,385.33 468.59,384.17 469.99,384.06 470.80,382.74 471.82,382.77 472.92,383.69 475.11,388.11 473.90,388.70 473.25,389.79 474.43,395.77 473.46,397.05 474.78,397.30 474.88,396.84 476.19,396.44 481.69,396.63 482.56,396.92 483.01,397.84 482.32,398.32 480.71,398.38 478.79,399.67 478.31,399.35 477.74,399.58 477.87,403.96 476.17,402.10 474.96,401.93 473.17,400.84 470.91,402.36 470.05,402.26 468.42,404.52 467.75,403.81 465.70,404.21 465.11,403.23 464.26,403.34 460.10,404.85 460.08,405.45 459.79,405.08 459.53,405.45 459.75,406.15 459.37,405.46 455.99,407.78 449.57,409.95 446.30,410.04 444.18,409.03 442.98,407.80 442.25,410.95 441.14,412.32 436.31,413.36 428.71,416.24 424.55,418.37 419.80,421.11 419.56,421.54 420.87,421.59 421.26,422.18 420.03,423.48 420.26,423.90 419.48,423.22 418.52,423.57 418.47,423.93 419.19,423.84 419.33,424.56 415.85,425.26 418.35,423.65 417.38,423.02 412.22,425.25 412.10,426.18 410.82,426.54 411.33,426.13 410.83,425.66 403.62,428.51 400.49,430.29 396.46,434.22 397.17,434.98 398.37,435.13 398.98,436.03 397.50,437.64 408.22,439.71 413.40,436.95 416.82,436.17 425.23,436.57 428.50,437.68 430.51,438.93 430.65,438.59 426.63,436.76 429.58,437.23 430.66,436.64 430.95,437.53 432.20,436.85 432.45,436.16 434.77,435.95 434.87,435.22 436.09,434.76 438.25,434.95 438.13,434.57 440.50,433.53 440.95,432.79 441.73,432.88 442.34,431.62 443.79,431.37 444.41,430.68 445.55,431.08 443.87,432.15 443.07,431.72 441.78,433.49 439.55,434.47 440.60,434.78 439.30,434.76 438.44,436.01 437.23,436.02 437.05,435.55 435.96,435.89 434.81,437.33 436.33,437.36 436.43,437.71 435.74,438.15 435.54,437.72 435.01,438.09 433.59,437.96 434.27,438.86 433.51,438.88 433.18,440.20 430.86,439.05 436.33,442.50 439.28,445.34 441.08,446.20 441.87,447.35 444.20,448.53 446.95,449.13 449.07,450.97 450.72,450.97 452.34,449.25 455.48,449.19 457.63,447.70 459.64,447.96 461.66,448.88 465.45,451.27 469.65,455.27 472.30,460.49 472.58,462.29 472.09,462.76 473.11,466.48 472.75,469.70 471.76,471.47 470.37,472.01 469.12,471.81 468.86,472.21 468.90,473.79 467.74,475.15 468.71,479.38 468.58,483.27 467.90,485.06 466.60,485.57 466.12,486.38 469.71,486.40 471.69,487.19 467.72,486.94 467.42,488.03 467.28,486.84 466.82,487.12 465.99,486.65 465.38,487.40 463.74,487.25 463.58,487.97 463.31,487.30 462.21,487.45 461.98,488.36 461.37,487.71 460.19,488.49 461.18,489.95 459.78,488.90 459.50,490.49 459.30,489.62 458.83,490.12 458.90,488.67 457.26,489.21 459.77,491.52 463.24,493.32 464.59,495.01 465.44,494.59 469.25,495.68 471.94,495.11 473.32,495.66 474.67,496.72 475.61,499.84 477.21,500.40 479.54,500.18 481.57,502.48 484.27,502.52 489.88,501.13 497.30,502.19 500.41,501.09 501.57,501.22 503.75,500.08 507.87,499.66 510.71,495.16 516.28,494.38 518.14,492.06 519.97,491.27 522.76,491.59 522.91,489.24 524.35,488.62 524.69,487.26 527.47,483.08 530.44,480.45 535.39,478.67 536.70,477.75 538.93,477.27 540.16,476.39 550.76,473.41 556.39,473.52 558.21,473.05 560.81,473.50 561.38,472.53 564.76,471.79 566.16,472.54 566.96,472.15 569.01,472.53 570.36,473.61 570.03,474.48 572.46,475.10 575.74,473.00 576.12,470.53 577.76,468.04 583.24,466.45 584.00,465.17 583.62,464.12 584.22,463.54 585.55,463.13 586.75,463.65 588.73,463.10 590.65,463.47 590.76,463.97 592.95,464.62 593.29,464.09 591.93,464.01 590.83,462.71 591.00,462.01 591.57,461.42 595.68,460.15 592.94,458.94 593.65,456.87 597.22,454.31 603.16,452.47 608.48,452.45 616.10,454.74 621.64,458.07 621.78,459.55 623.17,460.13 622.96,460.75 623.66,461.10 628.58,459.67 631.44,460.17 633.48,459.30 634.70,458.15 636.54,457.64 649.75,459.12 651.57,457.61 655.31,457.04 659.76,457.04 664.56,455.11 665.19,454.19 677.31,451.50 682.89,452.88 684.24,453.63 689.76,453.02 695.47,453.92 711.87,458.75 719.80,462.66 723.58,466.35 723.60,467.58 722.15,468.40 725.07,471.23 725.20,472.79 727.90,475.62 728.23,477.12 727.60,477.34 729.24,477.77 729.72,478.62 734.74,481.69 739.13,482.92 740.07,482.77 743.84,483.63 746.20,483.41 749.32,484.53 751.92,484.70 755.74,483.78 756.90,482.72 755.49,481.55 755.24,479.77 754.69,479.79 755.56,479.02 755.91,479.39 756.28,479.03 756.29,479.82 757.34,479.74 756.67,480.12 757.57,479.66 758.31,479.94 758.29,480.29 759.05,480.34 758.81,480.93 759.61,480.98 761.61,482.68 763.88,483.58 765.08,485.00 763.28,485.99 765.16,487.91 768.63,489.80 768.64,490.21 771.64,490.77 772.01,490.32 771.45,489.26 772.92,489.07 774.09,489.62 774.79,490.93 772.99,491.44 778.22,494.71 779.95,497.68 781.44,498.33 783.36,500.43 784.69,500.85 789.47,501.06 792.39,502.35 792.84,503.00 795.08,503.68 797.84,503.27 808.11,505.00 810.54,506.12 811.52,506.12 812.45,506.87 817.03,507.71 818.06,508.32 820.20,508.29 823.22,509.62 828.32,515.33 829.62,516.02 831.25,516.00 834.65,517.35 837.23,517.70 838.96,519.40 839.71,522.05 842.41,522.36 842.33,522.80 843.39,523.11 847.46,527.16 857.28,532.50 859.58,535.23 861.00,535.78 864.42,538.42 868.78,543.11 876.63,548.65 878.43,551.11 884.06,553.54 885.65,556.80 886.75,557.76 893.11,560.36 896.84,562.51 899.75,568.08 901.52,569.22 904.54,570.19 910.37,570.76 915.89,573.22 921.52,574.90 923.02,578.37 923.71,583.36 927.95,586.30 929.73,584.90 931.72,584.50 936.75,586.80 940.23,586.72 944.23,590.08 948.50,589.40 951.77,590.39 955.93,590.30 963.10,591.07 964.49,591.84 970.38,597.46 971.03,597.48 972.16,596.51 975.42,596.54 977.87,599.55 979.76,606.85 982.68,610.01 984.67,610.37 986.65,609.61 988.34,609.79 992.25,610.69 993.87,611.56 999.21,612.42 1001.09,613.88 1001.25,613.38 1001.28,613.81 1002.09,613.77 1002.76,614.36 1004.60,617.26 1007.30,623.87 1010.20,637.34 1010.54,636.70 1010.39,637.50 1012.58,638.57 1014.95,643.58 1016.01,647.39 1015.27,649.35 1015.82,649.80 1019.34,650.59 1022.43,652.18 1024.59,651.59 1024.79,651.27 1023.82,651.10 1023.68,650.63 1025.96,649.38 1028.30,650.29 1030.84,649.49 1032.10,651.12 1033.20,650.25 1035.00,650.81 1037.34,649.82 1037.64,650.59 1038.92,650.24 1041.11,651.22 1041.59,651.96 1042.36,651.27 1044.39,651.34 1045.77,652.10 1047.37,651.93 1048.32,653.01 1051.20,652.70 1052.51,653.35 1053.59,654.85 1058.10,656.50 1059.53,656.61 1060.66,655.23 1063.52,655.74 1063.19,654.45 1064.00,654.10 1063.31,654.51 1063.74,655.75 1062.34,655.90 1060.70,655.37 1060.14,656.60 1058.73,656.85 1053.64,655.18 1052.53,653.52 1051.51,653.10 1047.88,653.21 1047.25,652.12 1045.80,652.30 1044.48,651.51 1042.72,651.51 1041.57,652.14 1038.96,650.50 1037.56,650.77 1037.15,649.94 1035.00,651.17 1033.19,650.45 1032.08,651.39 1030.45,649.68 1028.84,650.62 1025.45,649.78 1024.03,650.92 1025.28,650.97 1025.16,651.79 1022.38,652.56 1019.12,650.61 1016.76,650.51 1015.98,651.64 1016.96,653.13 1016.33,653.72 1019.92,657.58 1020.67,657.18 1019.49,654.30 1023.62,654.54 1024.47,655.38 1023.75,655.55 1023.37,656.70 1020.71,657.29 1022.38,658.04 1021.93,659.31 1021.38,659.01 1021.84,659.76 1020.69,657.36 1020.69,657.96 1020.14,657.84 1023.40,662.47 1023.77,661.89 1025.17,673.19 1024.73,676.60 1020.63,684.38 1017.63,687.44 1016.26,687.68 1015.59,686.99 1012.24,689.65 1011.00,691.37 1010.54,694.60 1007.85,698.81 1004.60,700.27 1000.42,705.24 999.70,705.71 995.81,706.23 993.47,707.54 990.57,708.33 988.31,710.31 984.77,712.00 982.78,712.42 981.13,714.05 975.56,717.20 967.85,719.51 964.08,719.10 959.13,720.54 956.72,722.28 953.66,725.53 951.66,726.24 951.09,726.00 945.71,728.23 943.76,728.38 941.81,729.59 940.28,729.58 939.33,728.90 940.08,728.82 938.63,728.69 933.71,729.72 930.84,729.74 922.06,735.61 917.49,737.24 915.40,737.36 911.34,737.06 907.35,734.20 905.46,734.36 904.42,733.83 900.34,734.53 895.31,734.32 893.45,732.46 890.06,731.29 887.74,731.44 887.26,730.88 886.02,730.65 882.30,731.80 881.06,731.68 880.06,730.95 875.64,729.71 870.25,725.26 865.69,724.20 862.35,726.07 856.57,728.09 854.39,728.27 852.57,727.70 851.21,726.43 848.34,726.11 845.22,728.00 841.18,728.91 837.90,729.26 837.11,728.88 833.51,728.93 832.87,728.52 828.67,730.69 825.60,731.16 824.93,730.70 818.05,734.79 815.34,734.90 813.23,733.20 811.94,733.26 809.75,735.02 805.55,737.09 802.23,737.32 801.46,736.97 798.79,737.45 796.86,737.18 796.09,736.59 793.83,737.60 791.56,736.88 788.75,735.17 782.49,735.60 782.00,735.35 782.38,735.23 779.86,734.59 778.49,734.64 769.75,732.78 765.31,732.49 765.33,732.94 764.96,732.40 761.85,732.45 760.67,730.45 756.82,729.75 755.10,727.90 754.32,726.69 755.32,723.59 754.32,723.79 752.94,723.37 749.77,723.76 748.28,722.22 746.33,723.59 743.82,726.72 743.32,728.15 742.23,728.92 738.45,730.04 736.44,729.55 735.23,728.77 734.56,727.26 730.64,726.08 728.94,724.48 722.00,723.10 721.52,722.57 721.91,721.62 711.25,721.36 705.54,719.61 704.28,718.79 703.81,718.04 704.36,718.02 703.30,717.01 703.79,717.05 703.86,714.55 702.63,712.71 693.69,708.69 689.07,707.59 681.78,706.85 679.24,705.69 679.00,706.80 678.56,705.53 676.45,706.66 676.07,707.19 676.48,707.53 672.85,712.01 670.50,713.34 666.18,714.83 661.53,714.53 660.56,714.13 659.96,713.22 660.32,713.02 658.17,712.38 658.04,711.46 657.92,712.08 657.34,711.61 657.62,710.35 658.54,710.48 650.93,707.63 650.13,706.25 643.36,700.18 642.52,697.43 643.39,693.77 642.31,689.23 638.29,685.00 631.38,681.77 618.89,686.22 609.76,688.40 605.20,688.81 598.67,687.70 594.92,685.25 585.67,683.10 584.67,682.32 584.82,681.58 581.00,679.60 579.99,677.88 580.91,677.20 578.70,676.08 577.54,674.63 575.97,673.75 575.40,672.03 574.17,671.19 573.00,669.17 573.37,666.16 575.12,662.95 576.82,662.24 580.71,663.01 581.15,662.52 579.70,661.02 578.43,661.07 575.54,662.24 571.68,661.90 569.90,661.04 569.65,660.28 570.38,659.81 569.74,659.80 569.94,659.29 568.04,657.58 563.17,657.23 563.44,658.84 560.69,662.17 558.36,663.98 553.51,666.84 548.20,667.63 537.08,667.46 533.64,666.66 532.41,665.43 531.46,666.14 528.64,666.12 525.87,667.10 523.22,667.52 522.21,667.13 521.67,667.62 519.47,667.84 511.16,666.60 510.79,666.13 505.73,665.27 500.80,665.04 492.69,665.75 484.51,665.67 483.66,665.08 481.85,665.39 473.66,664.86 462.44,663.04 459.96,663.30 458.09,662.72 454.58,662.48 449.51,664.55 446.08,665.22 443.81,666.10 443.11,666.85 433.54,668.78 432.82,669.58 430.46,670.14 430.13,670.59 430.69,670.59 429.79,671.22 423.09,672.81 422.31,673.38 416.55,673.38 415.88,674.08 412.52,674.11 411.91,674.80 410.34,674.88 409.84,675.32 403.32,675.54 402.80,676.63 397.79,677.29 396.86,678.65 395.42,679.19 394.71,679.01 393.15,679.91 392.14,681.46 390.52,681.28 390.57,680.77 389.92,680.51 390.04,680.89 388.74,681.13 388.63,681.82 387.13,681.92 387.05,682.59 384.63,682.41 383.22,682.81 379.75,684.92 380.11,685.26 379.26,685.11 379.59,686.00 379.16,686.49 375.80,688.15 376.21,688.73 373.68,690.65 367.60,692.14 368.26,692.90 367.44,692.30 366.05,692.62 363.63,694.53 359.31,695.48 357.71,696.26 356.94,696.04 357.28,696.26 353.51,697.65 352.38,698.80 349.63,700.01 349.13,700.45 349.55,700.73 347.46,700.70 346.89,701.79 342.54,703.82 339.76,704.54 338.37,705.58 332.44,706.80 329.44,707.84 327.95,709.29 325.90,709.29 324.82,710.18 323.49,710.10 322.91,711.59 324.88,712.80 324.65,713.66 323.66,713.11 324.10,717.07 318.43,722.73 313.27,724.48 304.52,725.19 301.20,726.16 297.29,726.54 290.58,726.56 279.95,725.63 272.94,722.75 259.71,721.00 252.76,718.98 251.20,717.89 250.36,718.15 247.67,717.56 247.26,717.06 245.77,718.87 243.99,718.86 244.58,719.41 243.75,719.52 244.12,720.52 241.80,720.54 241.72,721.60 240.96,721.08 240.92,721.48 239.19,722.15 236.77,721.77 235.67,722.36 235.54,721.97 231.98,722.42 230.73,721.99 230.19,722.45 229.95,722.08 227.56,722.36 226.51,721.93 222.79,721.75 220.44,722.04 219.46,721.75 218.67,722.16 213.20,720.62 210.71,720.99 208.49,720.37 206.80,720.52 202.42,719.14 201.80,719.38 202.34,719.34 201.90,719.85 201.02,719.98 195.43,719.00 187.58,716.91 185.28,717.19 181.05,716.48 178.67,715.91 178.57,715.55 177.57,716.07 175.74,715.86 175.55,716.56 172.57,716.29 172.16,716.74 166.98,714.87 166.47,714.26 166.11,714.71 163.77,714.04 163.46,714.82 161.39,714.90 156.06,713.08 154.17,713.15 152.70,712.66 152.65,712.24 150.34,712.08 148.49,710.83 146.65,711.03 146.54,710.31 143.39,709.27 142.79,709.55 140.31,708.53 139.87,707.93 139.14,708.27 136.27,707.78 131.67,705.54 112.04,697.93 109.26,696.04 108.44,696.05 108.59,695.65 106.15,693.90 105.96,692.81 103.80,692.32 103.33,691.07 100.16,688.79 99.53,687.12 100.76,686.27 100.33,685.50 97.97,683.91 96.41,682.04 96.44,680.55 93.36,677.61 92.19,675.06 92.17,672.94 91.66,672.96 94.56,670.98 96.43,671.93 97.52,671.71 96.60,669.68 97.00,667.53 96.54,666.39 95.42,665.56 96.06,664.99 95.90,664.22 94.25,662.32 94.68,662.00 93.93,661.01 92.63,660.22 93.07,659.57 91.64,659.42 90.01,656.80 88.54,656.95 87.77,656.36 87.81,655.39 86.61,654.18 85.23,653.76 85.12,652.95 84.68,653.27 84.33,652.64 83.65,652.62 84.13,652.10 82.56,651.11 82.90,650.68 81.43,650.40 81.43,649.84 80.42,649.20 79.58,649.32 78.50,648.39 79.05,647.76 76.69,646.82 76.98,645.97 77.80,645.89 77.01,645.38 76.87,644.52 78.29,643.91 78.03,643.55 79.75,643.09 78.29,642.21 78.91,641.93 79.04,641.11 77.25,641.28 76.86,641.88 76.01,641.68 74.13,639.28 74.02,638.75 74.95,638.22 73.92,637.93 73.74,637.16 74.01,636.78 74.97,636.81 75.32,636.13 73.71,636.20 73.22,634.98 72.55,635.05 72.73,635.45 71.60,636.19 70.61,636.06 69.54,635.16 69.58,634.78 70.38,634.72 69.75,634.18 70.06,633.37 68.91,633.48 68.57,632.78 68.24,633.71 67.56,633.83 65.64,632.52 64.85,633.21 65.26,633.71 64.09,633.72 62.47,632.94 61.72,634.33 60.55,634.88 58.42,632.61 57.60,633.68 56.00,632.66 56.87,630.80 57.15,631.35 57.38,630.85 57.93,631.19 58.41,630.87 58.68,631.26 59.10,628.22 61.26,626.17 62.42,626.06 63.76,626.64 65.52,625.67 66.57,626.15 67.61,625.67 68.91,626.01 69.29,626.62 70.04,626.33 68.77,624.37 69.11,621.27 69.84,620.63 71.78,620.90 72.78,619.78 74.02,620.17 74.52,619.46 76.12,619.27 74.98,619.19 74.12,618.44 74.30,616.95 75.13,615.97 86.89,616.48 86.08,613.00 86.92,611.66 85.64,607.09 86.27,606.12 87.07,606.08 86.59,601.88 87.30,601.01 85.87,595.79 86.04,593.81 87.76,592.03 90.01,584.69 87.93,584.50 85.02,582.96 81.04,583.99 73.67,583.02 71.80,583.65 71.37,583.36 71.03,583.80 71.23,583.39 70.44,583.82 69.81,583.38 72.63,582.84 76.35,582.95 77.72,583.38 78.80,582.73 79.19,583.02 79.67,582.44 79.96,582.81 82.25,583.10 84.01,582.06 85.33,582.07 86.65,583.08 87.59,583.37 88.12,583.04 88.34,583.42 88.45,582.62 89.71,582.01 91.88,581.45 93.43,581.68 94.68,580.93 94.89,579.86 95.54,579.58 99.58,571.08 103.89,568.89 107.04,569.37 114.51,567.99 117.71,568.30 121.73,570.06 124.23,570.58 125.13,571.93 125.46,570.47 127.32,568.45 128.59,568.16 130.76,566.47 133.24,563.09 134.77,559.75 132.25,556.33 132.78,553.16 131.74,550.46 131.83,549.22 132.70,548.61 132.83,542.91 133.78,542.23 132.85,542.68 132.11,542.07 130.93,542.23 130.55,541.66 130.09,542.05 129.30,541.71 130.21,541.92 130.50,541.43 131.00,542.04 131.23,541.74 132.82,542.13 133.37,541.57 133.59,539.56 134.84,538.69 135.11,535.56 136.67,533.81 136.50,532.28 138.79,529.54 136.82,523.46 137.17,522.97 140.21,522.74 140.67,521.67 140.15,522.62 138.88,522.54 139.39,521.78 139.16,522.16 138.79,521.68 138.74,522.17 138.52,521.29 137.90,521.87 137.74,521.27 137.52,522.30 135.76,521.83 137.22,521.66 137.40,521.08 136.83,520.72 137.75,519.98 137.66,521.11 138.01,519.87 138.48,520.99 137.95,521.14 139.43,521.42 138.21,519.83 138.59,519.07 137.50,519.32 138.75,518.48 137.13,518.60 137.88,518.28 137.13,518.13 137.87,518.05 137.68,517.20 141.47,521.34 138.18,517.67 138.61,517.10 138.00,516.31 138.14,515.10 137.24,514.04 137.62,513.76 136.91,513.91 136.37,513.43 135.61,511.12 135.62,509.52 136.77,506.77 140.28,506.75 136.10,506.65 137.07,506.58 137.31,506.15 137.72,506.49 139.07,506.19 138.37,506.05 138.69,505.25 139.35,505.39 139.32,506.00 139.92,505.54 140.60,506.93 140.32,505.14 140.67,505.34 141.57,503.32 150.90,494.88 158.62,484.78 162.74,480.93 167.63,477.66 171.80,476.14 178.16,474.73 198.76,472.90 199.92,472.17 200.91,472.36 201.98,471.84 202.96,469.36 200.07,467.98 197.18,465.37 193.93,463.75 191.88,464.02 192.62,463.31 192.10,463.03 190.18,462.97 187.52,464.80 185.98,464.29 187.01,463.22 187.02,462.05 185.08,463.94 184.76,462.15 183.57,462.96 182.36,463.07 182.51,462.05 180.49,460.67 181.69,459.72 180.06,459.76 179.46,459.36 180.05,458.47 177.61,458.56 173.67,457.78 176.09,456.23 175.73,455.37 173.81,453.98 170.30,453.87 170.00,454.75 171.94,454.65 172.19,455.04 171.90,455.62 169.89,456.26 164.77,453.16 160.78,452.46 158.32,451.31 155.17,450.70 153.96,448.67 151.94,447.58 149.69,447.49 147.45,448.80 146.80,448.06 147.01,446.93 144.40,446.43 143.58,445.69 141.40,446.09 136.58,444.79 131.43,444.35 127.11,442.66 124.11,441.74 123.54,441.95 118.70,440.27 116.22,439.05 113.90,435.42 112.56,434.34 112.83,432.23 112.26,431.08 108.01,429.32 112.64,430.72 113.46,434.37 117.52,439.28 126.47,441.91 132.20,444.14 137.27,444.39 142.14,445.77 147.19,444.56 146.71,443.56 144.93,443.15 144.28,441.74 144.98,441.26 147.40,440.95 148.00,439.95 146.26,439.04 147.63,438.14 149.17,438.26 150.94,439.49 153.03,439.66 155.16,441.27 157.43,441.93 158.09,441.12 157.65,439.76 160.17,436.92 163.96,436.46 166.56,434.86 168.28,434.72 169.56,435.12 172.77,434.18 176.84,430.84 180.76,432.09 183.27,430.60 186.21,431.35 193.58,430.21 195.60,430.36 197.75,431.51 198.95,433.54 202.23,434.52 205.59,431.83 209.82,430.76 210.07,429.17 209.12,429.42 209.16,430.06 207.73,429.45 207.30,430.34 206.71,429.71 206.99,429.23 205.83,428.81 205.21,429.30 205.86,429.78 205.17,430.51 204.02,429.78 203.85,428.93 202.87,429.23 202.06,428.47 202.41,428.11 202.92,428.90 202.74,428.25 203.55,428.17 203.42,426.91 205.01,425.27 207.99,422.79 212.58,420.01 211.59,420.47 211.34,419.69 211.93,419.63 211.13,419.49 211.01,418.97 213.28,419.48 213.87,418.23 214.48,418.23 214.87,417.61 214.29,417.11 217.62,417.43 213.31,419.73 219.03,416.83 237.86,405.71 221.69,415.02 220.28,415.38 217.60,414.55 216.95,414.92 214.58,411.38 215.28,411.67 217.29,410.39 217.27,409.83 217.65,410.34 220.79,410.13 220.91,407.78 221.61,408.02 222.59,410.30 224.51,411.14 223.10,408.54 223.84,404.35 224.10,404.12 224.38,407.78 225.95,408.92 227.09,405.82 227.04,403.12 226.18,401.86 227.58,399.88 228.84,400.78 229.09,403.56 231.09,404.54 233.07,407.06 233.88,405.50 234.16,406.08 235.03,405.73 235.54,404.30 235.06,403.17 236.72,401.61 236.28,400.56 236.63,399.22 237.16,399.24 238.24,402.16 238.42,405.47 243.65,402.65 249.12,398.00 250.69,396.30 249.41,397.41 248.45,395.36 249.03,395.38 251.42,393.28 253.64,392.70 254.81,391.71 253.81,389.85 255.21,390.94 256.75,389.81 256.38,391.43 250.70,396.28 260.83,388.37 258.94,388.95 258.06,388.30 256.35,385.22 254.42,383.82 254.12,381.18 254.59,381.03 252.83,379.72 251.45,379.98 249.76,379.66 249.57,379.02 248.37,378.46 244.29,377.69 238.75,374.36 235.69,371.03 235.98,369.92 238.38,367.59 241.96,366.50 244.65,366.97 245.27,367.70 244.06,369.40 245.71,369.92 247.02,372.87 247.86,373.27 249.57,371.31 249.91,369.78 249.25,368.21 249.99,367.71 250.70,368.28 251.21,370.49 250.76,372.74 251.22,373.41 253.17,374.78 256.65,375.33 258.41,377.16 256.99,379.45 257.33,380.15 258.89,381.67 263.32,383.89 262.82,385.88 260.97,387.30 260.86,388.19 263.51,384.98 266.68,382.64 274.80,372.19 273.36,371.76 272.80,370.49 271.78,370.80 271.26,370.40 271.82,370.62 272.22,370.21 272.08,367.45 272.40,369.78 274.65,371.74 277.07,369.24 279.72,368.08 281.09,363.32 280.24,360.21 279.96,360.63 279.34,360.40 279.56,360.03 278.99,360.19 278.22,359.30 279.02,357.17 281.64,355.83 283.54,355.71 285.02,356.28 289.55,354.73 297.20,353.08 297.35,350.98 296.41,348.93 297.59,349.19 298.28,352.02 297.73,352.90 308.19,350.96 312.71,352.19 315.73,352.01 319.99,352.86 320.45,351.79 321.38,351.32 324.18,351.57 324.94,350.71 324.47,350.59 324.72,349.55 327.63,348.51 328.45,346.88 329.28,346.71 329.46,344.12 328.41,343.77 328.05,342.98 325.71,342.24 325.29,339.23 325.83,339.60 326.32,342.41 327.82,342.23 329.53,342.74 330.60,344.25 331.85,342.90 331.09,341.13 331.97,341.71 332.45,340.68 336.61,339.09 336.22,336.84 337.08,338.18 336.92,339.29 334.45,341.06 333.03,341.49 333.62,342.96 332.14,344.67 332.42,345.92 330.28,346.68 330.88,347.36 330.45,348.57 326.76,350.94 325.20,351.10 329.97,351.18 333.64,352.83 336.46,350.11 339.58,349.47 343.47,350.09 345.86,350.99 348.69,351.22 350.29,352.18 356.51,350.26 357.58,349.04 357.30,347.65 357.96,345.16 358.94,344.08 357.66,344.00 356.40,342.93 355.47,341.57 355.54,339.91 358.16,336.56 360.18,335.91 361.97,334.62 363.81,332.07 363.63,331.22 363.07,330.42 361.53,331.01 359.02,330.79 357.50,329.67 358.39,328.29 360.94,326.60 361.11,325.57 356.76,326.60 355.57,326.38 354.35,325.42 353.57,323.77 354.23,321.39 355.92,321.59 356.91,320.43 356.66,319.38 357.16,319.36 355.57,318.47 352.72,317.83 352.20,316.48 353.55,314.91 352.22,313.31 346.95,311.30 346.57,309.22 347.47,307.76 349.00,306.82 348.07,305.94 346.82,306.08 345.61,304.81 346.88,306.01 348.07,305.85 349.09,306.65 347.36,308.07 346.74,309.29 347.17,311.30 352.20,313.00 353.85,314.58 353.11,313.04 354.47,314.97 353.39,316.92 353.73,317.76 354.96,318.28 356.97,318.31 358.12,319.46 357.86,320.93 355.82,322.16 354.39,323.90 354.72,323.74 355.68,325.28 356.13,325.06 356.64,325.75 360.67,324.17 362.27,324.35 363.15,325.00 363.56,327.23 362.66,326.70 361.43,327.26 359.68,328.86 359.91,329.80 359.94,329.93"/>
    <polyline fill="none" stroke="#1f6f8b" stroke-width="2.10" stroke-opacity="0.38" stroke-linejoin="round" stroke-linecap="round" points="359.94,329.93 373.57,355.75 456.86,340.97 411.11,348.71 388.80,362.10 331.04,354.38 344.15,364.12 365.87,363.42 349.14,375.50 391.70,387.30 446.85,378.82 445.40,386.15 465.59,391.49 472.92,383.69 477.87,403.96 442.98,407.80 396.46,434.22 430.51,438.93 445.55,431.08 430.86,439.05 472.30,460.49 471.69,487.19 457.26,489.21 464.59,495.01 481.57,502.48 507.87,499.66 530.44,480.45 572.46,475.10 603.16,452.47 623.66,461.10 695.47,453.92 719.80,462.66 734.74,481.69 756.28,479.03 783.36,500.43 823.22,509.62 927.95,586.30 975.42,596.54 982.68,610.01 1002.76,614.36 1015.82,649.80 1063.74,655.75 1016.76,650.51 1024.73,676.60 1000.42,705.24 915.40,737.36 865.69,724.20 793.83,737.60 748.28,722.22 736.44,729.55 678.56,705.53 661.53,714.53 638.29,685.00 585.67,683.10 573.00,669.17 581.15,662.52 563.17,657.23 548.20,667.63 454.58,662.48 403.32,675.54 297.29,726.54 172.16,716.74 112.04,697.93 75.32,636.13 56.00,632.66 86.89,616.48 90.01,584.69 69.81,583.38 93.43,581.68 103.89,568.89 125.13,571.93 141.47,521.34 136.10,506.65 167.63,477.66 202.96,469.36 108.01,429.32 142.14,445.77 176.84,430.84 202.23,434.52 211.01,418.97 237.86,405.71 216.95,414.92 227.58,399.88 238.42,405.47 260.83,388.37 238.38,367.59 250.70,368.28 260.86,388.19 279.02,357.17 296.41,348.93 319.99,352.86 336.22,336.84 325.20,351.10 356.51,350.26 363.63,331.22 345.61,304.81 359.91,329.80 359.94,329.93"/>
    <polyline fill="none" stroke="#2c7a7b" stroke-width="3.60" stroke-opacity="1.00" stroke-linejoin="round" stroke-linecap="round" points="359.94,329.93 364.48,338.54 372.05,339.43 369.02,347.14 373.57,355.75 401.33,350.82 408.05,327.68 429.10,345.89 456.86,340.97 441.61,343.55 432.89,355.21 426.36,346.13 411.11,348.71 403.68,353.18 405.41,361.16 396.24,357.64 388.80,362.10 369.55,359.53 355.65,375.06 350.29,356.95 331.04,354.38 335.41,357.62 339.38,355.15 339.78,360.87 344.15,364.12 351.39,363.89 354.60,358.97 358.63,363.65 365.87,363.42 360.29,367.45 361.67,374.07 354.72,371.48 349.14,375.50 363.33,379.43 373.34,366.55 377.52,383.37 391.70,387.30 410.09,384.47 412.23,361.60 428.47,381.65 446.85,378.82 446.37,381.26 447.68,383.14 445.88,383.71 445.40,386.15 452.13,387.93 456.90,384.27 458.86,389.71 465.59,391.49 468.03,388.89 466.99,386.35 470.47,386.29 472.92,383.69 474.57,390.45 480.24,390.54 476.22,397.21 477.87,403.96 466.24,405.24 461.93,414.28 454.61,406.52 442.98,407.80 427.47,416.60 425.69,436.34 411.97,425.41 396.46,434.22 407.81,435.79 413.57,422.70 419.16,437.36 430.51,438.93 435.52,436.31 437.67,429.66 440.54,433.69 445.55,431.08 440.65,433.73 442.27,440.09 435.76,436.39 430.86,439.05 444.68,446.20 460.21,440.51 458.49,453.34 472.30,460.49 472.09,469.39 481.37,473.24 471.89,478.29 471.69,487.19 466.88,487.86 464.94,491.11 462.07,488.53 457.26,489.21 459.70,491.14 462.53,489.57 462.15,493.07 464.59,495.01 470.25,497.50 474.45,492.78 475.91,499.99 481.57,502.48 490.33,501.54 494.09,492.17 499.10,500.60 507.87,499.66 515.39,493.26 515.52,484.97 522.92,486.85 530.44,480.45 544.45,478.66 546.41,462.59 558.45,476.88 572.46,475.10 582.69,467.55 581.24,456.63 592.92,460.01 603.16,452.47 609.99,455.35 615.38,451.51 616.82,458.22 623.66,461.10 647.59,458.71 661.44,442.71 671.53,456.32 695.47,453.92 703.58,456.83 708.96,449.11 711.69,459.75 719.80,462.66 724.78,469.00 733.73,469.60 729.76,475.34 734.74,481.69 741.92,480.80 746.00,475.73 749.10,479.92 756.28,479.03 765.31,486.16 776.87,483.13 774.34,493.30 783.36,500.43 796.65,503.49 804.39,489.33 809.93,506.55 823.22,509.62 858.13,535.18 904.09,522.95 893.04,560.74 927.95,586.30 943.77,589.71 957.18,575.76 959.60,593.13 975.42,596.54 977.84,601.03 983.04,600.73 980.26,605.52 982.68,610.01 989.37,611.46 993.18,607.53 996.06,612.91 1002.76,614.36 1007.11,626.17 1021.81,628.88 1011.46,637.98 1015.82,649.80 1031.79,651.78 1039.27,633.41 1047.77,653.76 1063.74,655.75 1048.08,654.00 1035.74,666.55 1032.42,652.26 1016.76,650.51 1019.42,659.21 1029.11,661.81 1022.08,667.90 1024.73,676.60 1016.63,686.15 1021.99,695.02 1008.52,695.70 1000.42,705.24 972.08,715.95 960.42,748.68 943.74,726.65 915.40,737.36 898.83,732.97 881.77,745.84 882.26,728.59 865.69,724.20 841.74,728.67 839.31,749.19 817.79,733.14 793.83,737.60 778.65,732.48 767.67,744.47 763.46,727.35 748.28,722.22 744.33,724.66 743.90,730.34 740.38,727.11 736.44,729.55 717.15,721.54 699.22,733.80 697.85,713.54 678.56,705.53 672.88,708.53 670.20,716.04 667.20,711.53 661.53,714.53 653.78,704.69 643.52,705.15 646.03,694.84 638.29,685.00 620.75,684.36 614.56,704.65 603.21,683.73 585.67,683.10 581.45,678.46 575.86,679.78 577.22,673.82 573.00,669.17 575.71,666.96 574.56,663.39 578.43,664.74 581.15,662.52 575.16,660.76 569.92,664.98 569.16,658.99 563.17,657.23 558.18,660.70 557.47,665.97 553.19,664.16 548.20,667.63 516.99,665.91 504.19,698.49 485.79,664.20 454.58,662.48 437.49,666.83 432.53,679.11 420.40,671.18 403.32,675.54 367.97,692.54 353.53,736.14 332.63,709.54 297.29,726.54 255.58,723.27 231.77,746.31 213.87,720.01 172.16,716.74 152.12,710.47 139.67,729.75 132.08,704.20 112.04,697.93 99.80,677.33 70.36,672.40 87.56,656.73 75.32,636.13 68.88,634.97 63.65,638.52 62.44,633.82 56.00,632.66 66.30,627.27 70.27,613.71 76.60,621.87 86.89,616.48 87.93,605.88 79.16,600.02 88.97,595.29 90.01,584.69 83.28,584.25 78.99,588.32 76.55,583.82 69.81,583.38 77.69,582.82 79.04,575.50 85.56,582.25 93.43,581.68 96.92,577.42 96.02,572.95 100.40,573.16 103.89,568.89 110.97,569.91 113.90,564.76 118.05,570.92 125.13,571.93 130.58,555.07 116.27,542.05 136.03,538.20 141.47,521.34 139.68,516.45 134.73,515.80 137.89,511.55 136.10,506.65 146.61,496.99 147.97,479.64 157.12,487.32 167.63,477.66 179.41,474.89 181.74,460.90 191.18,472.12 202.96,469.36 171.31,456.01 152.62,476.44 139.66,442.67 108.01,429.32 119.38,434.81 127.22,425.52 130.76,440.29 142.14,445.77 153.71,440.80 157.73,429.11 165.27,435.82 176.84,430.84 185.31,432.07 191.71,425.54 193.77,433.30 202.23,434.52 205.16,429.34 202.79,424.14 208.08,424.16 211.01,418.97 219.96,414.55 218.65,406.87 228.91,410.13 237.86,405.71 230.89,408.78 230.10,416.28 223.92,411.85 216.95,414.92 220.49,409.91 216.90,405.42 224.04,404.89 227.58,399.88 231.19,401.74 233.95,398.73 234.81,403.60 238.42,405.47 245.89,399.77 244.68,389.08 253.36,394.07 260.83,388.37 253.35,381.45 243.72,385.17 245.87,374.52 238.38,367.59 242.49,367.82 245.55,364.14 246.60,368.05 250.70,368.28 254.09,374.92 262.81,375.00 257.48,381.55 260.86,388.19 266.91,377.85 258.47,367.02 272.96,367.51 279.02,357.17 284.81,354.43 285.57,348.85 290.61,351.68 296.41,348.93 304.27,350.24 310.13,342.80 312.13,351.55 319.99,352.86 325.40,347.52 323.01,341.87 330.81,342.18 336.22,336.84 332.55,341.60 334.24,347.64 328.87,346.35 325.20,351.10 335.64,350.82 342.53,340.43 346.07,350.54 356.51,350.26 358.88,343.91 355.29,336.59 361.26,337.56 363.63,331.22 357.62,322.41 349.45,321.05 351.61,313.61 345.61,304.81 350.38,313.14 358.07,314.72 355.15,321.47 359.91,329.80 359.92,329.84 359.96,329.86 359.93,329.89 359.94,329.93"/>
  </g>
  <g>
  </g>
  <g>
    <text x="1092" y="220" font-family="Helvetica, Arial, sans-serif" font-size="18" font-weight="700" fill="#16324f">Слои и длины</text>
    <line x1="1092" y1="258" x2="1126" y2="258" stroke="#7a8b99" stroke-width="1.80" stroke-opacity="0.85" stroke-dasharray="8 6"/>
    <text x="1138" y="256" font-family="Helvetica, Arial, sans-serif" font-size="13" fill="#16324f">Реальная загруженная</text>
    <text x="1138" y="271" font-family="Helvetica, Arial, sans-serif" font-size="13" fill="#16324f">полилиния (справочно)</text>
    <text x="1138" y="288" font-family="Helvetica, Arial, sans-serif" font-size="12" fill="#6b7a87">6391 км</text>
    <line x1="1092" y1="302" x2="1356" y2="302" stroke="#ddd6c8" stroke-width="1"/>
    <line x1="1092" y1="326" x2="1126" y2="326" stroke="#1f6f8b" stroke-width="2.10" stroke-opacity="0.38"/>
    <text x="1138" y="324" font-family="Helvetica, Arial, sans-serif" font-size="13" fill="#16324f">Упрощённая база модели</text>
    <text x="1138" y="339" font-family="Helvetica, Arial, sans-serif" font-size="13" fill="#16324f">(итерация 0)</text>
    <text x="1138" y="356" font-family="Helvetica, Arial, sans-serif" font-size="12" fill="#6b7a87">4603 км</text>
    <line x1="1092" y1="370" x2="1356" y2="370" stroke="#ddd6c8" stroke-width="1"/>
    <line x1="1092" y1="394" x2="1126" y2="394" stroke="#2c7a7b" stroke-width="3.60" stroke-opacity="1.00"/>
    <text x="1138" y="392" font-family="Helvetica, Arial, sans-serif" font-size="13" fill="#16324f">Синтетическая итерация 1</text>
    <text x="1138" y="409" font-family="Helvetica, Arial, sans-serif" font-size="12" fill="#6b7a87">6592 км</text>
  </g>
  <g>
    <rect x="1092" y="451" width="264" height="108" rx="18" fill="#f8f6ef" stroke="#d6d0c4"/>
    <text x="1106" y="471" font-family="Helvetica, Arial, sans-serif" font-size="14" font-weight="700" fill="#16324f">Контроль геометрии</text>
    <text x="1106" y="503" font-family="Helvetica, Arial, sans-serif" font-size="12" fill="#4f6d7a">Сегменты &gt; 450 км</text>
    <text x="1342" y="503" text-anchor="end" font-family="Helvetica, Arial, sans-serif" font-size="13" font-weight="700" fill="#3f6b4b">0</text>
    <line x1="1106" y1="507" x2="1342" y2="507" stroke="#e7e1d5" stroke-width="1"/>
    <text x="1106" y="525" font-family="Helvetica, Arial, sans-serif" font-size="12" fill="#4f6d7a">Повторы ориентиров</text>
    <text x="1342" y="525" text-anchor="end" font-family="Helvetica, Arial, sans-serif" font-size="13" font-weight="700" fill="#3f6b4b">0</text>
    <line x1="1106" y1="529" x2="1342" y2="529" stroke="#e7e1d5" stroke-width="1"/>
    <text x="1106" y="547" font-family="Helvetica, Arial, sans-serif" font-size="12" fill="#4f6d7a">Автоисправления</text>
    <text x="1342" y="547" text-anchor="end" font-family="Helvetica, Arial, sans-serif" font-size="13" font-weight="700" fill="#3f6b4b">0</text>
  </g>
  <g>
    <rect x="1092" y="577" width="264" height="118" rx="18" fill="#fcfbf7" stroke="#d6d0c4"/>
    <text x="1106" y="597" font-family="Helvetica, Arial, sans-serif" font-size="14" font-weight="700" fill="#16324f">Длина по итерациям</text>
    <line x1="1106" y1="608" x2="1122" y2="608" stroke="#1f6f8b" stroke-width="2.2"/>
    <text x="1128" y="612" font-family="Helvetica, Arial, sans-serif" font-size="11" fill="#4f6d7a">Измерено</text>
    <line x1="1106" y1="621.00" x2="1342" y2="621.00" stroke="#ddd6c8" stroke-width="1"/>
    <line x1="1106" y1="647.00" x2="1342" y2="647.00" stroke="#ddd6c8" stroke-width="1"/>
    <line x1="1106" y1="673.00" x2="1342" y2="673.00" stroke="#ddd6c8" stroke-width="1"/>
    <line x1="1106" y1="673" x2="1342" y2="673" stroke="#8a9aa6" stroke-width="1.4"/>
    <text x="1106" y="615" font-family="Helvetica, Arial, sans-serif" font-size="11" fill="#6b7a87">6751</text>
    <text x="1106" y="687" font-family="Helvetica, Arial, sans-serif" font-size="11" fill="#6b7a87">4444</text>
    <text x="1106" y="685" font-family="Helvetica, Arial, sans-serif" font-size="11" fill="#6b7a87">0</text>
    <text x="1342" y="685" text-anchor="end" font-family="Helvetica, Arial, sans-serif" font-size="11" fill="#6b7a87">1</text>
    <polyline fill="none" stroke="#1f6f8b" stroke-width="2.4" stroke-linecap="round" stroke-linejoin="round" points="1106.00,669.41 1342.00,624.59"/>
    <circle cx="1106.00" cy="669.41" r="2.8" fill="#1f6f8b"/>
    <circle cx="1342.00" cy="624.59" r="2.8" fill="#1f6f8b"/>
    <rect x="1092" y="713" width="264" height="118" rx="18" fill="#fcfbf7" stroke="#d6d0c4"/>
    <text x="1106" y="733" font-family="Helvetica, Arial, sans-serif" font-size="14" font-weight="700" fill="#16324f">Размерность D</text>
    <line x1="1106" y1="744" x2="1122" y2="744" stroke="#8b3f5c" stroke-width="2.2"/>
    <text x="1128" y="748" font-family="Helvetica, Arial, sans-serif" font-size="11" fill="#4f6d7a">Оценка</text>
    <line x1="1204" y1="744" x2="1220" y2="744" stroke="#6f5f1f" stroke-width="2.2" stroke-dasharray="5 4"/>
    <text x="1226" y="748" font-family="Helvetica, Arial, sans-serif" font-size="11" fill="#4f6d7a">Теория</text>
    <line x1="1106" y1="757.00" x2="1342" y2="757.00" stroke="#ddd6c8" stroke-width="1"/>
    <line x1="1106" y1="783.00" x2="1342" y2="783.00" stroke="#ddd6c8" stroke-width="1"/>
    <line x1="1106" y1="809.00" x2="1342" y2="809.00" stroke="#ddd6c8" stroke-width="1"/>
    <line x1="1106" y1="809" x2="1342" y2="809" stroke="#8a9aa6" stroke-width="1.4"/>
    <text x="1106" y="751" font-family="Helvetica, Arial, sans-serif" font-size="11" fill="#6b7a87">1.278</text>
    <text x="1106" y="823" font-family="Helvetica, Arial, sans-serif" font-size="11" fill="#6b7a87">1.040</text>
    <text x="1106" y="821" font-family="Helvetica, Arial, sans-serif" font-size="11" fill="#6b7a87">0</text>
    <text x="1342" y="821" text-anchor="end" font-family="Helvetica, Arial, sans-serif" font-size="11" fill="#6b7a87">1</text>
    <polyline fill="none" stroke="#8b3f5c" stroke-width="2.4" stroke-linecap="round" stroke-linejoin="round" points="1106.00,805.41 1342.00,783.06"/>
    <circle cx="1106.00" cy="805.41" r="2.8" fill="#8b3f5c"/>
    <circle cx="1342.00" cy="783.06" r="2.8" fill="#8b3f5c"/>
    <polyline fill="none" stroke="#6f5f1f" stroke-width="2.4" stroke-linecap="round" stroke-linejoin="round" stroke-dasharray="5 4" points="1106.00,760.59 1342.00,760.59"/>
    <circle cx="1106.00" cy="760.59" r="2.8" fill="#6f5f1f"/>
    <circle cx="1342.00" cy="760.59" r="2.8" fill="#6f5f1f"/>
  </g>
  <g>
  </g>
  <g>
    <rect x="1092" y="875" width="264" height="186" rx="18" fill="#f8f6ef" stroke="#d6d0c4"/>
    <text x="1106" y="895" font-family="Helvetica, Arial, sans-serif" font-size="14" font-weight="700" fill="#16324f">Сводка</text>
    <text x="1106" y="917" font-family="Helvetica, Arial, sans-serif" font-size="12" fill="#4f6d7a">Реальная линия: 6391 км, 9635 т.</text>
    <line x1="1106" y1="937" x2="1342" y2="937" stroke="#e7e1d5" stroke-width="1"/>
    <text x="1106" y="945" font-family="Helvetica, Arial, sans-serif" font-size="12" fill="#4f6d7a">База модели: 4603 км, 98 т.</text>
    <text x="1106" y="961" font-family="Helvetica, Arial, sans-serif" font-size="12" fill="#4f6d7a">(-28.0% к реальной)</text>
    <line x1="1106" y1="981" x2="1342" y2="981" stroke="#e7e1d5" stroke-width="1"/>
    <text x="1106" y="989" font-family="Helvetica, Arial, sans-serif" font-size="12" fill="#4f6d7a">Текущий слой: 6592 км, 389 т.</text>
    <text x="1106" y="1005" font-family="Helvetica, Arial, sans-serif" font-size="12" fill="#4f6d7a">расчёт / 389 т. SVG</text>
    <line x1="1106" y1="1025" x2="1342" y2="1025" stroke="#e7e1d5" stroke-width="1"/>
    <text x="1106" y="1033" font-family="Helvetica, Arial, sans-serif" font-size="12" fill="#4f6d7a">D: 1.15869, R²=0.9997, стаб=true</text>
  </g>
  <g>
    <line x1="56" y1="1019" x2="479" y2="1019" stroke="#16324f" stroke-width="3"/>
    <line x1="56" y1="1012" x2="56" y2="1026" stroke="#16324f" stroke-width="6"/>
    <line x1="479" y1="1012" x2="479" y2="1026" stroke="#16324f" stroke-width="6"/>
    <text x="56" y="1005" font-family="Helvetica, Arial, sans-serif" font-size="13" fill="#16324f">Масштаб ≈ 500 км</text>  </g>
</svg>
